<svg width="15" height="15" viewBox="0 0 15 15" fill="none" xmlns="http://www.w3.org/2000/svg">
<g clip-path="url(#clip0_382_10702)">
<g filter="url(#filter0_d_382_10702)">
<path fill-rule="evenodd" clip-rule="evenodd" d="M6.01984 1.35333C5.71984 2.23333 5.50651 3.14667 5.33984 4.06C6.88651 3.88667 8.44651 3.88667 9.99318 4.06C9.82651 3.14667 9.61318 2.24 9.31318 1.35333C9.30397 1.31651 9.30112 1.28605 9.29805 1.25316L9.29804 1.2531C9.29666 1.23837 9.29524 1.22316 9.29318 1.20667C8.77318 1.08 8.22651 1 7.66651 1C7.09984 1 6.55984 1.08 6.03318 1.20667C6.03053 1.22788 6.02998 1.24698 6.02945 1.26565C6.02865 1.29392 6.02787 1.32121 6.01984 1.35333ZM10.1756 10.1756C8.50816 10.3859 6.82518 10.3859 5.15778 10.1756C4.94741 8.50816 4.94741 6.82518 5.15778 5.15778C6.82518 4.94741 8.50816 4.94741 10.1756 5.15778C10.3859 6.82518 10.3859 8.50816 10.1756 10.1756ZM9.99318 11.2729C9.82651 12.1929 9.61318 13.0996 9.31318 13.9796C9.30397 14.0164 9.30112 14.0469 9.29805 14.0798C9.29667 14.0945 9.29524 14.1098 9.29318 14.1263C8.77318 14.2529 8.22651 14.3329 7.66651 14.3329C7.09984 14.3329 6.55984 14.2529 6.03318 14.1263C6.03053 14.1051 6.02998 14.086 6.02945 14.0673C6.02865 14.039 6.02787 14.0117 6.01984 13.9796C5.72651 13.0929 5.50651 12.1929 5.33984 11.2729C6.11318 11.3596 6.88651 11.4196 7.66651 11.4196C8.44651 11.4196 9.22651 11.3596 9.99318 11.2729ZM14.1263 9.29984C14.2529 8.77318 14.3329 8.23318 14.3329 7.66651C14.3329 7.10651 14.2529 6.56651 14.1263 6.03984C14.0729 6.03984 14.0329 6.03318 13.9796 6.01984C13.0996 5.71984 12.1863 5.50651 11.2729 5.33984C11.4463 6.88651 11.4463 8.44651 11.2729 9.99318C12.1863 9.82651 13.0929 9.60651 13.9796 9.31318C14.0117 9.30515 14.039 9.30437 14.0673 9.30357C14.086 9.30304 14.1051 9.3025 14.1263 9.29984ZM4.06 9.99318C3.14 9.82651 2.23333 9.61318 1.35333 9.31318C1.32121 9.30515 1.29392 9.30437 1.26564 9.30357C1.24698 9.30304 1.22788 9.3025 1.20667 9.29984C1.08 8.77318 1 8.23318 1 7.66651C1 7.10651 1.08 6.55984 1.20667 6.03984C1.22317 6.03778 1.2384 6.03636 1.25314 6.03498L1.25316 6.03498C1.28604 6.0319 1.31651 6.02905 1.35333 6.01984C2.24 5.72651 3.14 5.50651 4.06 5.33984C3.89333 6.88651 3.89333 8.44651 4.06 9.99318ZM4.76665 1.72654C4.52665 2.53988 4.35332 3.36654 4.21332 4.20654C3.35332 4.33988 2.49999 4.55321 1.65332 4.80654C2.29999 3.46654 3.37332 2.36654 4.69999 1.70654C4.70999 1.70654 4.72165 1.71154 4.73332 1.71654C4.74499 1.72154 4.75665 1.72654 4.76665 1.72654ZM11.133 4.19999C11.993 4.34665 12.8397 4.55332 13.6797 4.80665C13.0197 3.42665 11.9064 2.31332 10.5264 1.65332C10.7864 2.48665 10.993 3.33999 11.133 4.19999ZM13.6264 10.6334C12.9664 11.9601 11.8664 13.0334 10.5264 13.6801C10.7797 12.8334 10.993 11.9801 11.133 11.1201C11.973 10.9801 12.7997 10.8001 13.613 10.5601C13.609 10.5761 13.6147 10.5921 13.6198 10.6067C13.6232 10.6164 13.6264 10.6254 13.6264 10.6334ZM4.73321 13.6134C4.74488 13.6101 4.75654 13.6067 4.76654 13.6067C4.52654 12.7934 4.35321 11.9601 4.20654 11.1201C3.37321 10.9801 2.53321 10.8001 1.71988 10.5601C1.71988 10.5701 1.71654 10.5817 1.71321 10.5934C1.70988 10.6051 1.70654 10.6167 1.70654 10.6267C2.35321 11.9201 3.40654 12.9801 4.69988 13.6201C4.70988 13.6201 4.72154 13.6167 4.73321 13.6134Z" fill="url(#paint0_linear_382_10702)"/>
</g>
</g>
<defs>
<filter id="filter0_d_382_10702" x="-60.4" y="-60.4" width="136.133" height="136.133" filterUnits="userSpaceOnUse" color-interpolation-filters="sRGB">
<feFlood flood-opacity="0" result="BackgroundImageFix"/>
<feColorMatrix in="SourceAlpha" type="matrix" values="0 0 0 0 0 0 0 0 0 0 0 0 0 0 0 0 0 0 127 0" result="hardAlpha"/>
<feOffset/>
<feGaussianBlur stdDeviation="30.7"/>
<feComposite in2="hardAlpha" operator="out"/>
<feColorMatrix type="matrix" values="0 0 0 0 0.960784 0 0 0 0 0.584314 0 0 0 0 0.290196 0 0 0 0.45 0"/>
<feBlend mode="normal" in2="BackgroundImageFix" result="effect1_dropShadow_382_10702"/>
<feBlend mode="normal" in="SourceGraphic" in2="effect1_dropShadow_382_10702" result="shape"/>
</filter>
<linearGradient id="paint0_linear_382_10702" x1="7.66647" y1="14.3329" x2="7.66647" y2="1" gradientUnits="userSpaceOnUse">
<stop stop-color="#FF4C00"/>
<stop offset="0.673669" stop-color="#FF9E50"/>
<stop offset="1" stop-color="#FFCEA7"/>
</linearGradient>
<clipPath id="clip0_382_10702">
<rect width="15" height="15" fill="white"/>
</clipPath>
</defs>
</svg>
