<svg width="112" height="28" viewBox="0 0 112 28" fill="none" xmlns="http://www.w3.org/2000/svg">
<g id="GCORE_orange_001 1" clip-path="url(#clip0_2007_3646)">
<path id="Vector" fill-rule="evenodd" clip-rule="evenodd" d="M23.9987 14C23.9987 21.7315 17.7445 28 10.0302 28C6.91396 28 4.03536 26.9768 1.71212 25.2486C2.10984 25.4722 2.51967 25.6739 2.94165 25.8562C4.53978 26.5465 6.2616 26.9038 8.00283 26.9038C11.2452 26.9038 14.3663 25.6739 16.7429 23.467C19.1194 21.26 20.5794 18.234 20.8267 14.9941C20.8608 14.6879 20.8801 14.3816 20.8849 14.0753C20.8849 13.684 20.8534 13.2319 20.8122 12.8188C20.8098 12.7799 20.8073 12.7385 20.805 12.6997C20.805 12.6535 20.8025 12.6073 20.7976 12.5635L20.7855 12.5757C20.7274 12.0385 20.6667 11.6253 20.6667 11.6253H10.5322L9.74405 13.1031L7.93492 16.5303H15.5933C15.3096 17.3785 14.8852 18.1757 14.3395 18.8854C13.5951 19.8625 12.6372 20.6524 11.5362 21.1969C10.4376 21.7413 9.2275 22.0257 8.0004 22.0232C7.06188 22.0232 6.13065 21.8531 5.25034 21.5274C3.7104 20.9636 2.38145 19.9403 1.44294 18.5937C0.50442 17.2448 0 15.6431 0 14C0 12.9476 0.206134 11.9024 0.6087 10.9302C1.01127 9.95798 1.60056 9.07326 2.34265 8.32708C3.08473 7.58333 3.96747 6.99027 4.93992 6.58924C5.91239 6.1882 6.95276 5.97917 8.00283 5.97917C9.69797 5.97674 11.3519 6.51632 12.7196 7.52014L13.7697 5.54896L15.021 3.17917C12.933 1.81562 10.4934 1.09132 8.0004 1.09375C5.79598 1.09375 3.64977 1.6625 1.75092 2.71737C4.07175 1.01111 6.93335 0 10.0302 0C17.7445 0 23.9987 6.2684 23.9987 14Z" fill="white"/>
<path id="Vector_2" d="M61.9346 17.1818C61.442 17.7731 60.8238 18.248 60.1231 18.5637C59.4987 18.8393 58.8194 18.9772 58.1369 18.9742C57.2648 18.9894 56.4017 18.7781 55.6336 18.3583C55.6061 18.3431 55.5816 18.3247 55.5541 18.3063C54.8685 17.911 54.3024 17.3351 53.9169 16.6395C53.4975 15.8705 53.2864 15.0095 53.3017 14.1333C53.2864 13.2601 53.4975 12.3961 53.9169 11.627C54.3024 10.9346 54.8655 10.3586 55.5541 9.9603C55.5816 9.94499 55.6061 9.92354 55.6336 9.90822C56.4017 9.48847 57.2616 9.27707 58.1369 9.29238C58.8224 9.28625 59.4987 9.42412 60.1261 9.69682L61.5491 7.019C61.5491 7.019 61.5277 7.00675 61.5154 7.00063C60.3924 6.53186 59.1835 6.29593 57.9655 6.31125C56.619 6.29593 55.2908 6.59313 54.076 7.17526C53.9749 7.22428 53.8679 7.26105 53.7669 7.3162C52.552 7.95654 51.536 8.92166 50.8321 10.1043C50.1129 11.3237 49.7427 12.7178 49.7641 14.1333C49.7427 15.5487 50.1129 16.9428 50.8321 18.1622C51.536 19.3419 52.552 20.307 53.7669 20.9473C53.8679 21.0024 53.9749 21.0392 54.076 21.0883C55.2817 21.6673 56.6037 21.9645 57.9411 21.9522C59.1621 21.9706 60.374 21.7348 61.5002 21.2598C61.5154 21.2536 61.5277 21.2446 61.543 21.2384C62.5652 20.7941 63.4678 20.1139 64.1748 19.25L61.9316 17.1757L61.9346 17.1818Z" fill="white"/>
<path id="Vector_3" d="M69.2825 20.9381C68.0583 20.2947 67.0363 19.3265 66.3262 18.1408C65.6071 16.9306 65.2368 15.5427 65.2582 14.1332C65.2368 12.7239 65.6071 11.336 66.3262 10.1258C67.0363 8.94006 68.0583 7.97188 69.2825 7.32847C70.5892 6.63909 72.0458 6.29288 73.524 6.31127C74.996 6.28675 76.4527 6.63603 77.7532 7.3254C78.9743 7.97188 79.9965 8.94006 80.7095 10.1227C81.4348 11.3329 81.8081 12.7208 81.7898 14.1302C81.8081 15.5395 81.4348 16.9276 80.7095 18.1378C79.9965 19.3205 78.9743 20.2886 77.7532 20.935C76.4527 21.6245 74.996 21.9738 73.524 21.9522C72.049 21.9738 70.5892 21.6245 69.2825 20.935V20.9381ZM75.9385 18.3553C76.6516 17.9508 77.2392 17.3565 77.6339 16.6364C78.0531 15.8674 78.2644 15.0065 78.249 14.1302C78.2644 13.2571 78.0531 12.393 77.6339 11.624C77.2392 10.904 76.6516 10.3096 75.9385 9.90516C75.201 9.49154 74.3687 9.27707 73.521 9.28934C72.6763 9.27707 71.8409 9.48848 71.1033 9.90516C70.3902 10.3096 69.8027 10.904 69.408 11.624C68.9887 12.393 68.7775 13.2539 68.7928 14.1302C68.7775 15.0035 68.9887 15.8674 69.408 16.6364C69.8027 17.3565 70.3902 17.9508 71.1033 18.3553C71.8409 18.772 72.6732 18.9834 73.521 18.9712C74.3655 18.9834 75.201 18.772 75.9385 18.3553Z" fill="white"/>
<path id="Vector_4" d="M94.0462 21.6948L91.1328 17.482H87.9165V21.6948H84.4216V6.57158H90.9583C92.1549 6.54401 93.3422 6.77073 94.444 7.24257C95.3712 7.64086 96.1639 8.30266 96.7209 9.14523C97.2687 10.0184 97.5472 11.0326 97.5196 12.062C97.5472 13.0915 97.2655 14.1025 96.7117 14.9666C96.1455 15.803 95.3468 16.4525 94.4134 16.8355L97.8011 21.6979H94.0462V21.6948ZM93.1617 10.1042C92.4671 9.60479 91.6193 9.36276 90.7686 9.42403H87.9195V14.6939H90.7686C91.6225 14.752 92.4732 14.51 93.1617 14.0014C93.4372 13.7624 93.6545 13.4622 93.7983 13.1252C93.939 12.7881 94.0033 12.4236 93.985 12.0589C94.0064 11.6913 93.9452 11.3236 93.8014 10.9866C93.6605 10.6465 93.4402 10.3463 93.1649 10.1042H93.1617Z" fill="white"/>
<path id="Vector_5" d="M111.976 18.888V21.6976H100.28V6.57129H111.695V9.38085H103.753V12.6653H110.767V15.389H103.753V18.888H111.973H111.976Z" fill="white"/>
<path id="Vector_6" d="M43.0274 17.1785C42.5348 17.7699 41.9166 18.2447 41.2159 18.5604C40.5915 18.8362 39.9122 18.9739 39.2297 18.9709C38.3576 18.9863 37.4945 18.7748 36.7264 18.355C36.6988 18.3398 36.6744 18.3214 36.6468 18.303C35.9613 17.9078 35.3951 17.3318 35.0096 16.6362C34.5903 15.8672 34.3791 15.0063 34.3945 14.13C34.3791 13.2568 34.5903 12.3928 35.0096 11.6238C35.3951 10.9314 35.9583 10.3553 36.6468 9.95705C36.6744 9.94172 36.6988 9.92028 36.7264 9.90495C37.4945 9.48522 38.3544 9.27381 39.2297 9.28912C39.9152 9.283 40.5915 9.42087 41.2189 9.69356L42.6419 7.01575C42.6419 7.01575 42.6205 7.00348 42.6082 6.99736C41.4852 6.52859 40.2763 6.29268 39.0583 6.31106C37.7118 6.29574 36.3836 6.59294 35.1688 7.17506C35.0677 7.22409 34.9607 7.26085 34.8597 7.31601C33.6448 7.95635 32.6287 8.92146 31.9248 10.1041C31.2057 11.3205 30.8354 12.7176 30.8568 14.1331C30.8354 15.5486 31.2057 16.9427 31.9248 18.162C32.6287 19.3416 33.6448 20.3067 34.8597 20.9471C34.9607 21.0023 35.0677 21.039 35.1688 21.088C36.3745 21.667 37.6965 21.9643 39.0339 21.952C40.2549 21.9704 41.4668 21.7345 42.5929 21.2597C42.6082 21.2535 42.6205 21.2443 42.6357 21.2381C43.6579 20.7939 44.5606 20.1138 45.2675 19.2497L43.0244 17.1755L43.0274 17.1785Z" fill="white"/>
<path id="Vector_7" d="M47.22 13.6978L44.1658 13.71C44.2088 14.479 44.0772 15.248 43.7803 15.9589C43.5079 16.587 43.107 17.1507 42.6052 17.6133C42.3573 17.8523 42.091 18.0698 41.8003 18.2506C42.1828 19.2219 42.5194 20.1257 42.7031 21.1613C43.3795 20.7967 44.0251 20.5087 44.5882 19.9755C45.4941 19.1545 46.1244 18.1097 46.6263 16.9944C46.6324 16.9791 46.6355 16.9638 46.6416 16.9515C47.0885 15.9283 47.2874 14.816 47.217 13.7008L47.22 13.6978Z" fill="white"/>
<path id="Vector_8" d="M47.2352 13.3276L47.2199 13.6983L45.7234 16.3915H37.8157L39.4162 13.3276H47.2352Z" fill="white"/>
</g>
<defs>
<clipPath id="clip0_2007_3646">
<rect width="112" height="28" fill="white"/>
</clipPath>
</defs>
</svg>
