<svg width="13" height="12" viewBox="0 0 13 12" fill="none" xmlns="http://www.w3.org/2000/svg">
<path d="M2.95105 11.9997V3.90305H0.164262V11.9997H2.95134H2.95105ZM1.55824 2.79778C2.52984 2.79778 3.13473 2.17605 3.13473 1.39907C3.11655 0.604376 2.52984 0 1.57671 0C0.622931 0 0 0.604377 0 1.399C0 2.17598 0.604671 2.79771 1.53998 2.79771H1.55802L1.55824 2.79778ZM4.49357 11.9997H7.28014V7.47866C7.28014 7.23699 7.29832 6.9947 7.37194 6.82209C7.57331 6.3384 8.03183 5.83772 8.80186 5.83772C9.80998 5.83772 10.2135 6.58014 10.2135 7.66869V11.9997H13V7.35734C13 4.87049 11.6254 3.71323 9.79194 3.71323C8.28877 3.71323 7.62859 4.52457 7.2618 5.07717H7.28035V3.90333H4.49372C4.53009 4.6629 4.4935 12 4.4935 12L4.49357 11.9997Z" fill="white"/>
</svg>
