<svg width="19" height="19" viewBox="0 0 19 19" fill="none" xmlns="http://www.w3.org/2000/svg">
<path d="M7.82129 12.9939V14.75C7.82129 15.5784 8.49286 16.25 9.32129 16.25C10.1497 16.25 10.8213 15.5784 10.8213 14.75V12.9939M9.32129 2.75V3.5M3.32129 9.5H2.57129M4.52136 4.70007L4.07129 4.25M13.8213 4.70007L14.2715 4.25M16.0713 9.5H15.3213M13.0713 9.5C13.0713 11.5711 11.3924 13.25 9.32129 13.25C7.25022 13.25 5.57129 11.5711 5.57129 9.5C5.57129 7.42893 7.25022 5.75 9.32129 5.75C11.3924 5.75 13.0713 7.42893 13.0713 9.5Z" stroke="white" stroke-linecap="round" stroke-linejoin="round"/>
</svg>
