<svg width="12" height="12" viewBox="0 0 12 12" fill="none" xmlns="http://www.w3.org/2000/svg">
<path fill-rule="evenodd" clip-rule="evenodd" d="M3.0514 0.973983C2.83046 0.484406 2.5977 0.47449 2.38672 0.465814C2.21433 0.458377 2.01767 0.458997 1.821 0.458997C1.62434 0.458997 1.30445 0.532743 1.03373 0.82711C0.763005 1.12148 0 1.83229 0 3.27872C0 4.72514 1.058 6.12322 1.2055 6.31905C1.353 6.51489 3.24806 9.57816 6.24904 10.7569C8.74281 11.736 9.25065 11.5414 9.7921 11.4925C10.3335 11.4435 11.539 10.7816 11.7849 10.095C12.0307 9.40835 12.0307 8.82024 11.9573 8.69753C11.8832 8.57483 11.6865 8.5017 11.3915 8.35421C11.0966 8.20672 9.6446 7.4959 9.37388 7.39798C9.10315 7.30007 8.90649 7.25111 8.7092 7.54548C8.51254 7.83922 7.94682 8.5017 7.77443 8.69753C7.60204 8.89399 7.42965 8.91877 7.13465 8.77128C6.83966 8.62379 5.8887 8.31393 4.76038 7.31246C3.88286 6.53348 3.29038 5.57105 3.11799 5.27669C2.9456 4.98294 3.09932 4.82367 3.24744 4.6768C3.38 4.5448 3.54243 4.33348 3.69055 4.16182C3.83805 3.99015 3.88722 3.86745 3.98555 3.67162C4.08388 3.47517 4.03471 3.30351 3.96065 3.15663C3.88784 3.00914 3.31403 1.55528 3.0514 0.973983Z" fill="white"/>
</svg>
