<svg width="360" height="17" viewBox="0 0 360 17" fill="none" xmlns="http://www.w3.org/2000/svg">
<path d="M35.936 13.096C32.832 13.096 30.672 10.792 30.672 7.4C30.672 4.008 32.768 1.704 36.016 1.704C38.496 1.704 40.368 3.144 40.752 5.448H39.264C38.88 3.896 37.68 2.984 35.984 2.984C33.632 2.984 32.096 4.808 32.096 7.4C32.096 9.992 33.632 11.816 35.952 11.816C38.016 11.816 39.504 10.584 39.504 8.6V8.216H36.144V6.936H40.864V13H39.664L39.568 11.368C39.056 12.184 37.856 13.096 35.936 13.096ZM46.3051 4.84H46.6731V6.12H46.0171C44.3051 6.12 43.8411 7.544 43.8411 8.84V13H42.5291V4.84H43.6651L43.8411 6.072C44.2251 5.448 44.8491 4.84 46.3051 4.84ZM50.7816 13.096C48.3976 13.096 46.7336 11.4 46.7336 8.92C46.7336 6.44 48.3976 4.744 50.7816 4.744C53.1656 4.744 54.8296 6.44 54.8296 8.92C54.8296 11.4 53.1656 13.096 50.7816 13.096ZM50.7816 11.928C52.3976 11.928 53.4856 10.664 53.4856 8.92C53.4856 7.176 52.3976 5.912 50.7816 5.912C49.1656 5.912 48.0776 7.176 48.0776 8.92C48.0776 10.664 49.1656 11.928 50.7816 11.928ZM61.7261 8.92V4.84H63.0381V13H61.9021L61.7261 11.912C61.2461 12.52 60.4621 13.096 59.1181 13.096C57.3261 13.096 55.9021 12.088 55.9021 9.384V4.84H57.2141V9.304C57.2141 11 57.9821 11.896 59.3421 11.896C60.8301 11.896 61.7261 10.76 61.7261 8.92ZM68.6186 4.744C70.8746 4.744 72.5386 6.264 72.5386 8.92C72.5386 11.416 70.8746 13.096 68.6186 13.096C67.2426 13.096 66.3146 12.536 65.8186 11.752V16.2H64.5066V4.84H65.6426L65.8186 6.152C66.3626 5.4 67.2426 4.744 68.6186 4.744ZM68.4906 11.928C70.1066 11.928 71.1946 10.696 71.1946 8.92C71.1946 7.144 70.1066 5.912 68.4906 5.912C66.8906 5.912 65.8026 7.144 65.8026 8.888C65.8026 10.68 66.8906 11.928 68.4906 11.928ZM77.7774 13V1.8H82.0814C84.3214 1.8 85.7934 3.144 85.7934 5.24C85.7934 7.336 84.3214 8.696 82.0814 8.696H79.1694V13H77.7774ZM81.9694 3.08H79.1694V7.416H81.9534C83.4254 7.416 84.3694 6.568 84.3694 5.24C84.3694 3.912 83.4414 3.08 81.9694 3.08ZM90.5414 4.84H90.9094V6.12H90.2534C88.5414 6.12 88.0774 7.544 88.0774 8.84V13H86.7654V4.84H87.9014L88.0774 6.072C88.4614 5.448 89.0854 4.84 90.5414 4.84ZM95.0179 13.096C92.6339 13.096 90.9699 11.4 90.9699 8.92C90.9699 6.44 92.6339 4.744 95.0179 4.744C97.4019 4.744 99.0659 6.44 99.0659 8.92C99.0659 11.4 97.4019 13.096 95.0179 13.096ZM95.0179 11.928C96.6339 11.928 97.7219 10.664 97.7219 8.92C97.7219 7.176 96.6339 5.912 95.0179 5.912C93.4019 5.912 92.3139 7.176 92.3139 8.92C92.3139 10.664 93.4019 11.928 95.0179 11.928ZM106.682 6.088V1.8H107.994V13H106.858L106.682 11.688C106.138 12.44 105.258 13.096 103.882 13.096C101.626 13.096 99.9624 11.576 99.9624 8.92C99.9624 6.424 101.626 4.744 103.882 4.744C105.258 4.744 106.186 5.304 106.682 6.088ZM104.01 11.928C105.61 11.928 106.698 10.696 106.698 8.952C106.698 7.16 105.61 5.912 104.01 5.912C102.394 5.912 101.306 7.144 101.306 8.92C101.306 10.696 102.394 11.928 104.01 11.928ZM115.174 8.92V4.84H116.486V13H115.35L115.174 11.912C114.694 12.52 113.91 13.096 112.566 13.096C110.774 13.096 109.35 12.088 109.35 9.384V4.84H110.662V9.304C110.662 11 111.43 11.896 112.79 11.896C114.278 11.896 115.174 10.76 115.174 8.92ZM121.618 13.096C119.234 13.096 117.666 11.48 117.666 8.936C117.666 6.44 119.282 4.744 121.65 4.744C123.65 4.744 124.914 5.864 125.25 7.656H123.874C123.634 6.568 122.834 5.912 121.634 5.912C120.066 5.912 119.01 7.16 119.01 8.936C119.01 10.712 120.066 11.928 121.634 11.928C122.802 11.928 123.602 11.256 123.858 10.216H125.25C124.93 11.976 123.602 13.096 121.618 13.096ZM126.977 10.872V6.04H125.505V4.84H126.977V2.552H128.289V4.84H130.401V6.04H128.289V10.856C128.289 11.544 128.529 11.8 129.233 11.8H130.529V13H129.105C127.537 13 126.977 12.312 126.977 10.872ZM135.405 13V1.8H137.165L141.133 11.096L145.053 1.8H146.781V13H145.421V4.168L141.709 13H140.477L136.765 4.168V13H135.405ZM155.656 11.8H156.072V13H155.352C154.264 13 153.896 12.536 153.88 11.736C153.368 12.472 152.552 13.096 151.144 13.096C149.352 13.096 148.136 12.2 148.136 10.712C148.136 9.08 149.272 8.168 151.416 8.168H153.816V7.608C153.816 6.552 153.064 5.912 151.784 5.912C150.632 5.912 149.864 6.456 149.704 7.288H148.392C148.584 5.688 149.88 4.744 151.848 4.744C153.928 4.744 155.128 5.784 155.128 7.688V11.256C155.128 11.688 155.288 11.8 155.656 11.8ZM153.816 9.672V9.272H151.288C150.12 9.272 149.464 9.704 149.464 10.632C149.464 11.432 150.152 11.976 151.24 11.976C152.872 11.976 153.816 11.032 153.816 9.672ZM160.76 4.744C162.6 4.744 164.056 5.752 164.056 8.456V13H162.744V8.536C162.744 6.84 161.96 5.944 160.536 5.944C159 5.944 158.072 7.08 158.072 8.92V13H156.76V4.84H157.896L158.072 5.944C158.552 5.32 159.384 4.744 160.76 4.744ZM172.625 11.8H173.041V13H172.321C171.233 13 170.865 12.536 170.849 11.736C170.337 12.472 169.521 13.096 168.113 13.096C166.321 13.096 165.105 12.2 165.105 10.712C165.105 9.08 166.241 8.168 168.385 8.168H170.785V7.608C170.785 6.552 170.033 5.912 168.753 5.912C167.601 5.912 166.833 6.456 166.673 7.288H165.361C165.553 5.688 166.849 4.744 168.817 4.744C170.897 4.744 172.097 5.784 172.097 7.688V11.256C172.097 11.688 172.257 11.8 172.625 11.8ZM170.785 9.672V9.272H168.257C167.089 9.272 166.433 9.704 166.433 10.632C166.433 11.432 167.121 11.976 168.209 11.976C169.841 11.976 170.785 11.032 170.785 9.672ZM180.162 6.248L180.338 4.84H181.474V12.6C181.474 14.952 180.226 16.296 177.426 16.296C175.346 16.296 173.89 15.32 173.682 13.528H175.026C175.25 14.552 176.162 15.128 177.522 15.128C179.234 15.128 180.162 14.328 180.162 12.552V11.592C179.618 12.52 178.738 13.096 177.362 13.096C175.106 13.096 173.442 11.576 173.442 8.92C173.442 6.424 175.106 4.744 177.362 4.744C178.738 4.744 179.65 5.336 180.162 6.248ZM177.49 11.928C179.09 11.928 180.178 10.696 180.178 8.952C180.178 7.16 179.09 5.912 177.49 5.912C175.874 5.912 174.786 7.144 174.786 8.92C174.786 10.696 175.874 11.928 177.49 11.928ZM186.701 13.096C184.253 13.096 182.653 11.416 182.653 8.92C182.653 6.44 184.221 4.744 186.525 4.744C188.829 4.744 190.333 6.2 190.397 8.616C190.397 8.792 190.381 8.984 190.365 9.176H184.029V9.288C184.077 10.84 185.053 11.928 186.605 11.928C187.757 11.928 188.653 11.32 188.925 10.264H190.253C189.933 11.896 188.589 13.096 186.701 13.096ZM184.109 8.088H188.989C188.861 6.68 187.901 5.896 186.541 5.896C185.341 5.896 184.237 6.76 184.109 8.088ZM195.35 4.84H195.718V6.12H195.062C193.35 6.12 192.886 7.544 192.886 8.84V13H191.574V4.84H192.71L192.886 6.072C193.27 5.448 193.894 4.84 195.35 4.84Z" fill="#F6F6F7"/>
<path fill-rule="evenodd" clip-rule="evenodd" d="M7 14C10.866 14 14 10.866 14 7C14 3.13401 10.866 0 7 0C3.13401 0 0 3.13401 0 7C0 10.866 3.13401 14 7 14ZM7 13.0175C10.3234 13.0175 13.0175 10.3234 13.0175 6.99997C13.0175 3.67657 10.3234 0.982428 7 0.982428C3.6766 0.982428 0.98245 3.67657 0.98245 6.99997C0.98245 10.3234 3.6766 13.0175 7 13.0175Z" fill="#F1C58E"/>
<path d="M312.264 13V12.148L315.528 9.316C316.308 8.644 316.956 7.996 316.956 7.084C316.956 6.028 316.236 5.428 315.12 5.428C314.04 5.428 313.32 6.148 313.32 7.3V7.456H312.312V7.24C312.312 5.656 313.428 4.528 315.12 4.528C316.932 4.528 317.988 5.524 317.988 7.036C317.988 8.296 317.172 9.088 316.176 9.94L313.656 12.076H318.048V13H312.264ZM328.342 6.808C329.614 6.808 330.658 7.54 330.658 9.472V13H329.675V9.532C329.675 8.332 329.147 7.708 328.222 7.708C327.203 7.708 326.578 8.476 326.578 9.724V13H325.595V9.532C325.595 8.332 325.054 7.708 324.118 7.708C323.11 7.708 322.498 8.548 322.498 9.772V13H321.514V6.88H322.366L322.498 7.72C322.822 7.276 323.338 6.808 324.286 6.808C325.138 6.808 325.871 7.192 326.218 7.972C326.591 7.312 327.251 6.808 328.342 6.808ZM334.31 13.072C332.522 13.072 331.274 11.8 331.274 9.94C331.274 8.08 332.522 6.808 334.31 6.808C336.098 6.808 337.346 8.08 337.346 9.94C337.346 11.8 336.098 13.072 334.31 13.072ZM334.31 12.196C335.522 12.196 336.338 11.248 336.338 9.94C336.338 8.632 335.522 7.684 334.31 7.684C333.098 7.684 332.282 8.632 332.282 9.94C332.282 11.248 333.098 12.196 334.31 12.196ZM341.115 6.808C342.495 6.808 343.587 7.564 343.587 9.592V13H342.603V9.652C342.603 8.38 342.015 7.708 340.947 7.708C339.795 7.708 339.099 8.56 339.099 9.94V13H338.115V6.88H338.967L339.099 7.708C339.459 7.24 340.083 6.808 341.115 6.808ZM344.937 11.404V7.78H343.833V6.88H344.937V5.164H345.921V6.88H347.505V7.78H345.921V11.392C345.921 11.908 346.101 12.1 346.629 12.1H347.601V13H346.533C345.357 13 344.937 12.484 344.937 11.404ZM351.094 6.808C352.462 6.808 353.578 7.564 353.578 9.592V13H352.594V9.652C352.594 8.38 351.982 7.708 350.926 7.708C349.786 7.708 349.078 8.56 349.078 9.94V13H348.094V4.6H349.078V7.888C349.438 7.312 350.062 6.808 351.094 6.808ZM354.22 10.984H355.228C355.264 11.704 355.9 12.232 356.92 12.232C357.784 12.232 358.396 11.86 358.396 11.296C358.396 10.528 357.724 10.468 356.812 10.36C355.444 10.192 354.352 9.916 354.352 8.644C354.352 7.528 355.372 6.796 356.752 6.808C358.144 6.82 359.152 7.468 359.248 8.74H358.24C358.168 8.116 357.592 7.648 356.752 7.648C355.9 7.648 355.324 8.008 355.324 8.572C355.324 9.244 355.972 9.328 356.86 9.436C358.252 9.604 359.368 9.868 359.368 11.224C359.368 12.364 358.276 13.072 356.92 13.072C355.336 13.072 354.244 12.328 354.22 10.984Z" fill="url(#paint0_angular_716_1783)"/>
<path d="M262.816 13V4.6H264.136L267.112 11.572L270.052 4.6H271.348V13H270.328V6.376L267.544 13H266.62L263.836 6.376V13H262.816ZM277.884 12.1H278.196V13H277.656C276.84 13 276.564 12.652 276.552 12.052C276.168 12.604 275.556 13.072 274.5 13.072C273.156 13.072 272.244 12.4 272.244 11.284C272.244 10.06 273.096 9.376 274.704 9.376H276.504V8.956C276.504 8.164 275.94 7.684 274.98 7.684C274.116 7.684 273.54 8.092 273.42 8.716H272.436C272.58 7.516 273.552 6.808 275.028 6.808C276.588 6.808 277.488 7.588 277.488 9.016V11.692C277.488 12.016 277.608 12.1 277.884 12.1ZM276.504 10.504V10.204H274.608C273.732 10.204 273.24 10.528 273.24 11.224C273.24 11.824 273.756 12.232 274.572 12.232C275.796 12.232 276.504 11.524 276.504 10.504ZM277.945 13L280.273 9.856L278.101 6.88H279.277L280.897 9.148L282.541 6.88H283.657L281.473 9.856L283.813 13H282.637L280.849 10.54L279.061 13H277.945ZM284.655 5.848C284.295 5.848 284.019 5.584 284.019 5.212C284.019 4.84 284.295 4.576 284.655 4.576C285.015 4.576 285.291 4.84 285.291 5.212C285.291 5.584 285.015 5.848 284.655 5.848ZM284.151 13V6.88H285.135V13H284.151ZM288.943 13.072C287.155 13.072 285.907 11.8 285.907 9.94C285.907 8.08 287.155 6.808 288.943 6.808C290.731 6.808 291.979 8.08 291.979 9.94C291.979 11.8 290.731 13.072 288.943 13.072ZM288.943 12.196C290.155 12.196 290.971 11.248 290.971 9.94C290.971 8.632 290.155 7.684 288.943 7.684C287.731 7.684 286.915 8.632 286.915 9.94C286.915 11.248 287.731 12.196 288.943 12.196ZM295.747 6.808C297.127 6.808 298.219 7.564 298.219 9.592V13H297.235V9.652C297.235 8.38 296.647 7.708 295.579 7.708C294.427 7.708 293.731 8.56 293.731 9.94V13H292.747V6.88H293.599L293.731 7.708C294.091 7.24 294.715 6.808 295.747 6.808ZM305.842 10H301.846V9.172H305.842V10Z" fill="white"/>
<defs>
<radialGradient id="paint0_angular_716_1783" cx="0" cy="0" r="1" gradientUnits="userSpaceOnUse" gradientTransform="translate(336 9) rotate(90) scale(4 24)">
<stop stop-color="#F1C78E"/>
<stop offset="1" stop-color="#EA8F82"/>
</radialGradient>
</defs>
</svg>
