<svg width="361" height="16" viewBox="0 0 361 16" fill="none" xmlns="http://www.w3.org/2000/svg">
<path fill-rule="evenodd" clip-rule="evenodd" d="M7 14C10.866 14 14 10.866 14 7C14 3.13401 10.866 0 7 0C3.13401 0 0 3.13401 0 7C0 10.866 3.13401 14 7 14ZM7 13.0175C10.3234 13.0175 13.0175 10.3234 13.0175 6.99997C13.0175 3.67657 10.3234 0.982428 7 0.982428C3.6766 0.982428 0.98245 3.67657 0.98245 6.99997C0.98245 10.3234 3.6766 13.0175 7 13.0175Z" fill="#EA8F82"/>
<path d="M34.672 12H31.088V0.799999H34.672C38.176 0.799999 40.304 3.04 40.304 6.4C40.304 9.744 38.176 12 34.672 12ZM32.48 2.08V10.72H34.672C37.392 10.72 38.88 9.008 38.88 6.4C38.88 3.776 37.392 2.08 34.672 2.08H32.48ZM42.2168 2.464C41.7368 2.464 41.3688 2.112 41.3688 1.616C41.3688 1.12 41.7368 0.768 42.2168 0.768C42.6968 0.768 43.0648 1.12 43.0648 1.616C43.0648 2.112 42.6968 2.464 42.2168 2.464ZM41.5448 12V3.84H42.8568V12H41.5448ZM48.1101 3.84H48.4781V5.12H47.8221C46.1101 5.12 45.6461 6.544 45.6461 7.84V12H44.3341V3.84H45.4701L45.6461 5.072C46.0301 4.448 46.6541 3.84 48.1101 3.84ZM52.5866 12.096C50.1386 12.096 48.5386 10.416 48.5386 7.92C48.5386 5.44 50.1066 3.744 52.4106 3.744C54.7146 3.744 56.2186 5.2 56.2826 7.616C56.2826 7.792 56.2666 7.984 56.2506 8.176H49.9146V8.288C49.9626 9.84 50.9386 10.928 52.4906 10.928C53.6426 10.928 54.5386 10.32 54.8106 9.264H56.1386C55.8186 10.896 54.4746 12.096 52.5866 12.096ZM49.9946 7.088H54.8746C54.7466 5.68 53.7866 4.896 52.4266 4.896C51.2266 4.896 50.1226 5.76 49.9946 7.088ZM61.1237 12.096C58.7397 12.096 57.1717 10.48 57.1717 7.936C57.1717 5.44 58.7877 3.744 61.1557 3.744C63.1557 3.744 64.4197 4.864 64.7557 6.656H63.3797C63.1397 5.568 62.3397 4.912 61.1397 4.912C59.5717 4.912 58.5157 6.16 58.5157 7.936C58.5157 9.712 59.5717 10.928 61.1397 10.928C62.3077 10.928 63.1077 10.256 63.3637 9.216H64.7557C64.4357 10.976 63.1077 12.096 61.1237 12.096ZM66.4821 9.872V5.04H65.0101V3.84H66.4821V1.552H67.7941V3.84H69.9061V5.04H67.7941V9.856C67.7941 10.544 68.0341 10.8 68.7381 10.8H70.0341V12H68.6101C67.0421 12 66.4821 11.312 66.4821 9.872ZM74.4079 12.096C72.0239 12.096 70.3599 10.4 70.3599 7.92C70.3599 5.44 72.0239 3.744 74.4079 3.744C76.7919 3.744 78.4559 5.44 78.4559 7.92C78.4559 10.4 76.7919 12.096 74.4079 12.096ZM74.4079 10.928C76.0239 10.928 77.1119 9.664 77.1119 7.92C77.1119 6.176 76.0239 4.912 74.4079 4.912C72.7919 4.912 71.7039 6.176 71.7039 7.92C71.7039 9.664 72.7919 10.928 74.4079 10.928ZM83.4164 3.84H83.7844V5.12H83.1284C81.4164 5.12 80.9524 6.544 80.9524 7.84V12H79.6404V3.84H80.7764L80.9524 5.072C81.3364 4.448 81.9604 3.84 83.4164 3.84ZM92.2291 12.096C89.8451 12.096 88.1811 10.4 88.1811 7.92C88.1811 5.44 89.8451 3.744 92.2291 3.744C94.6131 3.744 96.2771 5.44 96.2771 7.92C96.2771 10.4 94.6131 12.096 92.2291 12.096ZM92.2291 10.928C93.8451 10.928 94.9331 9.664 94.9331 7.92C94.9331 6.176 93.8451 4.912 92.2291 4.912C90.6131 4.912 89.5251 6.176 89.5251 7.92C89.5251 9.664 90.6131 10.928 92.2291 10.928ZM96.5039 5.04V3.84H97.9759V2.928C97.9759 1.488 98.5839 0.799999 100.104 0.799999H101.592V2H100.184C99.5279 2 99.2879 2.272 99.2879 2.896V3.84H101.592V5.04H99.2879V12H97.9759V5.04H96.5039ZM105.831 8.336H107.271C107.383 9.84 108.551 10.832 110.263 10.832C111.767 10.832 112.839 10.144 112.839 8.928C112.839 7.536 111.463 7.248 109.767 6.96C107.959 6.656 106.103 6.064 106.103 3.888C106.103 1.984 107.655 0.704 109.927 0.704C112.423 0.704 113.959 2.096 114.087 4.112H112.647C112.487 2.816 111.447 1.968 109.927 1.968C108.471 1.968 107.495 2.608 107.495 3.808C107.495 5.152 108.855 5.424 110.535 5.712C112.359 6.016 114.231 6.624 114.231 8.8C114.231 10.736 112.599 12.096 110.247 12.096C107.511 12.096 105.911 10.544 105.831 8.336ZM119.246 12.096C116.862 12.096 115.198 10.4 115.198 7.92C115.198 5.44 116.862 3.744 119.246 3.744C121.63 3.744 123.294 5.44 123.294 7.92C123.294 10.4 121.63 12.096 119.246 12.096ZM119.246 10.928C120.862 10.928 121.95 9.664 121.95 7.92C121.95 6.176 120.862 4.912 119.246 4.912C117.63 4.912 116.542 6.176 116.542 7.92C116.542 9.664 117.63 10.928 119.246 10.928ZM123.521 5.04V3.84H124.993V2.928C124.993 1.488 125.601 0.799999 127.121 0.799999H128.609V2H127.201C126.545 2 126.305 2.272 126.305 2.896V3.84H128.609V5.04H126.305V12H124.993V5.04H123.521ZM130.329 9.872V5.04H128.857V3.84H130.329V1.552H131.641V3.84H133.753V5.04H131.641V9.856C131.641 10.544 131.881 10.8 132.585 10.8H133.881V12H132.457C130.889 12 130.329 11.312 130.329 9.872ZM136.57 12L133.93 3.84H135.306L137.338 10.48L139.482 3.84H140.698L142.73 10.48L144.858 3.84H146.186L143.466 12H142.026L140.058 5.936L138.01 12H136.57ZM153.813 10.8H154.229V12H153.509C152.421 12 152.053 11.536 152.037 10.736C151.525 11.472 150.709 12.096 149.301 12.096C147.509 12.096 146.293 11.2 146.293 9.712C146.293 8.08 147.429 7.168 149.573 7.168H151.973V6.608C151.973 5.552 151.221 4.912 149.941 4.912C148.789 4.912 148.021 5.456 147.861 6.288H146.549C146.741 4.688 148.037 3.744 150.005 3.744C152.085 3.744 153.285 4.784 153.285 6.688V10.256C153.285 10.688 153.445 10.8 153.813 10.8ZM151.973 8.672V8.272H149.445C148.277 8.272 147.621 8.704 147.621 9.632C147.621 10.432 148.309 10.976 149.397 10.976C151.029 10.976 151.973 10.032 151.973 8.672ZM158.693 3.84H159.061V5.12H158.405C156.693 5.12 156.229 6.544 156.229 7.84V12H154.917V3.84H156.053L156.229 5.072C156.613 4.448 157.237 3.84 158.693 3.84ZM163.17 12.096C160.722 12.096 159.122 10.416 159.122 7.92C159.122 5.44 160.69 3.744 162.994 3.744C165.298 3.744 166.802 5.2 166.866 7.616C166.866 7.792 166.85 7.984 166.834 8.176H160.498V8.288C160.546 9.84 161.522 10.928 163.074 10.928C164.226 10.928 165.122 10.32 165.394 9.264H166.722C166.402 10.896 165.058 12.096 163.17 12.096ZM160.578 7.088H165.458C165.33 5.68 164.37 4.896 163.01 4.896C161.81 4.896 160.706 5.76 160.578 7.088ZM175.67 12.096C173.222 12.096 171.622 10.416 171.622 7.92C171.622 5.44 173.19 3.744 175.494 3.744C177.798 3.744 179.302 5.2 179.366 7.616C179.366 7.792 179.35 7.984 179.334 8.176H172.998V8.288C173.046 9.84 174.022 10.928 175.574 10.928C176.726 10.928 177.622 10.32 177.894 9.264H179.222C178.902 10.896 177.558 12.096 175.67 12.096ZM173.078 7.088H177.958C177.83 5.68 176.87 4.896 175.51 4.896C174.31 4.896 173.206 5.76 173.078 7.088ZM184.544 3.744C186.384 3.744 187.84 4.752 187.84 7.456V12H186.528V7.536C186.528 5.84 185.744 4.944 184.32 4.944C182.784 4.944 181.856 6.08 181.856 7.92V12H180.544V3.84H181.68L181.856 4.944C182.336 4.32 183.168 3.744 184.544 3.744ZM195.624 5.248L195.8 3.84H196.936V11.6C196.936 13.952 195.688 15.296 192.888 15.296C190.808 15.296 189.352 14.32 189.144 12.528H190.488C190.712 13.552 191.624 14.128 192.984 14.128C194.696 14.128 195.624 13.328 195.624 11.552V10.592C195.08 11.52 194.2 12.096 192.824 12.096C190.568 12.096 188.904 10.576 188.904 7.92C188.904 5.424 190.568 3.744 192.824 3.744C194.2 3.744 195.112 4.336 195.624 5.248ZM192.952 10.928C194.552 10.928 195.64 9.696 195.64 7.952C195.64 6.16 194.552 4.912 192.952 4.912C191.336 4.912 190.248 6.144 190.248 7.92C190.248 9.696 191.336 10.928 192.952 10.928ZM199.076 2.464C198.596 2.464 198.228 2.112 198.228 1.616C198.228 1.12 198.596 0.768 199.076 0.768C199.556 0.768 199.924 1.12 199.924 1.616C199.924 2.112 199.556 2.464 199.076 2.464ZM198.404 12V3.84H199.716V12H198.404ZM205.193 3.744C207.033 3.744 208.489 4.752 208.489 7.456V12H207.177V7.536C207.177 5.84 206.393 4.944 204.969 4.944C203.433 4.944 202.505 6.08 202.505 7.92V12H201.193V3.84H202.329L202.505 4.944C202.985 4.32 203.817 3.744 205.193 3.744ZM213.508 12.096C211.06 12.096 209.46 10.416 209.46 7.92C209.46 5.44 211.028 3.744 213.332 3.744C215.636 3.744 217.14 5.2 217.204 7.616C217.204 7.792 217.188 7.984 217.172 8.176H210.836V8.288C210.884 9.84 211.86 10.928 213.412 10.928C214.564 10.928 215.46 10.32 215.732 9.264H217.06C216.74 10.896 215.396 12.096 213.508 12.096ZM210.916 7.088H215.796C215.668 5.68 214.708 4.896 213.348 4.896C212.148 4.896 211.044 5.76 210.916 7.088ZM222.141 12.096C219.693 12.096 218.093 10.416 218.093 7.92C218.093 5.44 219.661 3.744 221.965 3.744C224.269 3.744 225.773 5.2 225.837 7.616C225.837 7.792 225.821 7.984 225.805 8.176H219.469V8.288C219.517 9.84 220.493 10.928 222.045 10.928C223.197 10.928 224.093 10.32 224.365 9.264H225.693C225.373 10.896 224.029 12.096 222.141 12.096ZM219.549 7.088H224.429C224.301 5.68 223.341 4.896 221.981 4.896C220.781 4.896 219.677 5.76 219.549 7.088ZM230.79 3.84H231.158V5.12H230.502C228.79 5.12 228.326 6.544 228.326 7.84V12H227.014V3.84H228.15L228.326 5.072C228.71 4.448 229.334 3.84 230.79 3.84Z" fill="#F6F6F7"/>
<path d="M315.396 10.072C313.872 10.072 312.828 9.16 312.624 7.756H313.632C313.824 8.608 314.424 9.184 315.444 9.184C316.908 9.184 317.712 7.852 317.712 5.956C317.712 5.836 317.712 5.752 317.7 5.548C317.688 5.596 317.676 5.668 317.628 5.776C317.256 6.604 316.416 7.156 315.288 7.156C313.632 7.156 312.468 6.064 312.468 4.348C312.468 2.728 313.656 1.528 315.384 1.528C316.548 1.528 317.4 2.056 317.928 2.92C318.348 3.652 318.588 4.66 318.588 5.764C318.588 8.404 317.4 10.072 315.396 10.072ZM315.36 6.268C316.524 6.268 317.316 5.476 317.316 4.324C317.316 3.196 316.548 2.416 315.396 2.416C314.232 2.416 313.476 3.22 313.476 4.348C313.476 5.464 314.196 6.268 315.36 6.268ZM329.022 3.808C330.294 3.808 331.338 4.54 331.338 6.472V10H330.354V6.532C330.354 5.332 329.826 4.708 328.902 4.708C327.882 4.708 327.258 5.476 327.258 6.724V10H326.274V6.532C326.274 5.332 325.734 4.708 324.798 4.708C323.79 4.708 323.178 5.548 323.178 6.772V10H322.194V3.88H323.046L323.178 4.72C323.502 4.276 324.018 3.808 324.966 3.808C325.818 3.808 326.55 4.192 326.898 4.972C327.27 4.312 327.93 3.808 329.022 3.808ZM334.99 10.072C333.202 10.072 331.954 8.8 331.954 6.94C331.954 5.08 333.202 3.808 334.99 3.808C336.778 3.808 338.026 5.08 338.026 6.94C338.026 8.8 336.778 10.072 334.99 10.072ZM334.99 9.196C336.202 9.196 337.018 8.248 337.018 6.94C337.018 5.632 336.202 4.684 334.99 4.684C333.778 4.684 332.962 5.632 332.962 6.94C332.962 8.248 333.778 9.196 334.99 9.196ZM341.794 3.808C343.174 3.808 344.266 4.564 344.266 6.592V10H343.282V6.652C343.282 5.38 342.694 4.708 341.626 4.708C340.474 4.708 339.778 5.56 339.778 6.94V10H338.794V3.88H339.646L339.778 4.708C340.138 4.24 340.762 3.808 341.794 3.808ZM345.617 8.404V4.78H344.513V3.88H345.617V2.164H346.601V3.88H348.185V4.78H346.601V8.392C346.601 8.908 346.781 9.1 347.309 9.1H348.281V10H347.213C346.037 10 345.617 9.484 345.617 8.404ZM351.774 3.808C353.142 3.808 354.258 4.564 354.258 6.592V10H353.274V6.652C353.274 5.38 352.662 4.708 351.606 4.708C350.466 4.708 349.758 5.56 349.758 6.94V10H348.774V1.6H349.758V4.888C350.118 4.312 350.742 3.808 351.774 3.808ZM354.9 7.984H355.908C355.944 8.704 356.58 9.232 357.6 9.232C358.464 9.232 359.076 8.86 359.076 8.296C359.076 7.528 358.404 7.468 357.492 7.36C356.124 7.192 355.032 6.916 355.032 5.644C355.032 4.528 356.052 3.796 357.432 3.808C358.824 3.82 359.832 4.468 359.928 5.74H358.92C358.848 5.116 358.272 4.648 357.432 4.648C356.58 4.648 356.004 5.008 356.004 5.572C356.004 6.244 356.652 6.328 357.54 6.436C358.932 6.604 360.048 6.868 360.048 8.224C360.048 9.364 358.956 10.072 357.6 10.072C356.016 10.072 354.924 9.328 354.9 7.984Z" fill="url(#paint0_angular_716_2898)"/>
<path d="M268.428 10.072C266.016 10.072 264.504 8.368 264.504 5.8C264.504 3.256 266.076 1.528 268.512 1.528C270.372 1.528 271.728 2.608 272.04 4.348H270.936C270.612 3.184 269.724 2.488 268.464 2.488C266.7 2.488 265.572 3.856 265.572 5.8C265.572 7.732 266.652 9.112 268.416 9.112C269.712 9.112 270.612 8.428 270.924 7.252H272.028C271.716 8.992 270.324 10.072 268.428 10.072ZM277.069 6.94V3.88H278.053V10H277.201L277.069 9.184C276.709 9.64 276.121 10.072 275.113 10.072C273.769 10.072 272.701 9.316 272.701 7.288V3.88H273.685V7.228C273.685 8.5 274.261 9.172 275.281 9.172C276.397 9.172 277.069 8.32 277.069 6.94ZM282.118 3.808C283.81 3.808 285.058 4.948 285.058 6.94C285.058 8.812 283.81 10.072 282.118 10.072C281.086 10.072 280.39 9.652 280.018 9.064L279.886 10H279.034V1.6H280.018V4.864C280.426 4.3 281.086 3.808 282.118 3.808ZM282.022 9.196C283.234 9.196 284.05 8.272 284.05 6.94C284.05 5.608 283.234 4.684 282.022 4.684C280.822 4.684 280.006 5.608 280.006 6.916C280.006 8.26 280.822 9.196 282.022 9.196ZM288.642 10.072C286.806 10.072 285.606 8.812 285.606 6.94C285.606 5.08 286.782 3.808 288.51 3.808C290.238 3.808 291.366 4.9 291.414 6.712C291.414 6.844 291.402 6.988 291.39 7.132H286.638V7.216C286.674 8.38 287.406 9.196 288.57 9.196C289.434 9.196 290.106 8.74 290.31 7.948H291.306C291.066 9.172 290.058 10.072 288.642 10.072ZM286.698 6.316H290.358C290.262 5.26 289.542 4.672 288.522 4.672C287.622 4.672 286.794 5.32 286.698 6.316ZM291.902 7.984H292.91C292.946 8.704 293.582 9.232 294.602 9.232C295.466 9.232 296.078 8.86 296.078 8.296C296.078 7.528 295.406 7.468 294.494 7.36C293.126 7.192 292.034 6.916 292.034 5.644C292.034 4.528 293.054 3.796 294.434 3.808C295.826 3.82 296.834 4.468 296.93 5.74H295.922C295.85 5.116 295.274 4.648 294.434 4.648C293.582 4.648 293.006 5.008 293.006 5.572C293.006 6.244 293.654 6.328 294.542 6.436C295.934 6.604 297.05 6.868 297.05 8.224C297.05 9.364 295.958 10.072 294.602 10.072C293.018 10.072 291.926 9.328 291.902 7.984ZM304.511 7H300.515V6.172H304.511V7Z" fill="white"/>
<defs>
<radialGradient id="paint0_angular_716_2898" cx="0" cy="0" r="1" gradientUnits="userSpaceOnUse" gradientTransform="translate(336.5 6) rotate(90) scale(4 24.5)">
<stop stop-color="#F1C78E"/>
<stop offset="1" stop-color="#EA8F82"/>
</radialGradient>
</defs>
</svg>
