<svg width="98" height="10" viewBox="0 0 98 10" fill="none" xmlns="http://www.w3.org/2000/svg">
<path d="M50.264 9V8.148L53.528 5.316C54.308 4.644 54.956 3.996 54.956 3.084C54.956 2.028 54.236 1.428 53.12 1.428C52.04 1.428 51.32 2.148 51.32 3.3V3.456H50.312V3.24C50.312 1.656 51.428 0.528 53.12 0.528C54.932 0.528 55.988 1.524 55.988 3.036C55.988 4.296 55.172 5.088 54.176 5.94L51.656 8.076H56.048V9H50.264ZM66.3425 2.808C67.6145 2.808 68.6585 3.54 68.6585 5.472V9H67.6745V5.532C67.6745 4.332 67.1465 3.708 66.2225 3.708C65.2025 3.708 64.5785 4.476 64.5785 5.724V9H63.5945V5.532C63.5945 4.332 63.0545 3.708 62.1185 3.708C61.1105 3.708 60.4985 4.548 60.4985 5.772V9H59.5145V2.88H60.3665L60.4985 3.72C60.8225 3.276 61.3385 2.808 62.2865 2.808C63.1385 2.808 63.8705 3.192 64.2185 3.972C64.5905 3.312 65.2505 2.808 66.3425 2.808ZM72.3104 9.072C70.5224 9.072 69.2744 7.8 69.2744 5.94C69.2744 4.08 70.5224 2.808 72.3104 2.808C74.0984 2.808 75.3464 4.08 75.3464 5.94C75.3464 7.8 74.0984 9.072 72.3104 9.072ZM72.3104 8.196C73.5224 8.196 74.3384 7.248 74.3384 5.94C74.3384 4.632 73.5224 3.684 72.3104 3.684C71.0984 3.684 70.2824 4.632 70.2824 5.94C70.2824 7.248 71.0984 8.196 72.3104 8.196ZM79.1148 2.808C80.4948 2.808 81.5868 3.564 81.5868 5.592V9H80.6028V5.652C80.6028 4.38 80.0148 3.708 78.9468 3.708C77.7948 3.708 77.0988 4.56 77.0988 5.94V9H76.1148V2.88H76.9668L77.0988 3.708C77.4588 3.24 78.0828 2.808 79.1148 2.808ZM82.9374 7.404V3.78H81.8334V2.88H82.9374V1.164H83.9214V2.88H85.5054V3.78H83.9214V7.392C83.9214 7.908 84.1014 8.1 84.6294 8.1H85.6014V9H84.5334C83.3574 9 82.9374 8.484 82.9374 7.404ZM89.094 2.808C90.462 2.808 91.578 3.564 91.578 5.592V9H90.594V5.652C90.594 4.38 89.982 3.708 88.926 3.708C87.786 3.708 87.078 4.56 87.078 5.94V9H86.094V0.599999H87.078V3.888C87.438 3.312 88.062 2.808 89.094 2.808ZM92.2203 6.984H93.2283C93.2643 7.704 93.9003 8.232 94.9203 8.232C95.7843 8.232 96.3963 7.86 96.3963 7.296C96.3963 6.528 95.7243 6.468 94.8123 6.36C93.4443 6.192 92.3523 5.916 92.3523 4.644C92.3523 3.528 93.3723 2.796 94.7523 2.808C96.1443 2.82 97.1523 3.468 97.2483 4.74H96.2403C96.1683 4.116 95.5923 3.648 94.7523 3.648C93.9003 3.648 93.3243 4.008 93.3243 4.572C93.3243 5.244 93.9723 5.328 94.8603 5.436C96.2523 5.604 97.3683 5.868 97.3683 7.224C97.3683 8.364 96.2763 9.072 94.9203 9.072C93.3363 9.072 92.2443 8.328 92.2203 6.984Z" fill="url(#paint0_angular_716_1782)"/>
<path d="M0.816 9V0.599999H2.136L5.112 7.572L8.052 0.599999H9.348V9H8.328V2.376L5.544 9H4.62L1.836 2.376V9H0.816ZM15.8842 8.1H16.1962V9H15.6562C14.8402 9 14.5642 8.652 14.5522 8.052C14.1682 8.604 13.5562 9.072 12.5002 9.072C11.1562 9.072 10.2442 8.4 10.2442 7.284C10.2442 6.06 11.0962 5.376 12.7042 5.376H14.5042V4.956C14.5042 4.164 13.9402 3.684 12.9802 3.684C12.1162 3.684 11.5402 4.092 11.4202 4.716H10.4362C10.5802 3.516 11.5522 2.808 13.0282 2.808C14.5882 2.808 15.4882 3.588 15.4882 5.016V7.692C15.4882 8.016 15.6082 8.1 15.8842 8.1ZM14.5042 6.504V6.204H12.6082C11.7322 6.204 11.2402 6.528 11.2402 7.224C11.2402 7.824 11.7562 8.232 12.5722 8.232C13.7962 8.232 14.5042 7.524 14.5042 6.504ZM15.9446 9L18.2726 5.856L16.1006 2.88H17.2766L18.8966 5.148L20.5406 2.88H21.6566L19.4726 5.856L21.8126 9H20.6366L18.8486 6.54L17.0606 9H15.9446ZM22.6546 1.848C22.2946 1.848 22.0186 1.584 22.0186 1.212C22.0186 0.84 22.2946 0.576 22.6546 0.576C23.0146 0.576 23.2906 0.84 23.2906 1.212C23.2906 1.584 23.0146 1.848 22.6546 1.848ZM22.1506 9V2.88H23.1346V9H22.1506ZM26.9426 9.072C25.1546 9.072 23.9066 7.8 23.9066 5.94C23.9066 4.08 25.1546 2.808 26.9426 2.808C28.7306 2.808 29.9786 4.08 29.9786 5.94C29.9786 7.8 28.7306 9.072 26.9426 9.072ZM26.9426 8.196C28.1546 8.196 28.9706 7.248 28.9706 5.94C28.9706 4.632 28.1546 3.684 26.9426 3.684C25.7306 3.684 24.9146 4.632 24.9146 5.94C24.9146 7.248 25.7306 8.196 26.9426 8.196ZM33.747 2.808C35.127 2.808 36.219 3.564 36.219 5.592V9H35.235V5.652C35.235 4.38 34.647 3.708 33.579 3.708C32.427 3.708 31.731 4.56 31.731 5.94V9H30.747V2.88H31.599L31.731 3.708C32.091 3.24 32.715 2.808 33.747 2.808ZM43.8422 6H39.8462V5.172H43.8422V6Z" fill="white"/>
<defs>
<radialGradient id="paint0_angular_716_1782" cx="0" cy="0" r="1" gradientUnits="userSpaceOnUse" gradientTransform="translate(74 5) rotate(90) scale(4 24)">
<stop stop-color="#F1C78E"/>
<stop offset="1" stop-color="#EA8F82"/>
</radialGradient>
</defs>
</svg>
