<svg width="361" height="17" viewBox="0 0 361 17" fill="none" xmlns="http://www.w3.org/2000/svg">
<path fill-rule="evenodd" clip-rule="evenodd" d="M7 14C10.866 14 14 10.866 14 7C14 3.13401 10.866 0 7 0C3.13401 0 0 3.13401 0 7C0 10.866 3.13401 14 7 14ZM7 13.0175C10.3234 13.0175 13.0175 10.3234 13.0175 6.99997C13.0175 3.67657 10.3234 0.982428 7 0.982428C3.6766 0.982428 0.98245 3.67657 0.98245 6.99997C0.98245 10.3234 3.6766 13.0175 7 13.0175Z" fill="#ECA486"/>
<path d="M31.088 13V1.8H38.224V3.08H32.48V6.664H37.264V7.944H32.48V11.72H38.432V13H31.088ZM39.4823 13V1.8H40.7943V13H39.4823ZM49.4876 11.8H49.9036V13H49.1836C48.0956 13 47.7276 12.536 47.7116 11.736C47.1996 12.472 46.3836 13.096 44.9756 13.096C43.1836 13.096 41.9676 12.2 41.9676 10.712C41.9676 9.08 43.1036 8.168 45.2476 8.168H47.6476V7.608C47.6476 6.552 46.8956 5.912 45.6156 5.912C44.4636 5.912 43.6956 6.456 43.5356 7.288H42.2236C42.4156 5.688 43.7116 4.744 45.6796 4.744C47.7596 4.744 48.9596 5.784 48.9596 7.688V11.256C48.9596 11.688 49.1196 11.8 49.4876 11.8ZM47.6476 9.672V9.272H45.1196C43.9516 9.272 43.2956 9.704 43.2956 10.632C43.2956 11.432 43.9836 11.976 45.0716 11.976C46.7036 11.976 47.6476 11.032 47.6476 9.672ZM54.5923 4.744C56.4323 4.744 57.8883 5.752 57.8883 8.456V13H56.5763V8.536C56.5763 6.84 55.7923 5.944 54.3683 5.944C52.8323 5.944 51.9043 7.08 51.9043 8.92V13H50.5923V4.84H51.7283L51.9043 5.944C52.3843 5.32 53.2163 4.744 54.5923 4.744ZM59.849 10.872V6.04H58.377V4.84H59.849V2.552H61.161V4.84H63.273V6.04H61.161V10.856C61.161 11.544 61.401 11.8 62.105 11.8H63.401V13H61.977C60.409 13 59.849 12.312 59.849 10.872ZM67.9939 4.84H68.3619V6.12H67.7059C65.9939 6.12 65.5299 7.544 65.5299 8.84V13H64.2179V4.84H65.3539L65.5299 6.072C65.9139 5.448 66.5379 4.84 67.9939 4.84ZM76.1139 11.8H76.5299V13H75.8099C74.7219 13 74.3539 12.536 74.3379 11.736C73.8259 12.472 73.0099 13.096 71.6019 13.096C69.8099 13.096 68.5939 12.2 68.5939 10.712C68.5939 9.08 69.7299 8.168 71.8739 8.168H74.2739V7.608C74.2739 6.552 73.5219 5.912 72.2419 5.912C71.0899 5.912 70.3219 6.456 70.1619 7.288H68.8499C69.0419 5.688 70.3379 4.744 72.3059 4.744C74.3859 4.744 75.5859 5.784 75.5859 7.688V11.256C75.5859 11.688 75.7459 11.8 76.1139 11.8ZM74.2739 9.672V9.272H71.7459C70.5779 9.272 69.9219 9.704 69.9219 10.632C69.9219 11.432 70.6099 11.976 71.6979 11.976C73.3299 11.976 74.2739 11.032 74.2739 9.672ZM81.278 13V1.8H88.414V3.08H82.67V6.664H87.454V7.944H82.67V11.72H88.622V13H81.278ZM93.6722 4.744C95.5122 4.744 96.9682 5.752 96.9682 8.456V13H95.6562V8.536C95.6562 6.84 94.8722 5.944 93.4482 5.944C91.9122 5.944 90.9842 7.08 90.9842 8.92V13H89.6722V4.84H90.8082L90.9842 5.944C91.4642 5.32 92.2962 4.744 93.6722 4.744ZM101.987 13.096C99.5393 13.096 97.9393 11.416 97.9393 8.92C97.9393 6.44 99.5073 4.744 101.811 4.744C104.115 4.744 105.619 6.2 105.683 8.616C105.683 8.792 105.667 8.984 105.651 9.176H99.3153V9.288C99.3633 10.84 100.339 11.928 101.891 11.928C103.043 11.928 103.939 11.32 104.211 10.264H105.539C105.219 11.896 103.875 13.096 101.987 13.096ZM99.3953 8.088H104.275C104.147 6.68 103.187 5.896 101.827 5.896C100.627 5.896 99.5233 6.76 99.3953 8.088ZM110.636 4.84H111.004V6.12H110.348C108.636 6.12 108.172 7.544 108.172 8.84V13H106.86V4.84H107.996L108.172 6.072C108.556 5.448 109.18 4.84 110.636 4.84ZM117.785 6.248L117.961 4.84H119.097V12.6C119.097 14.952 117.849 16.296 115.049 16.296C112.969 16.296 111.513 15.32 111.305 13.528H112.649C112.873 14.552 113.785 15.128 115.145 15.128C116.857 15.128 117.785 14.328 117.785 12.552V11.592C117.241 12.52 116.361 13.096 114.985 13.096C112.729 13.096 111.065 11.576 111.065 8.92C111.065 6.424 112.729 4.744 114.985 4.744C116.361 4.744 117.273 5.336 117.785 6.248ZM115.113 11.928C116.713 11.928 117.801 10.696 117.801 8.952C117.801 7.16 116.713 5.912 115.113 5.912C113.497 5.912 112.409 7.144 112.409 8.92C112.409 10.696 113.497 11.928 115.113 11.928ZM122.932 13.048L119.748 4.84H121.14L123.652 11.352L126.084 4.84H127.476L123.716 14.376C123.204 15.688 122.9 16.2 121.748 16.2H120.18V15H121.348C122.1 15 122.228 14.808 122.532 14.04L122.932 13.048ZM131.426 3.08V1.8H140.082V3.08H136.45V13H135.058V3.08H131.426ZM143.943 4.84H144.311V6.12H143.655C141.943 6.12 141.479 7.544 141.479 8.84V13H140.167V4.84H141.303L141.479 6.072C141.863 5.448 142.487 4.84 143.943 4.84ZM152.063 11.8H152.479V13H151.759C150.671 13 150.303 12.536 150.287 11.736C149.775 12.472 148.959 13.096 147.551 13.096C145.759 13.096 144.543 12.2 144.543 10.712C144.543 9.08 145.679 8.168 147.823 8.168H150.223V7.608C150.223 6.552 149.471 5.912 148.191 5.912C147.039 5.912 146.271 6.456 146.111 7.288H144.799C144.991 5.688 146.287 4.744 148.255 4.744C150.335 4.744 151.535 5.784 151.535 7.688V11.256C151.535 11.688 151.695 11.8 152.063 11.8ZM150.223 9.672V9.272H147.695C146.527 9.272 145.871 9.704 145.871 10.632C145.871 11.432 146.559 11.976 147.647 11.976C149.279 11.976 150.223 11.032 150.223 9.672ZM157.167 4.744C159.007 4.744 160.463 5.752 160.463 8.456V13H159.151V8.536C159.151 6.84 158.367 5.944 156.943 5.944C155.407 5.944 154.479 7.08 154.479 8.92V13H153.167V4.84H154.303L154.479 5.944C154.959 5.32 155.791 4.744 157.167 4.744ZM161.48 10.312H162.824C162.872 11.272 163.72 11.976 165.08 11.976C166.232 11.976 167.048 11.48 167.048 10.728C167.048 9.704 166.152 9.624 164.936 9.48C163.112 9.256 161.656 8.888 161.656 7.192C161.656 5.704 163.016 4.728 164.856 4.744C166.712 4.76 168.056 5.624 168.184 7.32H166.84C166.744 6.488 165.976 5.864 164.856 5.864C163.72 5.864 162.952 6.344 162.952 7.096C162.952 7.992 163.816 8.104 165 8.248C166.856 8.472 168.344 8.824 168.344 10.632C168.344 12.152 166.888 13.096 165.08 13.096C162.968 13.096 161.512 12.104 161.48 10.312ZM170.152 3.464C169.672 3.464 169.304 3.112 169.304 2.616C169.304 2.12 169.672 1.768 170.152 1.768C170.632 1.768 171 2.12 171 2.616C171 3.112 170.632 3.464 170.152 3.464ZM169.48 13V4.84H170.792V13H169.48ZM172.878 10.872V6.04H171.406V4.84H172.878V2.552H174.19V4.84H176.302V6.04H174.19V10.856C174.19 11.544 174.43 11.8 175.134 11.8H176.43V13H175.006C173.438 13 172.878 12.312 172.878 10.872ZM177.919 3.464C177.439 3.464 177.071 3.112 177.071 2.616C177.071 2.12 177.439 1.768 177.919 1.768C178.399 1.768 178.767 2.12 178.767 2.616C178.767 3.112 178.399 3.464 177.919 3.464ZM177.247 13V4.84H178.559V13H177.247ZM183.796 13.096C181.412 13.096 179.748 11.4 179.748 8.92C179.748 6.44 181.412 4.744 183.796 4.744C186.18 4.744 187.844 6.44 187.844 8.92C187.844 11.4 186.18 13.096 183.796 13.096ZM183.796 11.928C185.412 11.928 186.5 10.664 186.5 8.92C186.5 7.176 185.412 5.912 183.796 5.912C182.18 5.912 181.092 7.176 181.092 8.92C181.092 10.664 182.18 11.928 183.796 11.928ZM193.029 4.744C194.869 4.744 196.325 5.752 196.325 8.456V13H195.013V8.536C195.013 6.84 194.229 5.944 192.805 5.944C191.269 5.944 190.341 7.08 190.341 8.92V13H189.029V4.84H190.165L190.341 5.944C190.821 5.32 191.653 4.744 193.029 4.744Z" fill="#F6F6F7"/>
<path d="M327.788 7.632C328.556 7.776 329.36 8.388 329.36 9.672C329.36 11.1 328.16 12.072 326.336 12.072C324.512 12.072 323.336 11.076 323.336 9.408H324.332C324.344 10.512 325.208 11.172 326.396 11.172C327.488 11.172 328.328 10.56 328.328 9.6C328.328 8.724 327.608 8.16 326.3 8.16H325.58V7.284H326.24C327.488 7.284 328.112 6.66 328.112 5.808C328.112 4.956 327.344 4.428 326.336 4.428C325.28 4.428 324.512 5.064 324.5 6.024H323.504C323.516 4.548 324.668 3.528 326.324 3.528C328.052 3.528 329.144 4.428 329.144 5.748C329.144 6.804 328.592 7.416 327.788 7.632ZM335.54 8.892L332.372 3.6H333.596L336.068 7.764L338.576 3.6H339.752L336.584 8.892V12H335.54V8.892ZM341.947 12.072C340.111 12.072 338.911 10.812 338.911 8.94C338.911 7.08 340.087 5.808 341.815 5.808C343.543 5.808 344.671 6.9 344.719 8.712C344.719 8.844 344.707 8.988 344.695 9.132H339.943V9.216C339.979 10.38 340.711 11.196 341.875 11.196C342.739 11.196 343.411 10.74 343.615 9.948H344.611C344.371 11.172 343.363 12.072 341.947 12.072ZM340.003 8.316H343.663C343.567 7.26 342.847 6.672 341.827 6.672C340.927 6.672 340.099 7.32 340.003 8.316ZM350.894 11.1H351.206V12H350.666C349.85 12 349.574 11.652 349.562 11.052C349.178 11.604 348.566 12.072 347.51 12.072C346.166 12.072 345.254 11.4 345.254 10.284C345.254 9.06 346.106 8.376 347.714 8.376H349.514V7.956C349.514 7.164 348.95 6.684 347.99 6.684C347.126 6.684 346.55 7.092 346.43 7.716H345.446C345.59 6.516 346.562 5.808 348.038 5.808C349.598 5.808 350.498 6.588 350.498 8.016V10.692C350.498 11.016 350.618 11.1 350.894 11.1ZM349.514 9.504V9.204H347.618C346.742 9.204 346.25 9.528 346.25 10.224C346.25 10.824 346.766 11.232 347.582 11.232C348.806 11.232 349.514 10.524 349.514 9.504ZM354.434 5.88H354.71V6.84H354.218C352.934 6.84 352.586 7.908 352.586 8.88V12H351.602V5.88H352.454L352.586 6.804C352.874 6.336 353.342 5.88 354.434 5.88ZM354.823 9.984H355.831C355.867 10.704 356.503 11.232 357.523 11.232C358.387 11.232 358.999 10.86 358.999 10.296C358.999 9.528 358.327 9.468 357.415 9.36C356.047 9.192 354.955 8.916 354.955 7.644C354.955 6.528 355.975 5.796 357.355 5.808C358.747 5.82 359.755 6.468 359.851 7.74H358.843C358.771 7.116 358.195 6.648 357.355 6.648C356.503 6.648 355.927 7.008 355.927 7.572C355.927 8.244 356.575 8.328 357.463 8.436C358.855 8.604 359.971 8.868 359.971 10.224C359.971 11.364 358.879 12.072 357.523 12.072C355.939 12.072 354.847 11.328 354.823 9.984Z" fill="url(#paint0_angular_716_1784)"/>
<path d="M275.212 12H274.132L277.336 3.6H278.572L281.764 12H280.648L279.76 9.732H276.1L275.212 12ZM277.924 4.74L276.412 8.784H279.448L277.924 4.74ZM282.21 12V3.6H283.194V12H282.21ZM289.594 11.1H289.906V12H289.366C288.55 12 288.274 11.652 288.262 11.052C287.878 11.604 287.266 12.072 286.21 12.072C284.866 12.072 283.954 11.4 283.954 10.284C283.954 9.06 284.806 8.376 286.414 8.376H288.214V7.956C288.214 7.164 287.65 6.684 286.69 6.684C285.826 6.684 285.25 7.092 285.13 7.716H284.146C284.29 6.516 285.262 5.808 286.738 5.808C288.298 5.808 289.198 6.588 289.198 8.016V10.692C289.198 11.016 289.318 11.1 289.594 11.1ZM288.214 9.504V9.204H286.318C285.442 9.204 284.95 9.528 284.95 10.224C284.95 10.824 285.466 11.232 286.282 11.232C287.506 11.232 288.214 10.524 288.214 9.504ZM293.303 5.808C294.683 5.808 295.775 6.564 295.775 8.592V12H294.791V8.652C294.791 7.38 294.203 6.708 293.135 6.708C291.983 6.708 291.287 7.56 291.287 8.94V12H290.303V5.88H291.155L291.287 6.708C291.647 6.24 292.271 5.808 293.303 5.808ZM297.125 10.404V6.78H296.021V5.88H297.125V4.164H298.109V5.88H299.693V6.78H298.109V10.392C298.109 10.908 298.289 11.1 298.817 11.1H299.789V12H298.721C297.545 12 297.125 11.484 297.125 10.404ZM303.114 5.88H303.39V6.84H302.898C301.614 6.84 301.266 7.908 301.266 8.88V12H300.282V5.88H301.134L301.266 6.804C301.554 6.336 302.022 5.88 303.114 5.88ZM309.084 11.1H309.396V12H308.856C308.04 12 307.764 11.652 307.752 11.052C307.368 11.604 306.756 12.072 305.7 12.072C304.356 12.072 303.444 11.4 303.444 10.284C303.444 9.06 304.296 8.376 305.904 8.376H307.704V7.956C307.704 7.164 307.14 6.684 306.18 6.684C305.316 6.684 304.74 7.092 304.62 7.716H303.636C303.78 6.516 304.752 5.808 306.228 5.808C307.788 5.808 308.688 6.588 308.688 8.016V10.692C308.688 11.016 308.808 11.1 309.084 11.1ZM307.704 9.504V9.204H305.808C304.932 9.204 304.44 9.528 304.44 10.224C304.44 10.824 304.956 11.232 305.772 11.232C306.996 11.232 307.704 10.524 307.704 9.504ZM316.521 9H312.525V8.172H316.521V9Z" fill="white"/>
<defs>
<radialGradient id="paint0_angular_716_1784" cx="0" cy="0" r="1" gradientUnits="userSpaceOnUse" gradientTransform="translate(342 8) rotate(90) scale(4 19)">
<stop stop-color="#F1C78E"/>
<stop offset="1" stop-color="#EA8F82"/>
</radialGradient>
</defs>
</svg>
