<svg width="20" height="20" viewBox="0 0 20 20" fill="none" xmlns="http://www.w3.org/2000/svg">
<path d="M7.99992 16.6667H11.9999C15.3333 16.6667 16.6666 15.3334 16.6666 12V8.00004C16.6666 4.66671 15.3333 3.33337 11.9999 3.33337H7.99992C4.66659 3.33337 3.33325 4.66671 3.33325 8.00004V12C3.33325 15.3334 4.66659 16.6667 7.99992 16.6667Z" stroke="white" stroke-width="1.3" stroke-linecap="round" stroke-linejoin="round"/>
<path d="M8.74992 14.1667H11.2499C13.3333 14.1667 14.1666 13.3334 14.1666 11.25V8.75004C14.1666 6.66671 13.3333 5.83337 11.2499 5.83337H8.74992C6.66659 5.83337 5.83325 6.66671 5.83325 8.75004V11.25C5.83325 13.3334 6.66659 14.1667 8.74992 14.1667Z" stroke="white" stroke-width="1.3" stroke-linecap="round" stroke-linejoin="round"/>
<path d="M6.67505 3.33329V1.66663" stroke="white" stroke-width="1.3" stroke-linecap="round" stroke-linejoin="round"/>
<path d="M10 3.33329V1.66663" stroke="white" stroke-width="1.3" stroke-linecap="round" stroke-linejoin="round"/>
<path d="M13.3333 3.33329V1.66663" stroke="white" stroke-width="1.3" stroke-linecap="round" stroke-linejoin="round"/>
<path d="M16.6667 6.66663H18.3334" stroke="white" stroke-width="1.3" stroke-linecap="round" stroke-linejoin="round"/>
<path d="M16.6667 10H18.3334" stroke="white" stroke-width="1.3" stroke-linecap="round" stroke-linejoin="round"/>
<path d="M16.6667 13.3334H18.3334" stroke="white" stroke-width="1.3" stroke-linecap="round" stroke-linejoin="round"/>
<path d="M13.3333 16.6666V18.3333" stroke="white" stroke-width="1.3" stroke-linecap="round" stroke-linejoin="round"/>
<path d="M10.0083 16.6666V18.3333" stroke="white" stroke-width="1.3" stroke-linecap="round" stroke-linejoin="round"/>
<path d="M6.67505 16.6666V18.3333" stroke="white" stroke-width="1.3" stroke-linecap="round" stroke-linejoin="round"/>
<path d="M1.66675 6.66663H3.33341" stroke="white" stroke-width="1.3" stroke-linecap="round" stroke-linejoin="round"/>
<path d="M1.66675 10H3.33341" stroke="white" stroke-width="1.3" stroke-linecap="round" stroke-linejoin="round"/>
<path d="M1.66675 13.3334H3.33341" stroke="white" stroke-width="1.3" stroke-linecap="round" stroke-linejoin="round"/>
</svg>
