<svg width="20" height="20" viewBox="0 0 20 20" fill="none" xmlns="http://www.w3.org/2000/svg">
<path d="M7.49961 10.8335C6.94961 11.1085 6.49128 11.5168 6.14961 12.0252C5.95794 12.3168 5.95794 12.6835 6.14961 12.9752C6.49128 13.4835 6.94961 13.8918 7.49961 14.1668" stroke="#E8E8E8" stroke-width="1.5" stroke-linecap="round" stroke-linejoin="round"/>
<path d="M12.675 10.8334C13.225 11.1084 13.6834 11.5167 14.025 12.025C14.2167 12.3167 14.2167 12.6834 14.025 12.975C13.6834 13.4834 13.225 13.8917 12.675 14.1667" stroke="#E8E8E8" stroke-width="1.5" stroke-linecap="round" stroke-linejoin="round"/>
<path d="M7.50033 18.3332H12.5003C16.667 18.3332 18.3337 16.6665 18.3337 12.4998V7.49984C18.3337 3.33317 16.667 1.6665 12.5003 1.6665H7.50033C3.33366 1.6665 1.66699 3.33317 1.66699 7.49984V12.4998C1.66699 16.6665 3.33366 18.3332 7.50033 18.3332Z" stroke="#E8E8E8" stroke-width="1.5" stroke-linecap="round" stroke-linejoin="round"/>
<path d="M1.8584 6.67496L17.8751 6.66663" stroke="#E8E8E8" stroke-width="1.5" stroke-linecap="round" stroke-linejoin="round"/>
</svg>
