<svg width="17" height="16" viewBox="0 0 17 16" fill="none" xmlns="http://www.w3.org/2000/svg">
<mask id="path-1-inside-1_382_15609" fill="white">
<path d="M8.63363 6C11.5791 6 13.967 5.10457 13.967 4C13.967 2.89543 11.5791 2 8.63363 2C5.68811 2 3.30029 2.89543 3.30029 4C3.30029 5.10457 5.68811 6 8.63363 6Z"/>
<path d="M3.30029 4V8C3.30029 8.53043 3.8622 9.03914 4.86239 9.41421C5.86258 9.78929 7.21914 10 8.63363 10C10.0481 10 11.4047 9.78929 12.4049 9.41421C13.4051 9.03914 13.967 8.53043 13.967 8V4"/>
<path d="M3.30029 8V12C3.30029 12.5304 3.8622 13.0391 4.86239 13.4142C5.86258 13.7893 7.21914 14 8.63363 14C10.0481 14 11.4047 13.7893 12.4049 13.4142C13.4051 13.0391 13.967 12.5304 13.967 12V8"/>
</mask>
<path d="M3.30029 8H2.24404H3.30029ZM3.30029 12H2.24404H3.30029ZM8.63363 14V15.0562V14ZM13.967 12H15.0232H13.967ZM12.9107 4C12.9107 3.8656 12.9871 3.86401 12.8471 3.98814C12.7083 4.11118 12.4473 4.27024 12.034 4.42522C11.2152 4.73225 10.0133 4.94375 8.63363 4.94375V7.05625C10.1995 7.05625 11.6642 6.82003 12.7757 6.40321C13.3276 6.19626 13.8476 5.92435 14.2486 5.56884C14.6483 5.21442 15.0232 4.68669 15.0232 4H12.9107ZM8.63363 4.94375C7.25399 4.94375 6.05202 4.73225 5.23326 4.42522C4.81999 4.27024 4.55891 4.11118 4.42014 3.98814C4.28013 3.86401 4.35654 3.8656 4.35654 4H2.24404C2.24404 4.68669 2.61893 5.21442 3.01869 5.56884C3.41968 5.92435 3.93965 6.19626 4.49152 6.40321C5.60304 6.82003 7.06774 7.05625 8.63363 7.05625V4.94375ZM4.35654 4C4.35654 4.1344 4.28013 4.13599 4.42014 4.01186C4.55891 3.88882 4.81999 3.72976 5.23326 3.57478C6.05202 3.26775 7.25399 3.05625 8.63363 3.05625V0.94375C7.06774 0.94375 5.60304 1.17997 4.49152 1.59679C3.93965 1.80374 3.41968 2.07565 3.01869 2.43116C2.61893 2.78558 2.24404 3.31331 2.24404 4H4.35654ZM8.63363 3.05625C10.0133 3.05625 11.2152 3.26775 12.034 3.57478C12.4473 3.72976 12.7083 3.88882 12.8471 4.01186C12.9871 4.13599 12.9107 4.1344 12.9107 4H15.0232C15.0232 3.31331 14.6483 2.78558 14.2486 2.43116C13.8476 2.07565 13.3276 1.80374 12.7757 1.59679C11.6642 1.17997 10.1995 0.94375 8.63363 0.94375V3.05625ZM2.24404 4V8H4.35654V4H2.24404ZM2.24404 8C2.24404 8.66567 2.59981 9.18847 2.99737 9.54839C3.39531 9.90866 3.91801 10.1881 4.49152 10.4032L5.23326 8.42522C4.80658 8.26521 4.54823 8.1028 4.41517 7.98234C4.28173 7.86154 4.35654 7.86476 4.35654 8H2.24404ZM4.49152 10.4032C5.64182 10.8346 7.13119 11.0562 8.63363 11.0562V8.94375C7.30708 8.94375 6.08334 8.744 5.23326 8.42522L4.49152 10.4032ZM8.63363 11.0562C10.1361 11.0562 11.6254 10.8346 12.7757 10.4032L12.034 8.42522C11.1839 8.744 9.96017 8.94375 8.63363 8.94375V11.0562ZM12.7757 10.4032C13.3492 10.1881 13.8719 9.90866 14.2699 9.54839C14.6674 9.18847 15.0232 8.66567 15.0232 8H12.9107C12.9107 7.86476 12.9855 7.86154 12.8521 7.98234C12.719 8.1028 12.4607 8.26521 12.034 8.42522L12.7757 10.4032ZM15.0232 8V4H12.9107V8H15.0232ZM2.24404 8V12H4.35654V8H2.24404ZM2.24404 12C2.24404 12.6657 2.59981 13.1885 2.99737 13.5484C3.39531 13.9087 3.91801 14.1881 4.49152 14.4032L5.23326 12.4252C4.80658 12.2652 4.54823 12.1028 4.41517 11.9823C4.28173 11.8615 4.35654 11.8648 4.35654 12H2.24404ZM4.49152 14.4032C5.64182 14.8346 7.13119 15.0562 8.63363 15.0562V12.9437C7.30708 12.9437 6.08334 12.744 5.23326 12.4252L4.49152 14.4032ZM8.63363 15.0562C10.1361 15.0562 11.6254 14.8346 12.7757 14.4032L12.034 12.4252C11.1839 12.744 9.96017 12.9437 8.63363 12.9437V15.0562ZM12.7757 14.4032C13.3492 14.1881 13.8719 13.9087 14.2699 13.5484C14.6674 13.1885 15.0232 12.6657 15.0232 12H12.9107C12.9107 11.8648 12.9855 11.8615 12.8521 11.9823C12.719 12.1028 12.4607 12.2652 12.034 12.4252L12.7757 14.4032ZM15.0232 12V8H12.9107V12H15.0232Z" fill="url(#paint0_linear_382_15609)" mask="url(#path-1-inside-1_382_15609)"/>
<defs>
<linearGradient id="paint0_linear_382_15609" x1="8.63363" y1="2" x2="8.63363" y2="18.35" gradientUnits="userSpaceOnUse">
<stop stop-color="white"/>
<stop offset="1" stop-color="white" stop-opacity="0"/>
</linearGradient>
</defs>
</svg>
