<svg width="22" height="22" viewBox="0 0 22 22" fill="none" xmlns="http://www.w3.org/2000/svg">
<g clip-path="url(#clip0_382_15621)">
<g clip-path="url(#clip1_382_15621)">
<path fill-rule="evenodd" clip-rule="evenodd" d="M21.2797 11C21.2797 16.7987 16.5945 21.5 10.8156 21.5C8.48115 21.5 6.32473 20.7326 4.58434 19.4365C4.88229 19.6042 5.1893 19.7554 5.50541 19.8922C6.70261 20.4099 7.99246 20.6778 9.29685 20.6778C11.7258 20.6778 14.0639 19.7554 15.8442 18.1003C17.6245 16.445 18.7182 14.1755 18.9035 11.7455C18.929 11.5159 18.9435 11.2862 18.9471 11.0565C18.9471 10.763 18.9235 10.4239 18.8926 10.1141C18.8908 10.0849 18.889 10.0539 18.8872 10.0247C18.8872 9.99011 18.8853 9.95547 18.8817 9.92266L18.8726 9.93177C18.8291 9.52891 18.7836 9.21901 18.7836 9.21901H11.1917L10.6012 10.3273L9.24598 12.8977H14.9831C14.7705 13.5339 14.4526 14.1318 14.0438 14.6641C13.4861 15.3969 12.7685 15.9893 11.9438 16.3977C11.1208 16.806 10.2143 17.0193 9.29503 17.0174C8.59197 17.0174 7.89436 16.8899 7.23491 16.6455C6.0813 16.2227 5.08575 15.4553 4.38269 14.4453C3.67963 13.4336 3.30176 12.2323 3.30176 11C3.30176 10.2107 3.45618 9.42682 3.75775 8.69766C4.05932 7.96849 4.50077 7.30495 5.05669 6.74531C5.61259 6.1875 6.27387 5.7427 7.00236 5.44193C7.73086 5.14115 8.51022 4.98438 9.29685 4.98438C10.5667 4.98255 11.8057 5.38724 12.8303 6.14011L13.6169 4.66172L14.5543 2.88438C12.9902 1.86172 11.1626 1.31849 9.29503 1.32031C7.64365 1.32031 6.03588 1.74688 4.61341 2.53803C6.35199 1.25833 8.49568 0.5 10.8156 0.5C16.5945 0.5 21.2797 5.2013 21.2797 11Z" fill="url(#paint0_linear_382_15621)"/>
</g>
</g>
<defs>
<linearGradient id="paint0_linear_382_15621" x1="12.2907" y1="0.5" x2="12.2907" y2="21.5" gradientUnits="userSpaceOnUse">
<stop stop-color="white"/>
<stop offset="1" stop-color="#999999" stop-opacity="0"/>
</linearGradient>
<clipPath id="clip0_382_15621">
<rect width="21" height="21" fill="white" transform="translate(0.301758 0.5)"/>
</clipPath>
<clipPath id="clip1_382_15621">
<rect width="18" height="21" fill="white" transform="translate(3.30176 0.5)"/>
</clipPath>
</defs>
</svg>
