<svg width="17" height="16" viewBox="0 0 17 16" fill="none" xmlns="http://www.w3.org/2000/svg">
<path d="M13.6948 9.89125V6C13.6948 4.23556 12.2644 2.80521 10.5 2.80521H6.5C4.73557 2.80521 3.30521 4.23557 3.30521 6V10C3.30521 11.7644 4.73556 13.1948 6.5 13.1948H10.3913C12.2157 13.1948 13.6948 11.7157 13.6948 9.89125Z" stroke="url(#paint0_linear_382_15605)" stroke-width="1.05625" stroke-linecap="round" stroke-linejoin="round"/>
<path d="M6.25838 8.50305L6.31795 8.34925H6.16332V8.27183V8.27165L6.25838 8.50305ZM6.25838 8.50305C6.24041 8.49788 6.2232 8.49212 6.20671 8.48583L6.20609 8.4856C6.1432 8.46171 6.089 8.4307 6.04254 8.39381C6.04229 8.39361 6.04203 8.3934 6.04177 8.3932C6.02885 8.3829 6.01652 8.37214 6.00477 8.36095L6.00408 8.36029C5.96701 8.32512 5.93524 8.28558 5.90888 8.24136L6.25838 8.50305Z" stroke="url(#paint1_linear_382_15605)" stroke-width="1.05625" stroke-linecap="round" stroke-linejoin="round"/>
<path d="M8.34043 7.50135C8.35218 7.48063 8.36468 7.46271 8.37665 7.44758V7.50135V7.67251V7.84092V7.89515C8.36413 7.87951 8.35151 7.86145 8.33983 7.84092C8.33378 7.83028 8.32798 7.81898 8.32258 7.80701C8.2939 7.74351 8.29056 7.69252 8.29056 7.67251C8.29056 7.65273 8.29384 7.5979 8.32562 7.53001C8.33034 7.51993 8.33532 7.51037 8.34043 7.50135Z" stroke="url(#paint2_linear_382_15605)" stroke-width="1.05625" stroke-linecap="round" stroke-linejoin="round"/>
<mask id="path-4-inside-1_382_15605" fill="white">
<path d="M10.6893 9.06189C10.9982 9.06189 11.2459 8.9716 11.4265 8.79337C11.6075 8.61476 11.6993 8.36273 11.6993 8.04397V6.83252H10.9546V8.02788C10.9546 8.16135 10.9303 8.26106 10.8863 8.30817C10.8435 8.3541 10.7799 8.37647 10.6916 8.37647C10.6033 8.37647 10.5401 8.3541 10.4973 8.30817C10.4533 8.26106 10.429 8.16135 10.429 8.02788V6.83252H9.6792V8.04397C9.6792 8.36234 9.77106 8.61437 9.95164 8.79337C10.1318 8.9716 10.3799 9.06189 10.6889 9.06189H10.6893Z"/>
</mask>
<path d="M11.4265 8.79337L12.1685 9.54514L12.1685 9.54513L11.4265 8.79337ZM11.6993 6.83252H12.7556C12.7556 6.24917 12.2827 5.77627 11.6993 5.77627V6.83252ZM10.9546 6.83252V5.77627C10.3713 5.77627 9.89839 6.24917 9.89839 6.83252H10.9546ZM10.8863 8.30817L10.1142 7.58747L10.1135 7.58817L10.8863 8.30817ZM10.4973 8.30817L11.2701 7.58817L11.2695 7.58747L10.4973 8.30817ZM10.429 6.83252H11.4852C11.4852 6.24917 11.0123 5.77627 10.429 5.77627V6.83252ZM9.6792 6.83252V5.77627C9.09585 5.77627 8.62295 6.24917 8.62295 6.83252H9.6792ZM9.95164 8.79337L9.20802 9.54351L9.20886 9.54434L9.95164 8.79337ZM10.6893 10.1181C11.212 10.1181 11.7489 9.95921 12.1685 9.54514L10.6845 8.04161C10.694 8.03224 10.7052 8.0233 10.7173 8.01576C10.7292 8.00828 10.7389 8.00404 10.7445 8.00202C10.7555 7.998 10.7415 8.00564 10.6893 8.00564V10.1181ZM12.1685 9.54513C12.5984 9.12076 12.7556 8.56997 12.7556 8.04397H10.6431C10.6431 8.10308 10.6345 8.12025 10.6383 8.10979C10.6403 8.10432 10.6448 8.09368 10.6534 8.08019C10.662 8.06657 10.6727 8.05331 10.6845 8.04162L12.1685 9.54513ZM12.7556 8.04397V6.83252H10.6431V8.04397H12.7556ZM11.6993 5.77627H10.9546V7.88877H11.6993V5.77627ZM9.89839 6.83252V8.02788H12.0109V6.83252H9.89839ZM9.89839 8.02788C9.89839 8.03619 9.89708 8.00643 9.91078 7.95021C9.91794 7.92085 9.9319 7.87311 9.95916 7.81495C9.9859 7.75792 10.0333 7.67413 10.1142 7.58747L11.6585 9.02886C11.8543 8.81909 11.9303 8.5853 11.9632 8.4506C12 8.29939 12.0109 8.15303 12.0109 8.02788H9.89839ZM10.1135 7.58817C10.3402 7.34478 10.6078 7.32022 10.6916 7.32022V9.43272C10.9521 9.43272 11.3468 9.36341 11.6592 9.02816L10.1135 7.58817ZM10.6916 7.32022C10.7771 7.32022 11.0442 7.34567 11.2701 7.58817L9.72447 9.02816C10.036 9.36252 10.4295 9.43272 10.6916 9.43272V7.32022ZM11.2695 7.58747C11.3504 7.67413 11.3977 7.75793 11.4245 7.81496C11.4517 7.87312 11.4657 7.92085 11.4729 7.95022C11.4866 8.00643 11.4852 8.0362 11.4852 8.02788H9.37275C9.37275 8.15303 9.3836 8.29938 9.42047 8.45059C9.45331 8.58529 9.52933 8.81909 9.72512 9.02886L11.2695 7.58747ZM11.4852 8.02788V6.83252H9.37275V8.02788H11.4852ZM10.429 5.77627H9.6792V7.88877H10.429V5.77627ZM8.62295 6.83252V8.04397H10.7354V6.83252H8.62295ZM8.62295 8.04397C8.62295 8.57007 8.7803 9.1195 9.20803 9.54351L10.6953 8.04324C10.7068 8.05469 10.7172 8.06767 10.7256 8.081C10.734 8.09418 10.7384 8.10456 10.7403 8.10984C10.744 8.11996 10.7354 8.1027 10.7354 8.04397H8.62295ZM9.20886 9.54434C9.6287 9.9596 10.1669 10.1181 10.6889 10.1181V8.00564C10.6366 8.00564 10.6224 7.99798 10.6334 8.00197C10.6389 8.00399 10.6487 8.00825 10.6609 8.01585C10.6731 8.02351 10.6846 8.03266 10.6944 8.04241L9.20886 9.54434ZM10.6889 10.1181H10.6893V8.00564H10.6889V10.1181Z" fill="url(#paint3_linear_382_15605)" mask="url(#path-4-inside-1_382_15605)"/>
<defs>
<linearGradient id="paint0_linear_382_15605" x1="8.5" y1="2" x2="8.5" y2="18.35" gradientUnits="userSpaceOnUse">
<stop stop-color="white"/>
<stop offset="1" stop-color="white" stop-opacity="0"/>
</linearGradient>
<linearGradient id="paint1_linear_382_15605" x1="6.39957" y1="6.7998" x2="6.39957" y2="9.88171" gradientUnits="userSpaceOnUse">
<stop stop-color="white"/>
<stop offset="1" stop-color="white" stop-opacity="0"/>
</linearGradient>
<linearGradient id="paint2_linear_382_15605" x1="8.60002" y1="6.83203" x2="8.60002" y2="9.82621" gradientUnits="userSpaceOnUse">
<stop stop-color="white"/>
<stop offset="1" stop-color="white" stop-opacity="0"/>
</linearGradient>
<linearGradient id="paint3_linear_382_15605" x1="10.6893" y1="6.83252" x2="10.6893" y2="9.87003" gradientUnits="userSpaceOnUse">
<stop stop-color="white"/>
<stop offset="1" stop-color="white" stop-opacity="0"/>
</linearGradient>
</defs>
</svg>
