<svg width="17" height="16" viewBox="0 0 17 16" fill="none" xmlns="http://www.w3.org/2000/svg">
<mask id="path-1-inside-1_382_15625" fill="white">
<path d="M8.4349 6C11.3804 6 13.7682 5.10457 13.7682 4C13.7682 2.89543 11.3804 2 8.4349 2C5.48938 2 3.10156 2.89543 3.10156 4C3.10156 5.10457 5.48938 6 8.4349 6Z"/>
<path d="M3.10156 4V8C3.10156 8.53043 3.66347 9.03914 4.66366 9.41421C5.66385 9.78929 7.02041 10 8.4349 10C9.84938 10 11.2059 9.78929 12.2061 9.41421C13.2063 9.03914 13.7682 8.53043 13.7682 8V4"/>
<path d="M3.10156 8V12C3.10156 12.5304 3.66347 13.0391 4.66366 13.4142C5.66385 13.7893 7.02041 14 8.4349 14C9.84938 14 11.2059 13.7893 12.2061 13.4142C13.2063 13.0391 13.7682 12.5304 13.7682 12V8"/>
</mask>
<path d="M3.10156 8H2.04531H3.10156ZM3.10156 12H2.04531H3.10156ZM8.4349 14V15.0562V14ZM13.7682 12H14.8245H13.7682ZM12.712 4C12.712 3.8656 12.7884 3.86401 12.6484 3.98814C12.5096 4.11118 12.2485 4.27024 11.8353 4.42522C11.0165 4.73225 9.81453 4.94375 8.4349 4.94375V7.05625C10.0008 7.05625 11.4655 6.82003 12.577 6.40321C13.1289 6.19626 13.6488 5.92435 14.0498 5.56884C14.4496 5.21441 14.8245 4.68669 14.8245 4H12.712ZM8.4349 4.94375C7.05526 4.94375 5.85329 4.73225 5.03453 4.42522C4.62126 4.27024 4.36018 4.11118 4.22141 3.98814C4.0814 3.86401 4.15781 3.8656 4.15781 4H2.04531C2.04531 4.68669 2.4202 5.21441 2.81996 5.56884C3.22095 5.92435 3.74092 6.19626 4.29279 6.40321C5.40431 6.82003 6.86901 7.05625 8.4349 7.05625V4.94375ZM4.15781 4C4.15781 4.1344 4.0814 4.13599 4.22141 4.01186C4.36018 3.88882 4.62126 3.72976 5.03453 3.57478C5.85329 3.26775 7.05526 3.05625 8.4349 3.05625V0.94375C6.86901 0.94375 5.40431 1.17997 4.29279 1.59679C3.74092 1.80374 3.22095 2.07565 2.81996 2.43116C2.4202 2.78558 2.04531 3.31331 2.04531 4H4.15781ZM8.4349 3.05625C9.81453 3.05625 11.0165 3.26775 11.8353 3.57478C12.2485 3.72976 12.5096 3.88882 12.6484 4.01186C12.7884 4.13599 12.712 4.1344 12.712 4H14.8245C14.8245 3.31331 14.4496 2.78558 14.0498 2.43116C13.6488 2.07565 13.1289 1.80374 12.577 1.59679C11.4655 1.17997 10.0008 0.94375 8.4349 0.94375V3.05625ZM2.04531 4V8H4.15781V4H2.04531ZM2.04531 8C2.04531 8.66567 2.40108 9.18847 2.79864 9.54839C3.19658 9.90866 3.71928 10.1881 4.29279 10.4032L5.03453 8.42522C4.60785 8.26521 4.34949 8.1028 4.21644 7.98234C4.083 7.86154 4.15781 7.86476 4.15781 8H2.04531ZM4.29279 10.4032C5.44309 10.8346 6.93246 11.0562 8.4349 11.0562V8.94375C7.10835 8.94375 5.88461 8.744 5.03453 8.42522L4.29279 10.4032ZM8.4349 11.0562C9.93733 11.0562 11.4267 10.8346 12.577 10.4032L11.8353 8.42522C10.9852 8.744 9.76144 8.94375 8.4349 8.94375V11.0562ZM12.577 10.4032C13.1505 10.1881 13.6732 9.90866 14.0711 9.54839C14.4687 9.18847 14.8245 8.66567 14.8245 8H12.712C12.712 7.86476 12.7868 7.86154 12.6534 7.98234C12.5203 8.1028 12.2619 8.26521 11.8353 8.42522L12.577 10.4032ZM14.8245 8V4H12.712V8H14.8245ZM2.04531 8V12H4.15781V8H2.04531ZM2.04531 12C2.04531 12.6657 2.40108 13.1885 2.79864 13.5484C3.19658 13.9087 3.71928 14.1881 4.29279 14.4032L5.03453 12.4252C4.60785 12.2652 4.34949 12.1028 4.21644 11.9823C4.083 11.8615 4.15781 11.8648 4.15781 12H2.04531ZM4.29279 14.4032C5.44309 14.8346 6.93246 15.0562 8.4349 15.0562V12.9437C7.10835 12.9437 5.88461 12.744 5.03453 12.4252L4.29279 14.4032ZM8.4349 15.0562C9.93733 15.0562 11.4267 14.8346 12.577 14.4032L11.8353 12.4252C10.9852 12.744 9.76144 12.9437 8.4349 12.9437V15.0562ZM12.577 14.4032C13.1505 14.1881 13.6732 13.9087 14.0711 13.5484C14.4687 13.1885 14.8245 12.6657 14.8245 12H12.712C12.712 11.8648 12.7868 11.8615 12.6534 11.9823C12.5203 12.1028 12.2619 12.2652 11.8353 12.4252L12.577 14.4032ZM14.8245 12V8H12.712V12H14.8245Z" fill="url(#paint0_linear_382_15625)" mask="url(#path-1-inside-1_382_15625)"/>
<defs>
<linearGradient id="paint0_linear_382_15625" x1="8.4349" y1="2" x2="8.4349" y2="18.35" gradientUnits="userSpaceOnUse">
<stop stop-color="white"/>
<stop offset="1" stop-color="white" stop-opacity="0"/>
</linearGradient>
</defs>
</svg>
