<svg width="23" height="21" viewBox="0 0 23 21" fill="none" xmlns="http://www.w3.org/2000/svg">
<path d="M20.3464 0.0390625H16.2949V4.06657H20.3464V0.0390625Z" fill="black"/>
<path d="M22.3728 0.0390625H18.3213V4.06657H22.3728V0.0390625Z" fill="#F7D046"/>
<path d="M4.14038 0.0390625H0.0888672V4.06657H4.14038V0.0390625Z" fill="black"/>
<path d="M4.14038 4.06641H0.0888672V8.09391H4.14038V4.06641Z" fill="black"/>
<path d="M4.14038 8.09375H0.0888672V12.1213H4.14038V8.09375Z" fill="black"/>
<path d="M4.14038 12.1216H0.0888672V16.1491H4.14038V12.1216Z" fill="black"/>
<path d="M4.14038 16.1489H0.0888672V20.1764H4.14038V16.1489Z" fill="black"/>
<path d="M6.16675 0.0390625H2.11523V4.06657H6.16675V0.0390625Z" fill="#F7D046"/>
<path d="M22.3728 4.06641H18.3213V8.09391H22.3728V4.06641Z" fill="#F2A73B"/>
<path d="M6.16675 4.06641H2.11523V8.09391H6.16675V4.06641Z" fill="#F2A73B"/>
<path d="M16.2947 4.06641H12.2432V8.09391H16.2947V4.06641Z" fill="black"/>
<path d="M18.321 4.06641H14.2695V8.09391H18.321V4.06641Z" fill="#F2A73B"/>
<path d="M10.2185 4.06641H6.16699V8.09391H10.2185V4.06641Z" fill="#F2A73B"/>
<path d="M14.2693 8.09375H10.2178V12.1213H14.2693V8.09375Z" fill="#EE792F"/>
<path d="M18.321 8.09375H14.2695V12.1213H18.321V8.09375Z" fill="#EE792F"/>
<path d="M10.2185 8.09375H6.16699V12.1213H10.2185V8.09375Z" fill="#EE792F"/>
<path d="M12.2429 12.1216H8.19141V16.1491H12.2429V12.1216Z" fill="black"/>
<path d="M14.2693 12.1216H10.2178V16.1491H14.2693V12.1216Z" fill="#EB5829"/>
<path d="M22.3728 8.09375H18.3213V12.1213H22.3728V8.09375Z" fill="#EE792F"/>
<path d="M6.16675 8.09375H2.11523V12.1213H6.16675V8.09375Z" fill="#EE792F"/>
<path d="M20.3464 12.1216H16.2949V16.1491H20.3464V12.1216Z" fill="black"/>
<path d="M22.3728 12.1216H18.3213V16.1491H22.3728V12.1216Z" fill="#EB5829"/>
<path d="M20.3464 16.1489H16.2949V20.1764H20.3464V16.1489Z" fill="black"/>
<path d="M6.16675 12.1216H2.11523V16.1491H6.16675V12.1216Z" fill="#EB5829"/>
<path d="M22.3728 16.1489H18.3213V20.1764H22.3728V16.1489Z" fill="#EA3326"/>
<path d="M6.16675 16.1489H2.11523V20.1764H6.16675V16.1489Z" fill="#EA3326"/>
</svg>
