<svg width="25" height="26" viewBox="0 0 25 26" fill="none" xmlns="http://www.w3.org/2000/svg">
<g clip-path="url(#clip0_382_12708)">
<g clip-path="url(#clip1_382_12708)">
<path fill-rule="evenodd" clip-rule="evenodd" d="M24.8627 13.0582C24.8627 19.7973 19.4177 25.261 12.7016 25.261C9.98857 25.261 7.48245 24.3691 5.45982 22.8629C5.80608 23.0578 6.16288 23.2335 6.53026 23.3925C7.9216 23.9941 9.42063 24.3055 10.9366 24.3055C13.7594 24.3055 16.4767 23.2335 18.5457 21.31C20.6147 19.3863 21.8858 16.7488 22.1011 13.9247C22.1307 13.6578 22.1476 13.3909 22.1518 13.1239C22.1518 12.7828 22.1243 12.3888 22.0885 12.0286C22.0864 11.9947 22.0842 11.9587 22.0822 11.9248C22.0822 11.8846 22.08 11.8443 22.0758 11.8062L22.0652 11.8168C22.0146 11.3486 21.9618 10.9884 21.9618 10.9884H13.1386L12.4525 12.2765L10.8774 15.2637H17.5449C17.2979 16.0031 16.9284 16.6979 16.4533 17.3165C15.8052 18.1682 14.9713 18.8567 14.0127 19.3313C13.0563 19.8058 12.0028 20.0537 10.9344 20.0515C10.1174 20.0515 9.30663 19.9033 8.54022 19.6193C7.19954 19.1279 6.04254 18.236 5.22547 17.0622C4.40839 15.8865 3.96924 14.4904 3.96924 13.0582C3.96924 12.1409 4.1487 11.2299 4.49918 10.3825C4.84965 9.53512 5.3627 8.76397 6.00877 8.11358C6.65482 7.46531 7.42334 6.94838 8.26997 6.59883C9.1166 6.24927 10.0224 6.06707 10.9366 6.06707C12.4123 6.06496 13.8523 6.53527 15.043 7.41023L15.9572 5.69209L17.0466 3.62652C15.2288 2.43801 13.1049 1.80669 10.9344 1.80881C9.01526 1.80881 7.14675 2.30455 5.4936 3.224C7.51413 1.73678 10.0055 0.855469 12.7016 0.855469C19.4177 0.855469 24.8627 6.31917 24.8627 13.0582Z" fill="#FF4C00"/>
</g>
</g>
<defs>
<clipPath id="clip0_382_12708">
<rect width="24.4056" height="24.4056" fill="white" transform="translate(0.48291 0.855469)"/>
</clipPath>
<clipPath id="clip1_382_12708">
<rect width="20.9191" height="24.4056" fill="white" transform="translate(3.96924 0.855469)"/>
</clipPath>
</defs>
</svg>
