<svg width="29" height="29" viewBox="0 0 29 29" fill="none" xmlns="http://www.w3.org/2000/svg">
<mask id="mask0_382_12783" style="mask-type:alpha" maskUnits="userSpaceOnUse" x="0" y="0" width="29" height="29">
<path d="M27.3675 13.698C27.6647 14.3541 27.8533 15.0554 27.9304 15.7709C28.0047 16.4863 27.9676 17.2102 27.8133 17.9144C27.6618 18.6185 27.3989 19.2944 27.0331 19.9165C26.7931 20.3322 26.5102 20.7224 26.1845 21.0816C25.8615 21.4379 25.5015 21.7602 25.11 22.043C24.7157 22.3258 24.2956 22.5634 23.8498 22.7585C23.4069 22.9508 22.944 23.0978 22.4696 23.194C22.2467 23.8783 21.9152 24.5259 21.4866 25.1084C21.0608 25.691 20.5436 26.2028 19.9549 26.6241C19.3663 27.0483 18.7148 27.3764 18.0232 27.5969C17.3317 27.8203 16.6087 27.9306 15.8801 27.9306C15.3971 27.9334 14.9113 27.8825 14.437 27.7864C13.9655 27.6874 13.5026 27.5375 13.0596 27.3424C12.6167 27.1473 12.1966 26.9041 11.8052 26.6213C11.4165 26.3385 11.0565 26.0133 10.7364 25.6542C10.022 25.8069 9.29049 25.8437 8.56753 25.7701C7.84456 25.6938 7.13589 25.5071 6.47007 25.2131C5.80712 24.9218 5.19274 24.5259 4.65266 24.0423C4.11258 23.5588 3.65251 22.9932 3.2896 22.3711C3.0467 21.9554 2.84667 21.517 2.69522 21.0618C2.54377 20.6065 2.44376 20.1371 2.39232 19.6591C2.34088 19.1841 2.34374 18.7033 2.39518 18.2254C2.44661 17.7504 2.55234 17.2809 2.70379 16.8256C2.21801 16.2912 1.81795 15.6832 1.52076 15.0271C1.22643 14.3682 1.03497 13.6698 0.960677 12.9543C0.883522 12.2389 0.923528 11.5149 1.07498 10.8108C1.22643 10.1067 1.48933 9.43081 1.8551 8.80868C2.09513 8.39299 2.37803 7.99992 2.70094 7.64361C3.02384 7.2873 3.38675 6.96492 3.77824 6.68214C4.16973 6.39935 4.59265 6.15899 5.03557 5.96669C5.48135 5.77157 5.94428 5.62735 6.41864 5.5312C6.64153 4.84404 6.973 4.19928 7.39878 3.61675C7.82742 3.03421 8.34464 2.52237 8.9333 2.09819C9.52196 1.67684 10.1735 1.34881 10.865 1.12541C11.5565 0.904838 12.2795 0.791724 13.0082 0.794551C13.4911 0.791724 13.9769 0.839797 14.4513 0.938772C14.9256 1.03775 15.3885 1.18479 15.8315 1.37992C16.2744 1.57787 16.6945 1.81823 17.0859 2.10102C17.4774 2.38663 17.8375 2.70901 18.1575 3.06814C18.8691 2.91827 19.6006 2.88151 20.3236 2.95503C21.0465 3.02855 21.7524 3.21802 22.4182 3.50929C23.0811 3.80339 23.6955 4.19646 24.2356 4.68002C24.7757 5.16075 25.2357 5.7235 25.5986 6.34845C25.8415 6.76132 26.0416 7.19964 26.193 7.65775C26.3445 8.11303 26.4473 8.58246 26.4959 9.06036C26.5474 9.53827 26.5474 10.019 26.4931 10.4969C26.4416 10.9748 26.3359 11.4442 26.1845 11.8995C26.6731 12.434 27.0703 13.0391 27.3675 13.698ZM17.8461 25.7701C18.469 25.5156 19.0348 25.1395 19.512 24.6673C19.9892 24.195 20.3693 23.6351 20.6265 23.0158C20.8837 22.3993 21.018 21.7376 21.018 21.0702V14.7641C21.0161 14.7585 21.0142 14.7519 21.0122 14.7443C21.0103 14.7387 21.0075 14.733 21.0037 14.7274C20.9999 14.7217 20.9951 14.717 20.9894 14.7132C20.9837 14.7076 20.978 14.7038 20.9722 14.7019L18.6662 13.3841V21.0024C18.6662 21.0787 18.6548 21.1579 18.6348 21.2314C18.6147 21.3078 18.5862 21.3785 18.5462 21.4464C18.5062 21.5142 18.4604 21.5764 18.4033 21.6302C18.3477 21.685 18.2853 21.7325 18.2175 21.7716L12.7567 24.8907C12.711 24.919 12.6339 24.9585 12.5938 24.9812C12.8196 25.1706 13.0653 25.3375 13.3225 25.4845C13.5826 25.6316 13.8512 25.756 14.1312 25.8578C14.4113 25.9568 14.6999 26.0331 14.9913 26.084C15.2857 26.1349 15.5829 26.1604 15.8801 26.1604C16.5544 26.1604 17.2231 26.0275 17.8461 25.7701ZM4.84126 21.4888C5.18131 22.0685 5.62995 22.5718 6.16431 22.979C6.70154 23.3863 7.3102 23.6832 7.96172 23.8557C8.61325 24.0282 9.29335 24.0734 9.96202 23.9858C10.6307 23.8981 11.2736 23.6832 11.8595 23.3495L17.3803 20.1964L17.3946 20.1823C17.3984 20.1785 17.4012 20.1729 17.4031 20.1653C17.4069 20.1597 17.4098 20.154 17.4117 20.1484V17.4902L10.7479 21.305C10.6793 21.3445 10.6078 21.3728 10.5335 21.3955C10.4564 21.4152 10.3792 21.4237 10.2992 21.4237C10.2221 21.4237 10.1449 21.4152 10.0678 21.3955C9.99346 21.3728 9.91916 21.3445 9.85058 21.305L4.38976 18.183C4.34118 18.1547 4.26974 18.1123 4.22974 18.0869C4.1783 18.3781 4.15258 18.6722 4.15258 18.9663C4.15258 19.2604 4.18116 19.5545 4.23259 19.8458C4.28403 20.1342 4.36404 20.4198 4.46406 20.697C4.56693 20.9741 4.69266 21.2399 4.84126 21.4944V21.4888ZM3.40676 9.69663C3.06956 10.2763 2.85239 10.9154 2.7638 11.5771C2.67522 12.2389 2.72094 12.9091 2.89525 13.5566C3.06956 14.2014 3.36961 14.8037 3.7811 15.3354C4.19259 15.8642 4.70409 16.3081 5.28704 16.6418L10.805 19.7977C10.8107 19.7996 10.8174 19.8015 10.825 19.8034H10.845C10.8526 19.8034 10.8593 19.8015 10.865 19.7977C10.8707 19.7958 10.8764 19.793 10.8822 19.7892L13.1968 18.4658L6.53294 14.6595C6.46722 14.6199 6.40435 14.5718 6.3472 14.5181C6.29183 14.4631 6.24381 14.4014 6.20432 14.3343C6.16717 14.2664 6.13574 14.1957 6.11573 14.1194C6.09573 14.0459 6.0843 13.9695 6.08716 13.8903V7.46828C5.80712 7.57008 5.53565 7.69451 5.27847 7.84156C5.02128 7.99143 4.77839 8.16111 4.54979 8.35057C4.32404 8.54004 4.11258 8.7493 3.92112 8.97553C3.72966 9.19893 3.56107 9.44212 3.41247 9.69663H3.40676ZM22.361 14.0628C22.4296 14.1024 22.4925 14.1477 22.5496 14.2042C22.6039 14.258 22.6525 14.3202 22.6925 14.388C22.7296 14.4559 22.7611 14.5294 22.7811 14.603C22.7982 14.6793 22.8097 14.7557 22.8068 14.8348V21.2569C23.7241 20.9232 24.5242 20.3378 25.1157 19.5687C25.7101 18.7995 26.0673 17.8804 26.1502 16.919C26.233 15.9575 26.0387 14.9904 25.5872 14.1335C25.1357 13.2767 24.447 12.5641 23.6012 12.0833L18.0832 8.92745C18.0775 8.92557 18.0709 8.92368 18.0632 8.9218H18.0432C18.0375 8.92368 18.0308 8.92557 18.0232 8.92745C18.0175 8.92934 18.0118 8.93217 18.0061 8.93594L15.7029 10.2537L22.3667 14.0628H22.361ZM24.6614 10.6411H24.6585V10.644L24.6614 10.6411ZM24.6585 10.6383C24.8242 9.68815 24.7128 8.70971 24.3356 7.81893C23.9613 6.92816 23.3355 6.16181 22.5353 5.60755C21.7352 5.05612 20.7922 4.7394 19.8178 4.69699C18.8405 4.6574 17.8746 4.89211 17.0288 5.37284L11.5108 8.5259C11.5051 8.52967 11.5003 8.53438 11.4965 8.54004L11.4851 8.557C11.4832 8.56266 11.4813 8.56926 11.4794 8.5768C11.4775 8.58246 11.4765 8.58905 11.4765 8.59659V11.2322L18.1404 7.42304C18.209 7.38345 18.2833 7.35517 18.3576 7.33254C18.4347 7.31275 18.5119 7.30427 18.589 7.30427C18.669 7.30427 18.7462 7.31275 18.8233 7.33254C18.8976 7.35517 18.9691 7.38345 19.0377 7.42304L24.4985 10.545C24.5471 10.5733 24.6185 10.6129 24.6585 10.6383ZM10.2192 7.71996C10.2192 7.64361 10.2306 7.56726 10.2506 7.4909C10.2706 7.41738 10.2992 7.34386 10.3392 7.27599C10.3792 7.21095 10.425 7.14873 10.4821 7.09218C10.5364 7.03845 10.5993 6.99037 10.6678 6.95361L16.1287 3.83449C16.1801 3.80339 16.2515 3.7638 16.2915 3.744C15.5429 3.1247 14.6284 2.7288 13.6597 2.6072C12.691 2.48278 11.708 2.63548 10.825 3.04552C9.93916 3.45556 9.19048 4.10879 8.66754 4.92321C8.14461 5.74046 7.86742 6.68497 7.86742 7.65209V13.9582C7.86933 13.9657 7.87123 13.9723 7.87314 13.978C7.87504 13.9837 7.8779 13.9893 7.88171 13.995C7.88552 14.0006 7.89029 14.0063 7.896 14.0119C7.89981 14.0157 7.90553 14.0195 7.91315 14.0232L10.2192 15.341V7.71996ZM11.4708 16.0536L14.4398 17.7503L17.4089 16.0536V12.663L14.4427 10.9663L11.4737 12.663L11.4708 16.0536Z" fill="white" stroke="black" stroke-width="1.06111"/>
</mask>
<g mask="url(#mask0_382_12783)">
<rect x="-0.13916" y="-1.32764" width="30.7722" height="30.7722" rx="6.76125" fill="url(#paint0_angular_382_12783)"/>
</g>
<defs>
<radialGradient id="paint0_angular_382_12783" cx="0" cy="0" r="1" gradientUnits="userSpaceOnUse" gradientTransform="translate(15.247 14.0585) rotate(90) scale(15.3861)">
<stop offset="0.115" stop-color="#7B5BC8"/>
<stop offset="0.39" stop-color="#73A8E8"/>
<stop offset="0.625" stop-color="#D74399"/>
<stop offset="0.875" stop-color="#F2948A"/>
</radialGradient>
</defs>
</svg>
