<svg width="25" height="22" viewBox="0 0 25 22" fill="none" xmlns="http://www.w3.org/2000/svg">
<path d="M7.34291 21.0458C12.0598 21.0458 15.1277 18.5704 15.1277 14.8467C15.1277 11.9588 13.2618 10.1238 9.92541 9.36387L7.78334 8.72725C5.90425 8.30928 4.80744 7.80738 5.06586 6.52518C5.28085 5.45851 5.924 4.85634 7.41961 4.85634C12.1741 4.85634 13.9357 6.52518 13.9357 6.52518V2.51134C13.9357 2.51134 12.2207 0.977539 7.41961 0.977539C2.89445 0.977539 0.438965 3.28464 0.438965 6.85641C0.438965 9.74422 2.14062 11.4236 5.59201 12.2216C5.83356 12.2814 5.95702 12.3122 5.96238 12.3138C6.48737 12.4748 7.19577 12.6875 8.0876 12.9519C9.85165 13.3699 10.3053 13.8135 10.3053 15.1434C10.3053 16.3593 9.03026 17.0505 7.34291 17.0505C2.48216 17.0505 0.438965 14.6141 0.438965 14.6141V19.0611C0.438965 19.0611 1.71668 21.0458 7.34291 21.0458Z" fill="url(#paint0_linear_382_12692)"/>
<path d="M21.9324 20.7441C23.6021 20.7441 24.8456 19.5472 24.8456 17.9279C24.8456 16.2735 23.6377 15.1118 21.9324 15.1118C20.2626 15.1118 19.0547 16.2735 19.0547 17.9279C19.0547 19.5824 20.2626 20.7441 21.9324 20.7441Z" fill="#E80000"/>
<defs>
<linearGradient id="paint0_linear_382_12692" x1="734.876" y1="0.977539" x2="734.876" y2="2007.8" gradientUnits="userSpaceOnUse">
<stop stop-color="#9D39FF"/>
<stop offset="1" stop-color="#A380FF"/>
</linearGradient>
</defs>
</svg>
