<svg width="24" height="24" viewBox="0 0 24 24" fill="none" xmlns="http://www.w3.org/2000/svg">
<path d="M8.99953 13.0007C8.33953 13.3307 7.78953 13.8207 7.37953 14.4307C7.14953 14.7807 7.14953 15.2207 7.37953 15.5707C7.78953 16.1807 8.33953 16.6707 8.99953 17.0007" stroke="#FF4C00" stroke-width="1.5" stroke-linecap="round" stroke-linejoin="round"/>
<path d="M15.21 12.9995C15.87 13.3295 16.42 13.8195 16.83 14.4295C17.06 14.7795 17.06 15.2195 16.83 15.5695C16.42 16.1795 15.87 16.6695 15.21 16.9995" stroke="#FF4C00" stroke-width="1.5" stroke-linecap="round" stroke-linejoin="round"/>
<path d="M9.00049 21.9993H15.0005C20.0005 21.9993 22.0005 19.9993 22.0005 14.9993V8.99927C22.0005 3.99927 20.0005 1.99927 15.0005 1.99927H9.00049C4.00049 1.99927 2.00049 3.99927 2.00049 8.99927V14.9993C2.00049 19.9993 4.00049 21.9993 9.00049 21.9993Z" stroke="#FF4C00" stroke-width="1.5" stroke-linecap="round" stroke-linejoin="round"/>
<path d="M2.22998 8.01049L21.45 8.00049" stroke="#FF4C00" stroke-width="1.5" stroke-linecap="round" stroke-linejoin="round"/>
</svg>
