<svg width="32" height="32" viewBox="0 0 32 32" fill="none" xmlns="http://www.w3.org/2000/svg">
<path d="M12 12.7998L8.80005 15.9998L12 19.1998" stroke="#FF4C00" stroke-width="2" stroke-linecap="round" stroke-linejoin="round"/>
<path d="M20.8 12.7998L24 15.9998L20.8 19.1998" stroke="#FF4C00" stroke-width="2" stroke-linecap="round" stroke-linejoin="round"/>
<path d="M14.5675 3.97852C15.4608 3.49315 16.539 3.49315 17.4323 3.97852L26.2102 8.74836C27.1763 9.27334 27.7778 10.2848 27.7778 11.3843V20.6161C27.7778 21.7156 27.1763 22.7271 26.2102 23.252L17.4323 28.0219C16.539 28.5072 15.4608 28.5072 14.5675 28.0219L5.7896 23.252C4.82347 22.7271 4.22196 21.7156 4.22196 20.6161V11.3843C4.22196 10.2848 4.82347 9.27334 5.7896 8.74836L14.5675 3.97852Z" stroke="#FF4C00" stroke-width="2" stroke-linecap="round" stroke-linejoin="round"/>
<path d="M18.3999 10.3999L14.3999 21.5999" stroke="#FF4C00" stroke-width="2" stroke-linecap="round" stroke-linejoin="round"/>
</svg>
