<svg width="32" height="32" viewBox="0 0 32 32" fill="none" xmlns="http://www.w3.org/2000/svg">
<path d="M25.3102 16.8917C25.3102 22.02 21.1528 26.1774 16.0245 26.1774C10.8961 26.1774 6.73877 22.02 6.73877 16.8917C6.73877 11.7633 10.8961 7.60596 16.0245 7.60596C21.1528 7.60596 25.3102 11.7633 25.3102 16.8917Z" stroke="#FF4C00" stroke-width="2"/>
<path d="M18.4528 16.8915C18.4528 18.2327 17.3655 19.32 16.0243 19.32C14.683 19.32 13.5957 18.2327 13.5957 16.8915C13.5957 15.5502 14.683 14.4629 16.0243 14.4629C17.3655 14.4629 18.4528 15.5502 18.4528 16.8915Z" stroke="#FF4C00" stroke-width="2"/>
<path d="M17.1777 19.1523L22.3496 29.3437" stroke="#FF4C00" stroke-width="2" stroke-linecap="round"/>
<path d="M18.4053 17.4985L29.5946 19.8249" stroke="#FF4C00" stroke-width="2" stroke-linecap="round"/>
<path d="M13.5986 17.4985L2.40538 19.8058" stroke="#FF4C00" stroke-width="2" stroke-linecap="round"/>
<path d="M14.9629 18.9619L9.79098 29.1533" stroke="#FF4C00" stroke-width="2" stroke-linecap="round"/>
<path d="M27.1162 8.14404L18.1694 15.255" stroke="#FF4C00" stroke-width="2" stroke-linecap="round"/>
<path d="M5.13135 8.14404L14.0782 15.255" stroke="#FF4C00" stroke-width="2" stroke-linecap="round"/>
<path d="M16.0244 2.65625V14.0848" stroke="#FF4C00" stroke-width="2" stroke-linecap="round"/>
</svg>
