<svg width="32" height="32" viewBox="0 0 32 32" fill="none" xmlns="http://www.w3.org/2000/svg">
<path d="M10.6665 20.5469L16.0626 23.6697L21.4221 20.5652" stroke="#FF4C00" stroke-width="2" stroke-linecap="round" stroke-linejoin="round"/>
<path d="M16 29.2059V23.6631" stroke="#FF4C00" stroke-width="2" stroke-linecap="round" stroke-linejoin="round"/>
<path d="M14.6078 17.5153L11.3444 19.3242C10.605 19.7336 10 20.7603 10 21.6036V25.0564C10 25.8997 10.605 26.9264 11.3444 27.3358L14.6078 29.1508C15.3044 29.5358 16.4472 29.5358 17.1439 29.1508L20.4072 27.3358C21.1467 26.9264 21.7517 25.8997 21.7517 25.0564V21.6036C21.7517 20.7603 21.1467 19.7336 20.4072 19.3242L17.1439 17.5092C16.4411 17.1242 15.3044 17.1242 14.6078 17.5153Z" stroke="#FF4C00" stroke-width="2" stroke-linecap="round" stroke-linejoin="round"/>
<path d="M25.3332 22.6667C27.6412 21.9707 29.3332 19.8547 29.3332 17.3213C29.3332 14.224 26.8198 11.712 23.7185 11.712C23.7185 7.45333 20.2625 4 15.9998 4C11.7372 4 8.28117 7.45333 8.28117 11.712C5.17984 11.712 2.6665 14.224 2.6665 17.3213C2.6665 19.8547 4.3585 21.9707 6.6665 22.6667" stroke="#FF4C00" stroke-width="2" stroke-linecap="round" stroke-linejoin="round"/>
</svg>
