<svg width="609" height="484" viewBox="0 0 609 484" fill="none" xmlns="http://www.w3.org/2000/svg">
<path d="M0 30.7822C0 14.2137 13.4315 0.782227 30 0.782227H579C595.569 0.782227 609 14.2137 609 30.7822V453.154C609 469.723 595.569 483.154 579 483.154H30C13.4315 483.154 0 469.723 0 453.154V30.7822Z" fill="black"/>
<path d="M0 30.7822C0 14.2137 13.4315 0.782227 30 0.782227H579C595.569 0.782227 609 14.2137 609 30.7822V453.154C609 469.723 595.569 483.154 579 483.154H30C13.4315 483.154 0 469.723 0 453.154V30.7822Z" fill="url(#paint0_radial_633_9135)" fill-opacity="0.4"/>
<path d="M0 30.7822C0 14.2137 13.4315 0.782227 30 0.782227H579C595.569 0.782227 609 14.2137 609 30.7822V453.154C609 469.723 595.569 483.154 579 483.154H30C13.4315 483.154 0 469.723 0 453.154V30.7822Z" fill="url(#paint1_radial_633_9135)" fill-opacity="0.1"/>
<path d="M30 1.18223H579C595.348 1.18223 608.6 14.4346 608.6 30.7822V453.154C608.6 469.502 595.348 482.754 579 482.754H30C13.6524 482.754 0.4 469.502 0.4 453.154V30.7822C0.4 14.4346 13.6524 1.18223 30 1.18223Z" stroke="url(#paint2_linear_633_9135)" stroke-opacity="0.7" stroke-width="0.8"/>
<g clip-path="url(#clip0_633_9135)">
<rect width="545" height="413.9" rx="20.5301" transform="matrix(-1 0 0 1 577 33.4854)" fill="url(#paint3_linear_633_9135)" fill-opacity="0.14"/>
<path d="M416.143 214.739H462.424V262.048H416.143V214.739Z" fill="url(#paint4_linear_633_9135)" fill-opacity="0.02"/>
<path d="M10.0306 260.866H56.3113V308.175H10.0306V260.866Z" fill="url(#paint5_linear_633_9135)" fill-opacity="0.02"/>
<path d="M597.216 123.078H642.34V169.205M597.216 123.078V169.205M597.216 123.078H552.093M597.216 169.205H642.34M597.216 169.205H552.093M597.216 169.205V215.331M642.34 169.205V215.331M552.093 123.078V169.205M552.093 123.078H506.969M552.093 169.205H506.969M552.093 169.205V215.331M506.969 123.078V169.205M506.969 123.078H461.845M506.969 169.205H461.845M506.969 169.205V215.331M461.845 123.078V169.205M461.845 123.078H416.722M461.845 169.205H416.722M461.845 169.205V215.331M416.722 123.078V169.205M416.722 123.078H371.598M416.722 169.205H371.598M416.722 169.205V215.331M371.598 123.078V169.205M371.598 123.078H326.475M371.598 169.205H326.475M371.598 169.205V215.331M326.475 123.078V169.205M326.475 123.078H281.351M326.475 169.205H281.351M326.475 169.205V215.331M281.351 123.078V169.205M281.351 123.078H236.227M281.351 169.205H236.227M281.351 169.205V215.331M236.227 123.078V169.205M236.227 123.078H191.104M236.227 169.205H191.104M236.227 169.205V215.331M191.104 123.078V169.205M191.104 123.078H145.98M191.104 169.205H145.98M191.104 169.205V215.331M145.98 123.078V169.205M145.98 123.078H100.856M145.98 169.205H100.856M145.98 169.205V215.331M100.856 123.078V169.205M100.856 123.078H55.7328M100.856 169.205H55.7328M100.856 169.205V215.331M55.7328 123.078V169.205M55.7328 123.078H10.6092M55.7328 169.205H10.6092M55.7328 169.205V215.331M10.6092 123.078V169.205M10.6092 123.078H-34.5144M10.6092 169.205H-34.5144M10.6092 169.205V215.331M-34.5144 123.078V169.205M-34.5144 123.078H-79.638M-34.5144 169.205H-79.638M-34.5144 169.205V215.331M-79.638 123.078V169.205M-79.638 123.078H-124.762V169.205M-79.638 169.205H-124.762M-79.638 169.205V215.331M-124.762 169.205V215.331M597.216 215.331H642.34M597.216 215.331H552.093M597.216 215.331V261.457M642.34 215.331V261.457M552.093 215.331H506.969M552.093 215.331V261.457M506.969 215.331H461.845M506.969 215.331V261.457M461.845 215.331H416.722M461.845 215.331V261.457M416.722 215.331H371.598M416.722 215.331V261.457M371.598 215.331H326.475M371.598 215.331V261.457M326.475 215.331H281.351M326.475 215.331V261.457M281.351 215.331H236.227M281.351 215.331V261.457M236.227 215.331H191.104M236.227 215.331V261.457M191.104 215.331H145.98M191.104 215.331V261.457M145.98 215.331H100.856M145.98 215.331V261.457M100.856 215.331H55.7328M100.856 215.331V261.457M55.7328 215.331H10.6092M55.7328 215.331V261.457M10.6092 215.331H-34.5144M10.6092 215.331V261.457M-34.5144 215.331H-79.638M-34.5144 215.331V261.457M-79.638 215.331H-124.762M-79.638 215.331V261.457M-124.762 215.331V261.457M597.216 261.457H642.34M597.216 261.457H552.093M597.216 261.457V307.584M642.34 261.457V307.584M552.093 261.457H506.969M552.093 261.457V307.584M506.969 261.457H461.845M506.969 261.457V307.584M461.845 261.457H416.722M461.845 261.457V307.584M416.722 261.457H371.598M416.722 261.457V307.584M371.598 261.457H326.475M371.598 261.457V307.584M326.475 261.457H281.351M326.475 261.457V307.584M281.351 261.457H236.227M281.351 261.457V307.584M236.227 261.457H191.104M236.227 261.457V307.584M191.104 261.457H145.98M191.104 261.457V307.584M145.98 261.457H100.856M145.98 261.457V307.584M100.856 261.457H55.7328M100.856 261.457V307.584M55.7328 261.457H10.6092M55.7328 261.457V307.584M10.6092 261.457H-34.5144M10.6092 261.457V307.584M-34.5144 261.457H-79.638M-34.5144 261.457V307.584M-79.638 261.457H-124.762M-79.638 261.457V307.584M-124.762 261.457V307.584M597.216 307.584H642.34M597.216 307.584H552.093M597.216 307.584V353.71M642.34 307.584V353.71M552.093 307.584H506.969M552.093 307.584V353.71M506.969 307.584H461.845M506.969 307.584V353.71M461.845 307.584H416.722M461.845 307.584V353.71M416.722 307.584H371.598M416.722 307.584V353.71M371.598 307.584H326.475M371.598 307.584V353.71M326.475 307.584H281.351M326.475 307.584V353.71M281.351 307.584H236.227M281.351 307.584V353.71M236.227 307.584H191.104M236.227 307.584V353.71M191.104 307.584H145.98M191.104 307.584V353.71M145.98 307.584H100.856M145.98 307.584V353.71M100.856 307.584H55.7328M100.856 307.584V353.71M55.7328 307.584H10.6092M55.7328 307.584V353.71M10.6092 307.584H-34.5144M10.6092 307.584V353.71M-34.5144 307.584H-79.638M-34.5144 307.584V353.71M-79.638 307.584H-124.762M-79.638 307.584V353.71M-124.762 307.584V353.71M597.216 353.71H642.34M597.216 353.71H552.093M597.216 353.71V399.837M642.34 353.71V399.837M552.093 353.71H506.969M552.093 353.71V399.837M506.969 353.71H461.845M506.969 353.71V399.837M461.845 353.71H416.722M461.845 353.71V399.837M416.722 353.71H371.598M416.722 353.71V399.837M371.598 353.71H326.475M371.598 353.71V399.837M326.475 353.71H281.351M326.475 353.71V399.837M281.351 353.71H236.227M281.351 353.71V399.837M236.227 353.71H191.104M236.227 353.71V399.837M191.104 353.71H145.98M191.104 353.71V399.837M145.98 353.71H100.856M145.98 353.71V399.837M100.856 353.71H55.7328M100.856 353.71V399.837M55.7328 353.71H10.6092M55.7328 353.71V399.837M10.6092 353.71H-34.5144M10.6092 353.71V399.837M-34.5144 353.71H-79.638M-34.5144 353.71V399.837M-79.638 353.71H-124.762M-79.638 353.71V399.837M-124.762 353.71V399.837M597.216 399.837H642.34M597.216 399.837H552.093M597.216 399.837V445.963M642.34 399.837V445.963M552.093 399.837H506.969M552.093 399.837V445.963M506.969 399.837H461.845M506.969 399.837V445.963M461.845 399.837H416.722M461.845 399.837V445.963M416.722 399.837H371.598M416.722 399.837V445.963M371.598 399.837H326.475M371.598 399.837V445.963M326.475 399.837H281.351M326.475 399.837V445.963M281.351 399.837H236.227M281.351 399.837V445.963M236.227 399.837H191.104M236.227 399.837V445.963M191.104 399.837H145.98M191.104 399.837V445.963M145.98 399.837H100.856M145.98 399.837V445.963M100.856 399.837H55.7328M100.856 399.837V445.963M55.7328 399.837H10.6092M55.7328 399.837V445.963M10.6092 399.837H-34.5144M10.6092 399.837V445.963M-34.5144 399.837H-79.638M-34.5144 399.837V445.963M-79.638 399.837H-124.762M-79.638 399.837V445.963M-124.762 399.837V445.963M597.216 445.963H642.34M597.216 445.963H552.093M597.216 445.963V492.09M642.34 445.963V492.09M552.093 445.963H506.969M552.093 445.963V492.09M506.969 445.963H461.845M506.969 445.963V492.09M461.845 445.963H416.722M461.845 445.963V492.09M416.722 445.963H371.598M416.722 445.963V492.09M371.598 445.963H326.475M371.598 445.963V492.09M326.475 445.963H281.351M326.475 445.963V492.09M281.351 445.963H236.227M281.351 445.963V492.09M236.227 445.963H191.104M236.227 445.963V492.09M191.104 445.963H145.98M191.104 445.963V492.09M145.98 445.963H100.856M145.98 445.963V492.09M100.856 445.963H55.7328M100.856 445.963V492.09M55.7328 445.963H10.6092M55.7328 445.963V492.09M10.6092 445.963H-34.5144M10.6092 445.963V492.09M-34.5144 445.963H-79.638M-34.5144 445.963V492.09M-79.638 445.963H-124.762M-79.638 445.963V492.09M-124.762 445.963V492.09M597.216 492.09H642.34M597.216 492.09H552.093M597.216 492.09V538.216M642.34 492.09V538.216M552.093 492.09H506.969M552.093 492.09V538.216M506.969 492.09H461.845M506.969 492.09V538.216M461.845 492.09H416.722M461.845 492.09V538.216M416.722 492.09H371.598M416.722 492.09V538.216M371.598 492.09H326.475M371.598 492.09V538.216M326.475 492.09H281.351M326.475 492.09V538.216M281.351 492.09H236.227M281.351 492.09V538.216M236.227 492.09H191.104M236.227 492.09V538.216M191.104 492.09H145.98M191.104 492.09V538.216M145.98 492.09H100.856M145.98 492.09V538.216M100.856 492.09H55.7328M100.856 492.09V538.216M55.7328 492.09H10.6092M55.7328 492.09V538.216M10.6092 492.09H-34.5144M10.6092 492.09V538.216M-34.5144 492.09H-79.638M-34.5144 492.09V538.216M-79.638 492.09H-124.762M-79.638 492.09V538.216M-124.762 492.09V538.216M597.216 538.216H642.34M597.216 538.216H552.093M597.216 538.216V584.342M642.34 538.216V584.342M552.093 538.216H506.969M552.093 538.216V584.342M506.969 538.216H461.845M506.969 538.216V584.342M461.845 538.216H416.722M461.845 538.216V584.342M416.722 538.216H371.598M416.722 538.216V584.342M371.598 538.216H326.475M371.598 538.216V584.342M326.475 538.216H281.351M326.475 538.216V584.342M281.351 538.216H236.227M281.351 538.216V584.342M236.227 538.216H191.104M236.227 538.216V584.342M191.104 538.216H145.98M191.104 538.216V584.342M145.98 538.216H100.856M145.98 538.216V584.342M100.856 538.216H55.7328M100.856 538.216V584.342M55.7328 538.216H10.6092M55.7328 538.216V584.342M10.6092 538.216H-34.5144M10.6092 538.216V584.342M-34.5144 538.216H-79.638M-34.5144 538.216V584.342M-79.638 538.216H-124.762M-79.638 538.216V584.342M-124.762 538.216V584.342M597.216 584.342H642.34M597.216 584.342H552.093M597.216 584.342V630.469M642.34 584.342V630.469M552.093 584.342H506.969M552.093 584.342V630.469M506.969 584.342H461.845M506.969 584.342V630.469M461.845 584.342H416.722M461.845 584.342V630.469M416.722 584.342H371.598M416.722 584.342V630.469M371.598 584.342H326.475M371.598 584.342V630.469M326.475 584.342H281.351M326.475 584.342V630.469M281.351 584.342H236.227M281.351 584.342V630.469M236.227 584.342H191.104M236.227 584.342V630.469M191.104 584.342H145.98M191.104 584.342V630.469M145.98 584.342H100.856M145.98 584.342V630.469M100.856 584.342H55.7328M100.856 584.342V630.469M55.7328 584.342H10.6092M55.7328 584.342V630.469M10.6092 584.342H-34.5144M10.6092 584.342V630.469M-34.5144 584.342H-79.638M-34.5144 584.342V630.469M-79.638 584.342H-124.762M-79.638 584.342V630.469M-124.762 584.342V630.469M597.216 630.469H642.34M597.216 630.469H552.093M597.216 630.469V676.595M642.34 630.469V676.595H597.216M552.093 630.469H506.969M552.093 630.469V676.595M506.969 630.469H461.845M506.969 630.469V676.595M461.845 630.469H416.722M461.845 630.469V676.595M416.722 630.469H371.598M416.722 630.469V676.595M371.598 630.469H326.475M371.598 630.469V676.595M326.475 630.469H281.351M326.475 630.469V676.595M281.351 630.469H236.227M281.351 630.469V676.595M236.227 630.469H191.104M236.227 630.469V676.595M191.104 630.469H145.98M191.104 630.469V676.595M145.98 630.469H100.856M145.98 630.469V676.595M100.856 630.469H55.7328M100.856 630.469V676.595M55.7328 630.469H10.6092M55.7328 630.469V676.595M10.6092 630.469H-34.5144M10.6092 630.469V676.595M-34.5144 630.469H-79.638M-34.5144 630.469V676.595M-79.638 630.469H-124.762M-79.638 630.469V676.595M-124.762 630.469V676.595H-79.638M597.216 676.595H552.093M552.093 676.595H506.969M506.969 676.595H461.845M461.845 676.595H416.722M416.722 676.595H371.598M371.598 676.595H326.475M326.475 676.595H281.351M281.351 676.595H236.227M236.227 676.595H191.104M191.104 676.595H145.98M145.98 676.595H100.856M100.856 676.595H55.7328M55.7328 676.595H10.6092M10.6092 676.595H-34.5144M-34.5144 676.595H-79.638" stroke="url(#paint6_radial_633_9135)" stroke-opacity="0.08" stroke-width="0.598779"/>
<rect x="504.5" y="53.9854" width="11" height="11" rx="5.5" fill="url(#paint7_linear_633_9135)" fill-opacity="0.1"/>
<rect x="504.5" y="53.9854" width="11" height="11" rx="5.5" stroke="white" stroke-opacity="0.1"/>
<rect x="504.5" y="53.9854" width="11" height="11" rx="5.5" stroke="url(#paint8_linear_633_9135)"/>
<path d="M508.113 61.3688C508.047 61.3022 508.047 61.1988 508.113 61.1322L511.647 57.5988C511.713 57.5322 511.817 57.5322 511.883 57.5988C511.95 57.6655 511.95 57.7688 511.883 57.8355L508.347 61.3688C508.283 61.4355 508.177 61.4355 508.113 61.3688Z" stroke="white" stroke-miterlimit="10" stroke-linecap="round" stroke-linejoin="round"/>
<path d="M508.113 57.5988C508.18 57.5322 508.283 57.5322 508.35 57.5988L511.887 61.1355C511.953 61.2022 511.953 61.3055 511.887 61.3722C511.82 61.4388 511.717 61.4388 511.65 61.3722L508.113 57.8322C508.047 57.7688 508.047 57.6622 508.113 57.5988Z" stroke="white" stroke-miterlimit="10" stroke-linecap="round" stroke-linejoin="round"/>
<rect x="524.5" y="53.9854" width="11" height="11" rx="5.5" fill="url(#paint9_linear_633_9135)" fill-opacity="0.1"/>
<rect x="524.5" y="53.9854" width="11" height="11" rx="5.5" stroke="white" stroke-opacity="0.1"/>
<rect x="524.5" y="53.9854" width="11" height="11" rx="5.5" stroke="url(#paint10_linear_633_9135)"/>
<path d="M527.333 59.485C527.333 59.3917 527.407 59.3184 527.5 59.3184H532.5C532.593 59.3184 532.667 59.3917 532.667 59.485C532.667 59.5784 532.593 59.6517 532.5 59.6517H527.5C527.407 59.6517 527.333 59.5784 527.333 59.485Z" stroke="white" stroke-miterlimit="10" stroke-linecap="round" stroke-linejoin="round"/>
<rect x="544.5" y="53.9854" width="11" height="11" rx="5.5" fill="url(#paint11_linear_633_9135)" fill-opacity="0.1"/>
<rect x="544.5" y="53.9854" width="11" height="11" rx="5.5" stroke="white" stroke-opacity="0.1"/>
<rect x="544.5" y="53.9854" width="11" height="11" rx="5.5" stroke="url(#paint12_linear_633_9135)"/>
<path d="M552.667 62.1517L547.333 56.8184" stroke="white" stroke-linecap="round" stroke-linejoin="round"/>
<path d="M552.667 60.502V62.152H551.017" stroke="white" stroke-linecap="round" stroke-linejoin="round"/>
<path d="M548.983 56.8184H547.333V58.4684" stroke="white" stroke-linecap="round" stroke-linejoin="round"/>
<rect x="50.5" y="51.9854" width="35" height="23" rx="7.5" fill="url(#paint13_linear_633_9135)" fill-opacity="0.14"/>
<rect x="50.5" y="51.9854" width="35" height="23" rx="7.5" stroke="url(#paint14_linear_633_9135)"/>
<path d="M63.9268 68.4854H62.8468L66.0508 60.0854H67.2868L70.4788 68.4854H69.3628L68.4748 66.2174H64.8148L63.9268 68.4854ZM66.6388 61.2254L65.1268 65.2694H68.1628L66.6388 61.2254ZM71.4293 68.4854V60.0854H72.4733V68.4854H71.4293Z" fill="url(#paint15_linear_633_9135)"/>
</g>
<rect x="-0.48086" y="0.48086" width="544.038" height="412.938" rx="20.0492" transform="matrix(-1 0 0 1 576.038 33.4854)" stroke="url(#paint16_linear_633_9135)" stroke-width="0.96172"/>
<line x1="33.0449" y1="423.856" x2="575.955" y2="423.856" stroke="url(#paint17_linear_633_9135)" stroke-opacity="0.14" stroke-width="2.08976" stroke-linecap="round"/>
<g filter="url(#filter0_b_633_9135)">
<circle cx="236.291" cy="424.681" r="8.35905" fill="url(#paint18_linear_633_9135)" fill-opacity="0.14"/>
<circle cx="236.291" cy="424.681" r="8.35905" stroke="url(#paint19_linear_633_9135)" stroke-width="2.08976" stroke-linecap="round"/>
</g>
<g filter="url(#filter1_b_633_9135)">
<circle cx="279.226" cy="424.681" r="8.35905" fill="url(#paint20_linear_633_9135)"/>
<circle cx="279.226" cy="424.681" r="8.35905" stroke="url(#paint21_linear_633_9135)" stroke-width="2.08976" stroke-linecap="round"/>
</g>
<g filter="url(#filter2_b_633_9135)">
<circle cx="279" cy="424.682" r="4" fill="#000003"/>
</g>
<g filter="url(#filter3_b_633_9135)">
<circle cx="320.359" cy="424.681" r="8.35905" fill="url(#paint22_linear_633_9135)" fill-opacity="0.14"/>
<circle cx="320.359" cy="424.681" r="8.35905" stroke="url(#paint23_linear_633_9135)" stroke-width="2.08976" stroke-linecap="round"/>
</g>
<g filter="url(#filter4_b_633_9135)">
<circle cx="361.491" cy="424.681" r="8.35905" fill="url(#paint24_linear_633_9135)" fill-opacity="0.14"/>
<circle cx="361.491" cy="424.681" r="8.35905" stroke="url(#paint25_linear_633_9135)" stroke-width="2.08976" stroke-linecap="round"/>
</g>
<defs>
<filter id="filter0_b_633_9135" x="128.668" y="317.058" width="215.246" height="215.246" filterUnits="userSpaceOnUse" color-interpolation-filters="sRGB">
<feFlood flood-opacity="0" result="BackgroundImageFix"/>
<feGaussianBlur in="BackgroundImageFix" stdDeviation="49.1094"/>
<feComposite in2="SourceAlpha" operator="in" result="effect1_backgroundBlur_633_9135"/>
<feBlend mode="normal" in="SourceGraphic" in2="effect1_backgroundBlur_633_9135" result="shape"/>
</filter>
<filter id="filter1_b_633_9135" x="171.604" y="317.058" width="215.246" height="215.246" filterUnits="userSpaceOnUse" color-interpolation-filters="sRGB">
<feFlood flood-opacity="0" result="BackgroundImageFix"/>
<feGaussianBlur in="BackgroundImageFix" stdDeviation="49.1094"/>
<feComposite in2="SourceAlpha" operator="in" result="effect1_backgroundBlur_633_9135"/>
<feBlend mode="normal" in="SourceGraphic" in2="effect1_backgroundBlur_633_9135" result="shape"/>
</filter>
<filter id="filter2_b_633_9135" x="176.781" y="322.463" width="204.438" height="204.438" filterUnits="userSpaceOnUse" color-interpolation-filters="sRGB">
<feFlood flood-opacity="0" result="BackgroundImageFix"/>
<feGaussianBlur in="BackgroundImageFix" stdDeviation="49.1094"/>
<feComposite in2="SourceAlpha" operator="in" result="effect1_backgroundBlur_633_9135"/>
<feBlend mode="normal" in="SourceGraphic" in2="effect1_backgroundBlur_633_9135" result="shape"/>
</filter>
<filter id="filter3_b_633_9135" x="212.736" y="317.058" width="215.246" height="215.246" filterUnits="userSpaceOnUse" color-interpolation-filters="sRGB">
<feFlood flood-opacity="0" result="BackgroundImageFix"/>
<feGaussianBlur in="BackgroundImageFix" stdDeviation="49.1094"/>
<feComposite in2="SourceAlpha" operator="in" result="effect1_backgroundBlur_633_9135"/>
<feBlend mode="normal" in="SourceGraphic" in2="effect1_backgroundBlur_633_9135" result="shape"/>
</filter>
<filter id="filter4_b_633_9135" x="253.869" y="317.058" width="215.246" height="215.246" filterUnits="userSpaceOnUse" color-interpolation-filters="sRGB">
<feFlood flood-opacity="0" result="BackgroundImageFix"/>
<feGaussianBlur in="BackgroundImageFix" stdDeviation="49.1094"/>
<feComposite in2="SourceAlpha" operator="in" result="effect1_backgroundBlur_633_9135"/>
<feBlend mode="normal" in="SourceGraphic" in2="effect1_backgroundBlur_633_9135" result="shape"/>
</filter>
<radialGradient id="paint0_radial_633_9135" cx="0" cy="0" r="1" gradientUnits="userSpaceOnUse" gradientTransform="translate(692.738 563.912) rotate(-135.197) scale(799.138 1752.7)">
<stop offset="0.0393212" stop-color="white"/>
<stop offset="0.0892563" stop-color="#F79042"/>
<stop offset="0.607232" stop-color="#F79042" stop-opacity="0"/>
</radialGradient>
<radialGradient id="paint1_radial_633_9135" cx="0" cy="0" r="1" gradientUnits="userSpaceOnUse" gradientTransform="translate(-57.9011 -210.708) rotate(71.7724) scale(359.159 518.388)">
<stop offset="0.0393212" stop-color="white" stop-opacity="0"/>
<stop offset="0.0892563" stop-color="#F9F7FB" stop-opacity="0.4"/>
<stop offset="1" stop-color="#040316"/>
</radialGradient>
<linearGradient id="paint2_linear_633_9135" x1="304.5" y1="0.782227" x2="304.5" y2="483.154" gradientUnits="userSpaceOnUse">
<stop stop-color="#64547B"/>
<stop offset="1" stop-color="#3E3250" stop-opacity="0.5"/>
</linearGradient>
<linearGradient id="paint3_linear_633_9135" x1="272.5" y1="0" x2="272.5" y2="413.9" gradientUnits="userSpaceOnUse">
<stop stop-color="white" stop-opacity="0.28"/>
<stop offset="0.808582" stop-color="white" stop-opacity="0"/>
</linearGradient>
<linearGradient id="paint4_linear_633_9135" x1="439.284" y1="214.739" x2="439.284" y2="262.048" gradientUnits="userSpaceOnUse">
<stop stop-color="white" stop-opacity="0"/>
<stop offset="1" stop-color="white"/>
</linearGradient>
<linearGradient id="paint5_linear_633_9135" x1="33.171" y1="260.866" x2="33.171" y2="308.175" gradientUnits="userSpaceOnUse">
<stop stop-color="white" stop-opacity="0"/>
<stop offset="1" stop-color="white"/>
</linearGradient>
<radialGradient id="paint6_radial_633_9135" cx="0" cy="0" r="1" gradientUnits="userSpaceOnUse" gradientTransform="translate(258.789 414.621) rotate(90) scale(261.383 384.129)">
<stop stop-color="white"/>
<stop offset="1" stop-color="white" stop-opacity="0"/>
</radialGradient>
<linearGradient id="paint7_linear_633_9135" x1="510" y1="53.4854" x2="510" y2="65.4854" gradientUnits="userSpaceOnUse">
<stop stop-color="white"/>
<stop offset="1" stop-color="white" stop-opacity="0.5"/>
</linearGradient>
<linearGradient id="paint8_linear_633_9135" x1="510" y1="53.4854" x2="510" y2="65.4854" gradientUnits="userSpaceOnUse">
<stop stop-color="white" stop-opacity="0.3"/>
<stop offset="1" stop-color="white" stop-opacity="0"/>
</linearGradient>
<linearGradient id="paint9_linear_633_9135" x1="530" y1="53.4854" x2="530" y2="65.4854" gradientUnits="userSpaceOnUse">
<stop stop-color="white"/>
<stop offset="1" stop-color="white" stop-opacity="0.5"/>
</linearGradient>
<linearGradient id="paint10_linear_633_9135" x1="530" y1="53.4854" x2="530" y2="65.4854" gradientUnits="userSpaceOnUse">
<stop stop-color="white" stop-opacity="0.3"/>
<stop offset="1" stop-color="white" stop-opacity="0"/>
</linearGradient>
<linearGradient id="paint11_linear_633_9135" x1="550" y1="53.4854" x2="550" y2="65.4854" gradientUnits="userSpaceOnUse">
<stop stop-color="white"/>
<stop offset="1" stop-color="white" stop-opacity="0.5"/>
</linearGradient>
<linearGradient id="paint12_linear_633_9135" x1="550" y1="53.4854" x2="550" y2="65.4854" gradientUnits="userSpaceOnUse">
<stop stop-color="white" stop-opacity="0.3"/>
<stop offset="1" stop-color="white" stop-opacity="0"/>
</linearGradient>
<linearGradient id="paint13_linear_633_9135" x1="68" y1="51.4854" x2="68" y2="75.4854" gradientUnits="userSpaceOnUse">
<stop stop-color="white" stop-opacity="0.28"/>
<stop offset="1" stop-color="white" stop-opacity="0"/>
</linearGradient>
<linearGradient id="paint14_linear_633_9135" x1="67.3704" y1="51.0667" x2="63.2519" y2="74.9802" gradientUnits="userSpaceOnUse">
<stop stop-color="white" stop-opacity="0.16"/>
<stop offset="1" stop-color="white" stop-opacity="0.04"/>
</linearGradient>
<linearGradient id="paint15_linear_633_9135" x1="68" y1="60.4854" x2="68" y2="68.4854" gradientUnits="userSpaceOnUse">
<stop stop-color="white" stop-opacity="0.32"/>
<stop offset="1" stop-color="white" stop-opacity="0.64"/>
</linearGradient>
<linearGradient id="paint16_linear_633_9135" x1="262.968" y1="-7.21918" x2="182.744" y2="401.68" gradientUnits="userSpaceOnUse">
<stop stop-color="white" stop-opacity="0.16"/>
<stop offset="0.829731" stop-color="white" stop-opacity="0"/>
</linearGradient>
<linearGradient id="paint17_linear_633_9135" x1="304.5" y1="424.901" x2="304.5" y2="425.901" gradientUnits="userSpaceOnUse">
<stop stop-color="white" stop-opacity="0.28"/>
<stop offset="1" stop-color="white" stop-opacity="0"/>
</linearGradient>
<linearGradient id="paint18_linear_633_9135" x1="236.291" y1="416.322" x2="236.291" y2="433.04" gradientUnits="userSpaceOnUse">
<stop stop-color="white" stop-opacity="0.28"/>
<stop offset="1" stop-color="white" stop-opacity="0"/>
</linearGradient>
<linearGradient id="paint19_linear_633_9135" x1="235.999" y1="416.031" x2="231.845" y2="432.109" gradientUnits="userSpaceOnUse">
<stop stop-color="white" stop-opacity="0.16"/>
<stop offset="1" stop-color="white" stop-opacity="0.04"/>
</linearGradient>
<linearGradient id="paint20_linear_633_9135" x1="271" y1="416.681" x2="288" y2="428.181" gradientUnits="userSpaceOnUse">
<stop stop-color="#D38244"/>
<stop offset="1" stop-color="#DA9E54"/>
</linearGradient>
<linearGradient id="paint21_linear_633_9135" x1="278.934" y1="416.031" x2="274.78" y2="432.109" gradientUnits="userSpaceOnUse">
<stop stop-color="white" stop-opacity="0.16"/>
<stop offset="1" stop-color="white" stop-opacity="0.04"/>
</linearGradient>
<linearGradient id="paint22_linear_633_9135" x1="320.359" y1="416.322" x2="320.359" y2="433.04" gradientUnits="userSpaceOnUse">
<stop stop-color="white" stop-opacity="0.28"/>
<stop offset="1" stop-color="white" stop-opacity="0"/>
</linearGradient>
<linearGradient id="paint23_linear_633_9135" x1="320.067" y1="416.031" x2="315.913" y2="432.109" gradientUnits="userSpaceOnUse">
<stop stop-color="white" stop-opacity="0.16"/>
<stop offset="1" stop-color="white" stop-opacity="0.04"/>
</linearGradient>
<linearGradient id="paint24_linear_633_9135" x1="361.491" y1="416.322" x2="361.491" y2="433.04" gradientUnits="userSpaceOnUse">
<stop stop-color="white" stop-opacity="0.28"/>
<stop offset="1" stop-color="white" stop-opacity="0"/>
</linearGradient>
<linearGradient id="paint25_linear_633_9135" x1="361.199" y1="416.031" x2="357.045" y2="432.109" gradientUnits="userSpaceOnUse">
<stop stop-color="white" stop-opacity="0.16"/>
<stop offset="1" stop-color="white" stop-opacity="0.04"/>
</linearGradient>
<clipPath id="clip0_633_9135">
<rect width="545" height="413.9" rx="20.5301" transform="matrix(-1 0 0 1 577 33.4854)" fill="white"/>
</clipPath>
</defs>
</svg>
