<svg width="29" height="24" viewBox="0 0 29 24" fill="none" xmlns="http://www.w3.org/2000/svg">
<g clip-path="url(#clip0_2019_636)">
<path d="M8.187 23.8894C13.7805 23.8894 17.4186 20.9427 17.4186 16.5099C17.4186 13.0723 15.2058 10.8878 11.2494 9.98318L8.70928 9.22534C6.48097 8.72778 5.18033 8.13031 5.48678 6.60397C5.74171 5.3342 6.5044 4.61737 8.27795 4.61737C13.9161 4.61737 16.005 6.60397 16.005 6.60397V1.82585C16.005 1.82585 13.9713 0 8.27795 0C2.91182 0 0 2.74639 0 6.99827C0 10.436 2.01789 12.4351 6.1107 13.385C6.39715 13.4563 6.54355 13.4929 6.54991 13.4948C7.17246 13.6865 8.01252 13.9397 9.07009 14.2544C11.162 14.752 11.6999 15.2801 11.6999 16.8632C11.6999 18.3107 10.1879 19.1334 8.187 19.1334C2.42291 19.1334 0 16.2331 0 16.2331V21.5268C0 21.5268 1.51517 23.8894 8.187 23.8894Z" fill="url(#paint0_linear_2019_636)"/>
<path d="M25.4877 23.53C27.4678 23.53 28.9423 22.1053 28.9423 20.1777C28.9423 18.2082 27.5099 16.8253 25.4877 16.8253C23.5076 16.8253 22.0752 18.2082 22.0752 20.1777C22.0752 22.1472 23.5076 23.53 25.4877 23.53Z" fill="#E80000"/>
</g>
<defs>
<linearGradient id="paint0_linear_2019_636" x1="870.928" y1="0" x2="870.928" y2="2388.94" gradientUnits="userSpaceOnUse">
<stop stop-color="#9D39FF"/>
<stop offset="1" stop-color="#A380FF"/>
</linearGradient>
<clipPath id="clip0_2019_636">
<rect width="28.9412" height="24" fill="white"/>
</clipPath>
</defs>
</svg>
