<svg width="26" height="26" viewBox="0 0 26 26" fill="none" xmlns="http://www.w3.org/2000/svg">
<g clip-path="url(#clip0_2019_220)">
<g clip-path="url(#clip1_2019_220)">
<path fill-rule="evenodd" clip-rule="evenodd" d="M25.9728 13C25.9728 20.1793 20.1721 26 13.0172 26C10.1269 26 7.45709 25.0498 5.30232 23.4452C5.6712 23.6528 6.05131 23.84 6.44269 24.0094C7.92493 24.6503 9.52189 24.9821 11.1368 24.9821C14.1441 24.9821 17.0389 23.84 19.2431 21.7908C21.4473 19.7414 22.8014 16.9316 23.0308 13.9231C23.0624 13.6388 23.0803 13.3544 23.0848 13.0699C23.0848 12.7066 23.0556 12.2868 23.0173 11.9031C23.0151 11.867 23.0128 11.8286 23.0106 11.7925C23.0106 11.7497 23.0083 11.7068 23.0038 11.6662L22.9926 11.6774C22.9386 11.1786 22.8824 10.795 22.8824 10.795H13.4828L12.7518 12.1672L11.0739 15.3495H18.1769C17.9138 16.1372 17.5202 16.8774 17.0141 17.5365C16.3236 18.4438 15.4351 19.1773 14.414 19.6829C13.3951 20.1883 12.2727 20.4525 11.1346 20.4502C10.2641 20.4502 9.40044 20.2922 8.58397 19.9897C7.1557 19.4662 5.92311 18.516 5.05266 17.2656C4.1822 16.0131 3.71436 14.5257 3.71436 13C3.71436 12.0227 3.90554 11.0523 4.27891 10.1495C4.65229 9.2467 5.19885 8.42517 5.88713 7.73229C6.57539 7.04167 7.39412 6.49097 8.29605 6.11858C9.19801 5.74618 10.1629 5.55209 11.1368 5.55209C12.7091 5.54983 14.2431 6.05087 15.5116 6.98299L16.4855 5.1526L17.6461 2.95209C15.7095 1.68594 13.4468 1.01337 11.1346 1.01562C9.09003 1.01562 7.09946 1.54375 5.3383 2.52327C7.49083 0.938889 10.1449 0 13.0172 0C20.1721 0 25.9728 5.82066 25.9728 13Z" fill="#FF4C00"/>
</g>
</g>
<defs>
<clipPath id="clip0_2019_220">
<rect width="26" height="26" fill="white"/>
</clipPath>
<clipPath id="clip1_2019_220">
<rect width="22.2857" height="26" fill="white" transform="translate(3.71436)"/>
</clipPath>
</defs>
</svg>
