<svg width="26" height="26" viewBox="0 0 26 26" fill="none" xmlns="http://www.w3.org/2000/svg">
<g clip-path="url(#clip0_2019_2177)">
<g filter="url(#filter0_f_2019_2177)">
<rect x="-12.5" y="-12.5" width="47.0588" height="47.0588" rx="5.88235" fill="url(#paint0_angular_2019_2177)"/>
</g>
<path d="M22.5564 12.5102C22.7762 12.9938 22.9156 13.5106 22.9727 14.0379C23.0276 14.5652 23.0002 15.0988 22.886 15.6177C22.774 16.1367 22.5796 16.6348 22.3091 17.0933C22.1316 17.3997 21.9224 17.6873 21.6815 17.952C21.4427 18.2146 21.1765 18.4522 20.887 18.6606C20.5953 18.8691 20.2847 19.0441 19.955 19.1879C19.6275 19.3297 19.2852 19.438 18.9344 19.5089C18.7695 20.0133 18.5244 20.4906 18.2074 20.9199C17.8926 21.3492 17.5101 21.7265 17.0748 22.037C16.6394 22.3497 16.1576 22.5914 15.6462 22.754C15.1348 22.9186 14.6002 22.9999 14.0613 22.9999C13.7042 23.002 13.345 22.9645 12.9942 22.8936C12.6455 22.8207 12.3032 22.7102 11.9756 22.5664C11.6481 22.4226 11.3374 22.2434 11.0479 22.0349C10.7605 21.8265 10.4943 21.5868 10.2576 21.3221C9.72928 21.4347 9.1883 21.4618 8.65366 21.4076C8.11902 21.3513 7.59495 21.2138 7.10258 20.997C6.61231 20.7823 6.15798 20.4906 5.75858 20.1342C5.35919 19.7778 5.01896 19.3609 4.75059 18.9024C4.57097 18.596 4.42304 18.273 4.31104 17.9374C4.19904 17.6019 4.12508 17.2559 4.08704 16.9037C4.04901 16.5535 4.05112 16.1992 4.08916 15.847C4.1272 15.4969 4.20538 15.1509 4.31738 14.8153C3.95814 14.4214 3.66229 13.9733 3.44252 13.4898C3.22486 13.0042 3.08328 12.4894 3.02833 11.9621C2.97128 11.4348 3.00086 10.9012 3.11286 10.3823C3.22486 9.86331 3.41927 9.36519 3.68976 8.90667C3.86727 8.60029 4.07648 8.31059 4.31527 8.04798C4.55406 7.78537 4.82244 7.54778 5.11194 7.33936C5.40145 7.13094 5.71421 6.95378 6.04175 6.81206C6.37141 6.66825 6.71375 6.56196 7.06454 6.4911C7.22937 5.98464 7.4745 5.50944 7.78936 5.0801C8.10634 4.65076 8.48883 4.27352 8.92415 3.9609C9.35947 3.65035 9.84128 3.40859 10.3527 3.24394C10.8641 3.08137 11.3987 2.998 11.9376 3.00009C12.2947 2.998 12.6539 3.03343 13.0047 3.10638C13.3555 3.17933 13.6979 3.2877 14.0254 3.43151C14.353 3.57741 14.6636 3.75456 14.9531 3.96298C15.2426 4.17348 15.5089 4.41108 15.7456 4.67577C16.2717 4.56531 16.8127 4.53821 17.3474 4.5924C17.882 4.64659 18.404 4.78623 18.8963 5.0009C19.3866 5.21766 19.8409 5.50736 20.2403 5.86376C20.6397 6.21807 20.9799 6.63282 21.2483 7.09342C21.4279 7.39772 21.5759 7.72076 21.6879 8.0584C21.7999 8.39396 21.8759 8.73993 21.9119 9.09216C21.9499 9.44438 21.9499 9.7987 21.9097 10.1509C21.8717 10.5032 21.7935 10.8491 21.6815 11.1847C22.0429 11.5786 22.3366 12.0246 22.5564 12.5102ZM15.5152 21.4076C15.9759 21.22 16.3943 20.9428 16.7472 20.5948C17.1001 20.2467 17.3812 19.834 17.5714 19.3776C17.7615 18.9233 17.8609 18.4356 17.8609 17.9437V13.296C17.8595 13.2918 17.858 13.2869 17.8566 13.2814C17.8552 13.2772 17.8531 13.273 17.8503 13.2689C17.8475 13.2647 17.844 13.2612 17.8397 13.2584C17.8355 13.2543 17.8313 13.2515 17.827 13.2501L16.1217 12.2789V17.8937C16.1217 17.9499 16.1132 18.0083 16.0985 18.0625C16.0837 18.1188 16.0625 18.1709 16.0329 18.2209C16.0034 18.2709 15.9695 18.3168 15.9273 18.3564C15.8862 18.3967 15.84 18.4318 15.7899 18.4606L11.7516 20.7594C11.7178 20.7803 11.6607 20.8094 11.6312 20.8261C11.7981 20.9658 11.9798 21.0887 12.17 21.1971C12.3623 21.3055 12.561 21.3972 12.7681 21.4722C12.9752 21.5452 13.1886 21.6014 13.4041 21.6389C13.6218 21.6765 13.8416 21.6952 14.0613 21.6952C14.56 21.6952 15.0545 21.5973 15.5152 21.4076ZM5.89805 18.2521C6.14952 18.6794 6.4813 19.0504 6.87646 19.3505C7.27375 19.6506 7.72386 19.8695 8.20566 19.9966C8.68747 20.1237 9.19041 20.1571 9.6849 20.0925C10.1794 20.0279 10.6549 19.8695 11.0881 19.6235L15.1708 17.2997L15.1813 17.2893C15.1841 17.2865 15.1863 17.2823 15.1877 17.2767C15.1905 17.2726 15.1926 17.2684 15.194 17.2642V15.3051L10.266 18.1167C10.2153 18.1459 10.1625 18.1667 10.1075 18.1834C10.0505 18.198 9.99343 18.2042 9.93426 18.2042C9.8772 18.2042 9.82015 18.198 9.76309 18.1834C9.70815 18.1667 9.6532 18.1459 9.60249 18.1167L5.56417 15.8157C5.52824 15.7949 5.47541 15.7636 5.44583 15.7449C5.40779 15.9595 5.38877 16.1763 5.38877 16.3931C5.38877 16.6098 5.40991 16.8266 5.44794 17.0412C5.48598 17.2538 5.54515 17.4643 5.61911 17.6686C5.69519 17.8728 5.78817 18.0687 5.89805 18.2563V18.2521ZM4.83723 9.5611C4.58787 9.98836 4.42727 10.4594 4.36176 10.9471C4.29625 11.4348 4.33006 11.9287 4.45897 12.406C4.58787 12.8812 4.80976 13.3251 5.11406 13.717C5.41836 14.1067 5.79662 14.4339 6.22771 14.6799L10.3083 17.0058C10.3125 17.0072 10.3175 17.0086 10.3231 17.01H10.3379C10.3435 17.01 10.3484 17.0086 10.3527 17.0058C10.3569 17.0044 10.3611 17.0023 10.3654 16.9996L12.077 16.0242L7.14907 13.2188C7.10046 13.1897 7.05397 13.1542 7.01171 13.1146C6.97076 13.0741 6.93525 13.0286 6.90605 12.9792C6.87858 12.9291 6.85533 12.877 6.84054 12.8208C6.82575 12.7666 6.81729 12.7103 6.81941 12.6519V7.91876C6.61231 7.99379 6.41156 8.0855 6.22137 8.19387C6.03119 8.30434 5.85156 8.42939 5.68251 8.56903C5.51557 8.70867 5.35919 8.8629 5.2176 9.02963C5.07602 9.19428 4.95134 9.37352 4.84146 9.5611H4.83723ZM18.8541 12.7791C18.9048 12.8083 18.9513 12.8416 18.9935 12.8833C19.0337 12.9229 19.0696 12.9687 19.0992 13.0188C19.1267 13.0688 19.1499 13.123 19.1647 13.1772C19.1774 13.2334 19.1858 13.2897 19.1837 13.3481V18.0812C19.8621 17.8353 20.4538 17.4039 20.8912 16.837C21.3307 16.2701 21.5949 15.5927 21.6562 14.8841C21.7174 14.1755 21.5737 13.4627 21.2399 12.8312C20.906 12.1997 20.3967 11.6745 19.7712 11.3202L15.6906 8.9942C15.6864 8.99281 15.6814 8.99142 15.6758 8.99003H15.661C15.6568 8.99142 15.6519 8.99281 15.6462 8.9942C15.642 8.99559 15.6378 8.99767 15.6336 9.00045L13.9303 9.97168L18.8583 12.7791H18.8541ZM20.5552 10.2572H20.5531V10.2593L20.5552 10.2572ZM20.5531 10.2551C20.6756 9.55485 20.5932 8.83372 20.3143 8.1772C20.0375 7.52068 19.5747 6.95587 18.983 6.54737C18.3913 6.14095 17.6939 5.90752 16.9733 5.87626C16.2506 5.84708 15.5363 6.02007 14.9108 6.37438L10.8303 8.69825C10.826 8.70103 10.8225 8.7045 10.8197 8.70867L10.8112 8.72117C10.8098 8.72534 10.8084 8.7302 10.807 8.73576C10.8056 8.73993 10.8049 8.74479 10.8049 8.75035V10.6928L15.7329 7.88541C15.7836 7.85624 15.8385 7.83539 15.8935 7.81872C15.9505 7.80413 16.0076 7.79788 16.0646 7.79788C16.1238 7.79788 16.1809 7.80413 16.2379 7.81872C16.2929 7.83539 16.3457 7.85624 16.3964 7.88541L20.4347 10.1864C20.4707 10.2072 20.5235 10.2364 20.5531 10.2551ZM9.87509 8.10425C9.87509 8.04798 9.88354 7.99171 9.89834 7.93544C9.91313 7.88125 9.93426 7.82706 9.96384 7.77704C9.99343 7.7291 10.0272 7.68325 10.0695 7.64157C10.1097 7.60197 10.1561 7.56653 10.2069 7.53944L14.2452 5.24058C14.2832 5.21766 14.336 5.18848 14.3656 5.17389C13.812 4.71745 13.1358 4.42567 12.4194 4.33605C11.703 4.24434 10.9761 4.35689 10.3231 4.6591C9.668 4.9613 9.11434 5.44275 8.72762 6.043C8.34091 6.64533 8.13593 7.34144 8.13593 8.05423V12.702C8.13734 12.7075 8.13875 12.7124 8.14016 12.7166C8.14156 12.7207 8.14368 12.7249 8.14649 12.7291C8.14931 12.7332 8.15283 12.7374 8.15706 12.7416C8.15988 12.7443 8.1641 12.7471 8.16974 12.7499L9.87509 13.7211V8.10425ZM10.8007 14.2463L12.9963 15.4969L15.1919 14.2463V11.7474L12.9984 10.4969L10.8028 11.7474L10.8007 14.2463Z" fill="white"/>
</g>
<defs>
<filter id="filter0_f_2019_2177" x="-14.7059" y="-14.7059" width="51.4704" height="51.4706" filterUnits="userSpaceOnUse" color-interpolation-filters="sRGB">
<feFlood flood-opacity="0" result="BackgroundImageFix"/>
<feBlend mode="normal" in="SourceGraphic" in2="BackgroundImageFix" result="shape"/>
<feGaussianBlur stdDeviation="1.10294" result="effect1_foregroundBlur_2019_2177"/>
</filter>
<radialGradient id="paint0_angular_2019_2177" cx="0" cy="0" r="1" gradientUnits="userSpaceOnUse" gradientTransform="translate(11.0294 11.0294) rotate(90) scale(23.5294)">
<stop offset="0.115" stop-color="#7B5BC8"/>
<stop offset="0.39" stop-color="#73A8E8"/>
<stop offset="0.625" stop-color="#D74399"/>
<stop offset="0.875" stop-color="#F2948A"/>
</radialGradient>
<clipPath id="clip0_2019_2177">
<rect width="26" height="26" rx="13" fill="white"/>
</clipPath>
</defs>
</svg>
