<svg width="27" height="24" viewBox="0 0 27 24" fill="none" xmlns="http://www.w3.org/2000/svg">
<g clip-path="url(#clip0_2019_253)">
<path d="M24.2425 0H19.394V4.79438H24.2425V0Z" fill="black"/>
<path d="M26.6668 0H21.8184V4.79438H26.6668V0Z" fill="#F7D046"/>
<path d="M4.84849 0H0V4.79438H4.84849V0Z" fill="black"/>
<path d="M4.84849 4.79443H0V9.58882H4.84849V4.79443Z" fill="black"/>
<path d="M4.84849 9.58875H0V14.3831H4.84849V9.58875Z" fill="black"/>
<path d="M4.84849 14.3832H0V19.1776H4.84849V14.3832Z" fill="black"/>
<path d="M4.84849 19.1775H0V23.9719H4.84849V19.1775Z" fill="black"/>
<path d="M7.2728 0H2.42432V4.79438H7.2728V0Z" fill="#F7D046"/>
<path d="M26.6668 4.79443H21.8184V9.58882H26.6668V4.79443Z" fill="#F2A73B"/>
<path d="M7.2728 4.79443H2.42432V9.58882H7.2728V4.79443Z" fill="#F2A73B"/>
<path d="M19.3939 4.79443H14.5454V9.58882H19.3939V4.79443Z" fill="black"/>
<path d="M21.8182 4.79443H16.9697V9.58882H21.8182V4.79443Z" fill="#F2A73B"/>
<path d="M12.1214 4.79443H7.27295V9.58882H12.1214V4.79443Z" fill="#F2A73B"/>
<path d="M16.9696 9.58875H12.1211V14.3831H16.9696V9.58875Z" fill="#EE792F"/>
<path d="M21.8182 9.58875H16.9697V14.3831H21.8182V9.58875Z" fill="#EE792F"/>
<path d="M12.1214 9.58875H7.27295V14.3831H12.1214V9.58875Z" fill="#EE792F"/>
<path d="M14.5453 14.3832H9.69678V19.1776H14.5453V14.3832Z" fill="black"/>
<path d="M16.9696 14.3832H12.1211V19.1776H16.9696V14.3832Z" fill="#EB5829"/>
<path d="M26.6668 9.58875H21.8184V14.3831H26.6668V9.58875Z" fill="#EE792F"/>
<path d="M7.2728 9.58875H2.42432V14.3831H7.2728V9.58875Z" fill="#EE792F"/>
<path d="M24.2425 14.3832H19.394V19.1776H24.2425V14.3832Z" fill="black"/>
<path d="M26.6668 14.3832H21.8184V19.1776H26.6668V14.3832Z" fill="#EB5829"/>
<path d="M24.2425 19.1775H19.394V23.9719H24.2425V19.1775Z" fill="black"/>
<path d="M7.2728 14.3832H2.42432V19.1776H7.2728V14.3832Z" fill="#EB5829"/>
<path d="M26.6668 19.1775H21.8184V23.9719H26.6668V19.1775Z" fill="#EA3326"/>
<path d="M7.2728 19.1775H2.42432V23.9719H7.2728V19.1775Z" fill="#EA3326"/>
</g>
<defs>
<clipPath id="clip0_2019_253">
<rect width="26.6667" height="24" fill="white"/>
</clipPath>
</defs>
</svg>
