<svg width="111" height="14" viewBox="0 0 111 14" fill="none" xmlns="http://www.w3.org/2000/svg">
<g clip-path="url(#clip0_382_10881)">
<circle cx="1" cy="1" r="1" transform="matrix(4.37114e-08 1 1 -4.37114e-08 100 0)" fill="url(#paint0_linear_382_10881)"/>
<circle cx="1" cy="1" r="1" transform="matrix(4.37114e-08 1 1 -4.37114e-08 103 0)" fill="url(#paint1_linear_382_10881)"/>
<circle cx="1" cy="1" r="1" transform="matrix(4.37114e-08 1 1 -4.37114e-08 103 3)" fill="url(#paint2_linear_382_10881)"/>
<circle cx="1" cy="1" r="1" transform="matrix(4.37114e-08 1 1 -4.37114e-08 106 3)" fill="url(#paint3_linear_382_10881)"/>
<circle cx="1" cy="1" r="1" transform="matrix(4.37114e-08 1 1 -4.37114e-08 106 6)" fill="url(#paint4_linear_382_10881)"/>
<circle cx="1" cy="1" r="1" transform="matrix(4.37114e-08 1 1 -4.37114e-08 109 6)" fill="url(#paint5_linear_382_10881)"/>
<circle cx="1" cy="1" r="1" transform="matrix(4.37114e-08 1 1 -4.37114e-08 103 9)" fill="url(#paint6_linear_382_10881)"/>
<circle cx="1" cy="1" r="1" transform="matrix(4.37114e-08 1 1 -4.37114e-08 103 12)" fill="url(#paint7_linear_382_10881)"/>
<circle cx="1" cy="1" r="1" transform="matrix(4.37114e-08 1 1 -4.37114e-08 100 12)" fill="url(#paint8_linear_382_10881)"/>
<circle cx="1" cy="1" r="1" transform="matrix(4.37114e-08 1 1 -4.37114e-08 106 9)" fill="url(#paint9_linear_382_10881)"/>
</g>
<g clip-path="url(#clip1_382_10881)">
<circle cx="1" cy="1" r="1" transform="matrix(4.37114e-08 1 1 -4.37114e-08 80 0)" fill="url(#paint10_linear_382_10881)"/>
<circle cx="1" cy="1" r="1" transform="matrix(4.37114e-08 1 1 -4.37114e-08 83 0)" fill="url(#paint11_linear_382_10881)"/>
<circle cx="1" cy="1" r="1" transform="matrix(4.37114e-08 1 1 -4.37114e-08 83 3)" fill="url(#paint12_linear_382_10881)"/>
<circle cx="1" cy="1" r="1" transform="matrix(4.37114e-08 1 1 -4.37114e-08 86 3)" fill="url(#paint13_linear_382_10881)"/>
<circle cx="1" cy="1" r="1" transform="matrix(4.37114e-08 1 1 -4.37114e-08 86 6)" fill="url(#paint14_linear_382_10881)"/>
<circle cx="1" cy="1" r="1" transform="matrix(4.37114e-08 1 1 -4.37114e-08 89 6)" fill="url(#paint15_linear_382_10881)"/>
<circle cx="1" cy="1" r="1" transform="matrix(4.37114e-08 1 1 -4.37114e-08 83 9)" fill="url(#paint16_linear_382_10881)"/>
<circle cx="1" cy="1" r="1" transform="matrix(4.37114e-08 1 1 -4.37114e-08 83 12)" fill="url(#paint17_linear_382_10881)"/>
<circle cx="1" cy="1" r="1" transform="matrix(4.37114e-08 1 1 -4.37114e-08 80 12)" fill="url(#paint18_linear_382_10881)"/>
<circle cx="1" cy="1" r="1" transform="matrix(4.37114e-08 1 1 -4.37114e-08 86 9)" fill="url(#paint19_linear_382_10881)"/>
</g>
<g clip-path="url(#clip2_382_10881)">
<circle cx="1" cy="1" r="1" transform="matrix(4.37114e-08 1 1 -4.37114e-08 60 0)" fill="url(#paint20_linear_382_10881)"/>
<circle cx="1" cy="1" r="1" transform="matrix(4.37114e-08 1 1 -4.37114e-08 63 0)" fill="url(#paint21_linear_382_10881)"/>
<circle cx="1" cy="1" r="1" transform="matrix(4.37114e-08 1 1 -4.37114e-08 63 3)" fill="url(#paint22_linear_382_10881)"/>
<circle cx="1" cy="1" r="1" transform="matrix(4.37114e-08 1 1 -4.37114e-08 66 3)" fill="url(#paint23_linear_382_10881)"/>
<circle cx="1" cy="1" r="1" transform="matrix(4.37114e-08 1 1 -4.37114e-08 66 6)" fill="url(#paint24_linear_382_10881)"/>
<circle cx="1" cy="1" r="1" transform="matrix(4.37114e-08 1 1 -4.37114e-08 69 6)" fill="url(#paint25_linear_382_10881)"/>
<circle cx="1" cy="1" r="1" transform="matrix(4.37114e-08 1 1 -4.37114e-08 63 9)" fill="url(#paint26_linear_382_10881)"/>
<circle cx="1" cy="1" r="1" transform="matrix(4.37114e-08 1 1 -4.37114e-08 63 12)" fill="url(#paint27_linear_382_10881)"/>
<circle cx="1" cy="1" r="1" transform="matrix(4.37114e-08 1 1 -4.37114e-08 60 12)" fill="url(#paint28_linear_382_10881)"/>
<circle cx="1" cy="1" r="1" transform="matrix(4.37114e-08 1 1 -4.37114e-08 66 9)" fill="url(#paint29_linear_382_10881)"/>
</g>
<g clip-path="url(#clip3_382_10881)">
<circle cx="1" cy="1" r="1" transform="matrix(4.37114e-08 1 1 -4.37114e-08 40 0)" fill="url(#paint30_linear_382_10881)"/>
<circle cx="1" cy="1" r="1" transform="matrix(4.37114e-08 1 1 -4.37114e-08 43 0)" fill="url(#paint31_linear_382_10881)"/>
<circle cx="1" cy="1" r="1" transform="matrix(4.37114e-08 1 1 -4.37114e-08 43 3)" fill="url(#paint32_linear_382_10881)"/>
<circle cx="1" cy="1" r="1" transform="matrix(4.37114e-08 1 1 -4.37114e-08 46 3)" fill="url(#paint33_linear_382_10881)"/>
<circle cx="1" cy="1" r="1" transform="matrix(4.37114e-08 1 1 -4.37114e-08 46 6)" fill="url(#paint34_linear_382_10881)"/>
<circle cx="1" cy="1" r="1" transform="matrix(4.37114e-08 1 1 -4.37114e-08 49 6)" fill="url(#paint35_linear_382_10881)"/>
<circle cx="1" cy="1" r="1" transform="matrix(4.37114e-08 1 1 -4.37114e-08 43 9)" fill="url(#paint36_linear_382_10881)"/>
<circle cx="1" cy="1" r="1" transform="matrix(4.37114e-08 1 1 -4.37114e-08 43 12)" fill="url(#paint37_linear_382_10881)"/>
<circle cx="1" cy="1" r="1" transform="matrix(4.37114e-08 1 1 -4.37114e-08 40 12)" fill="url(#paint38_linear_382_10881)"/>
<circle cx="1" cy="1" r="1" transform="matrix(4.37114e-08 1 1 -4.37114e-08 46 9)" fill="url(#paint39_linear_382_10881)"/>
</g>
<g clip-path="url(#clip4_382_10881)">
<circle cx="1" cy="1" r="1" transform="matrix(4.37114e-08 1 1 -4.37114e-08 20 0)" fill="url(#paint40_linear_382_10881)"/>
<circle cx="1" cy="1" r="1" transform="matrix(4.37114e-08 1 1 -4.37114e-08 23 0)" fill="url(#paint41_linear_382_10881)"/>
<circle cx="1" cy="1" r="1" transform="matrix(4.37114e-08 1 1 -4.37114e-08 23 3)" fill="url(#paint42_linear_382_10881)"/>
<circle cx="1" cy="1" r="1" transform="matrix(4.37114e-08 1 1 -4.37114e-08 26 3)" fill="url(#paint43_linear_382_10881)"/>
<circle cx="1" cy="1" r="1" transform="matrix(4.37114e-08 1 1 -4.37114e-08 26 6)" fill="url(#paint44_linear_382_10881)"/>
<circle cx="1" cy="1" r="1" transform="matrix(4.37114e-08 1 1 -4.37114e-08 29 6)" fill="url(#paint45_linear_382_10881)"/>
<circle cx="1" cy="1" r="1" transform="matrix(4.37114e-08 1 1 -4.37114e-08 23 9)" fill="url(#paint46_linear_382_10881)"/>
<circle cx="1" cy="1" r="1" transform="matrix(4.37114e-08 1 1 -4.37114e-08 23 12)" fill="url(#paint47_linear_382_10881)"/>
<circle cx="1" cy="1" r="1" transform="matrix(4.37114e-08 1 1 -4.37114e-08 20 12)" fill="url(#paint48_linear_382_10881)"/>
<circle cx="1" cy="1" r="1" transform="matrix(4.37114e-08 1 1 -4.37114e-08 26 9)" fill="url(#paint49_linear_382_10881)"/>
</g>
<g clip-path="url(#clip5_382_10881)">
<circle cx="1" cy="1" r="1" transform="matrix(4.37114e-08 1 1 -4.37114e-08 0 0)" fill="url(#paint50_linear_382_10881)"/>
<circle cx="1" cy="1" r="1" transform="matrix(4.37114e-08 1 1 -4.37114e-08 3 0)" fill="url(#paint51_linear_382_10881)"/>
<circle cx="1" cy="1" r="1" transform="matrix(4.37114e-08 1 1 -4.37114e-08 3 3)" fill="url(#paint52_linear_382_10881)"/>
<circle cx="1" cy="1" r="1" transform="matrix(4.37114e-08 1 1 -4.37114e-08 6 3)" fill="url(#paint53_linear_382_10881)"/>
<circle cx="1" cy="1" r="1" transform="matrix(4.37114e-08 1 1 -4.37114e-08 6 6)" fill="url(#paint54_linear_382_10881)"/>
<circle cx="1" cy="1" r="1" transform="matrix(4.37114e-08 1 1 -4.37114e-08 9 6)" fill="url(#paint55_linear_382_10881)"/>
<circle cx="1" cy="1" r="1" transform="matrix(4.37114e-08 1 1 -4.37114e-08 3 9)" fill="url(#paint56_linear_382_10881)"/>
<circle cx="1" cy="1" r="1" transform="matrix(4.37114e-08 1 1 -4.37114e-08 3 12)" fill="url(#paint57_linear_382_10881)"/>
<circle cx="1" cy="1" r="1" transform="matrix(4.37114e-08 1 1 -4.37114e-08 0 12)" fill="url(#paint58_linear_382_10881)"/>
<circle cx="1" cy="1" r="1" transform="matrix(4.37114e-08 1 1 -4.37114e-08 6 9)" fill="url(#paint59_linear_382_10881)"/>
</g>
<defs>
<linearGradient id="paint0_linear_382_10881" x1="1" y1="0" x2="1" y2="2" gradientUnits="userSpaceOnUse">
<stop stop-color="#D9D9D9"/>
<stop offset="1" stop-color="#FF9E50" stop-opacity="0"/>
</linearGradient>
<linearGradient id="paint1_linear_382_10881" x1="1" y1="0" x2="1" y2="2" gradientUnits="userSpaceOnUse">
<stop stop-color="#D9D9D9"/>
<stop offset="1" stop-color="#FF9E50" stop-opacity="0"/>
</linearGradient>
<linearGradient id="paint2_linear_382_10881" x1="1" y1="0" x2="1" y2="2" gradientUnits="userSpaceOnUse">
<stop stop-color="#D9D9D9"/>
<stop offset="1" stop-color="#FF9E50" stop-opacity="0"/>
</linearGradient>
<linearGradient id="paint3_linear_382_10881" x1="1" y1="0" x2="1" y2="2" gradientUnits="userSpaceOnUse">
<stop stop-color="#D9D9D9"/>
<stop offset="1" stop-color="#FF9E50" stop-opacity="0"/>
</linearGradient>
<linearGradient id="paint4_linear_382_10881" x1="1" y1="0" x2="1" y2="2" gradientUnits="userSpaceOnUse">
<stop stop-color="#D9D9D9"/>
<stop offset="1" stop-color="#FF9E50" stop-opacity="0"/>
</linearGradient>
<linearGradient id="paint5_linear_382_10881" x1="1" y1="0" x2="1" y2="2" gradientUnits="userSpaceOnUse">
<stop stop-color="#D9D9D9"/>
<stop offset="1" stop-color="#FF9E50" stop-opacity="0"/>
</linearGradient>
<linearGradient id="paint6_linear_382_10881" x1="1" y1="0" x2="1" y2="2" gradientUnits="userSpaceOnUse">
<stop stop-color="#D9D9D9"/>
<stop offset="1" stop-color="#FF9E50" stop-opacity="0"/>
</linearGradient>
<linearGradient id="paint7_linear_382_10881" x1="1" y1="0" x2="1" y2="2" gradientUnits="userSpaceOnUse">
<stop stop-color="#D9D9D9"/>
<stop offset="1" stop-color="#FF9E50" stop-opacity="0"/>
</linearGradient>
<linearGradient id="paint8_linear_382_10881" x1="1" y1="0" x2="1" y2="2" gradientUnits="userSpaceOnUse">
<stop stop-color="#D9D9D9"/>
<stop offset="1" stop-color="#FF9E50" stop-opacity="0"/>
</linearGradient>
<linearGradient id="paint9_linear_382_10881" x1="1" y1="0" x2="1" y2="2" gradientUnits="userSpaceOnUse">
<stop stop-color="#D9D9D9"/>
<stop offset="1" stop-color="#FF9E50" stop-opacity="0"/>
</linearGradient>
<linearGradient id="paint10_linear_382_10881" x1="1" y1="0" x2="1" y2="2" gradientUnits="userSpaceOnUse">
<stop stop-color="#D9D9D9"/>
<stop offset="1" stop-color="#FF9E50"/>
</linearGradient>
<linearGradient id="paint11_linear_382_10881" x1="1" y1="0" x2="1" y2="2" gradientUnits="userSpaceOnUse">
<stop stop-color="#D9D9D9"/>
<stop offset="1" stop-color="#FF9E50"/>
</linearGradient>
<linearGradient id="paint12_linear_382_10881" x1="1" y1="0" x2="1" y2="2" gradientUnits="userSpaceOnUse">
<stop stop-color="#D9D9D9"/>
<stop offset="1" stop-color="#FF9E50"/>
</linearGradient>
<linearGradient id="paint13_linear_382_10881" x1="1" y1="0" x2="1" y2="2" gradientUnits="userSpaceOnUse">
<stop stop-color="#D9D9D9"/>
<stop offset="1" stop-color="#FF9E50"/>
</linearGradient>
<linearGradient id="paint14_linear_382_10881" x1="1" y1="0" x2="1" y2="2" gradientUnits="userSpaceOnUse">
<stop stop-color="#D9D9D9"/>
<stop offset="1" stop-color="#FF9E50"/>
</linearGradient>
<linearGradient id="paint15_linear_382_10881" x1="1" y1="0" x2="1" y2="2" gradientUnits="userSpaceOnUse">
<stop stop-color="#D9D9D9"/>
<stop offset="1" stop-color="#FF9E50"/>
</linearGradient>
<linearGradient id="paint16_linear_382_10881" x1="1" y1="0" x2="1" y2="2" gradientUnits="userSpaceOnUse">
<stop stop-color="#D9D9D9"/>
<stop offset="1" stop-color="#FF9E50"/>
</linearGradient>
<linearGradient id="paint17_linear_382_10881" x1="1" y1="0" x2="1" y2="2" gradientUnits="userSpaceOnUse">
<stop stop-color="#D9D9D9"/>
<stop offset="1" stop-color="#FF9E50"/>
</linearGradient>
<linearGradient id="paint18_linear_382_10881" x1="1" y1="0" x2="1" y2="2" gradientUnits="userSpaceOnUse">
<stop stop-color="#D9D9D9"/>
<stop offset="1" stop-color="#FF9E50"/>
</linearGradient>
<linearGradient id="paint19_linear_382_10881" x1="1" y1="0" x2="1" y2="2" gradientUnits="userSpaceOnUse">
<stop stop-color="#D9D9D9"/>
<stop offset="1" stop-color="#FF9E50"/>
</linearGradient>
<linearGradient id="paint20_linear_382_10881" x1="1" y1="0" x2="1" y2="2" gradientUnits="userSpaceOnUse">
<stop stop-color="#D9D9D9"/>
<stop offset="1" stop-color="#FF4C00"/>
</linearGradient>
<linearGradient id="paint21_linear_382_10881" x1="1" y1="0" x2="1" y2="2" gradientUnits="userSpaceOnUse">
<stop stop-color="#D9D9D9"/>
<stop offset="1" stop-color="#FF4C00"/>
</linearGradient>
<linearGradient id="paint22_linear_382_10881" x1="1" y1="0" x2="1" y2="2" gradientUnits="userSpaceOnUse">
<stop stop-color="#D9D9D9"/>
<stop offset="1" stop-color="#FF4C00"/>
</linearGradient>
<linearGradient id="paint23_linear_382_10881" x1="1" y1="0" x2="1" y2="2" gradientUnits="userSpaceOnUse">
<stop stop-color="#D9D9D9"/>
<stop offset="1" stop-color="#FF4C00"/>
</linearGradient>
<linearGradient id="paint24_linear_382_10881" x1="1" y1="0" x2="1" y2="2" gradientUnits="userSpaceOnUse">
<stop stop-color="#D9D9D9"/>
<stop offset="1" stop-color="#FF4C00"/>
</linearGradient>
<linearGradient id="paint25_linear_382_10881" x1="1" y1="0" x2="1" y2="2" gradientUnits="userSpaceOnUse">
<stop stop-color="#D9D9D9"/>
<stop offset="1" stop-color="#FF4C00"/>
</linearGradient>
<linearGradient id="paint26_linear_382_10881" x1="1" y1="0" x2="1" y2="2" gradientUnits="userSpaceOnUse">
<stop stop-color="#D9D9D9"/>
<stop offset="1" stop-color="#FF4C00"/>
</linearGradient>
<linearGradient id="paint27_linear_382_10881" x1="1" y1="0" x2="1" y2="2" gradientUnits="userSpaceOnUse">
<stop stop-color="#D9D9D9"/>
<stop offset="1" stop-color="#FF4C00"/>
</linearGradient>
<linearGradient id="paint28_linear_382_10881" x1="1" y1="0" x2="1" y2="2" gradientUnits="userSpaceOnUse">
<stop stop-color="#D9D9D9"/>
<stop offset="1" stop-color="#FF4C00"/>
</linearGradient>
<linearGradient id="paint29_linear_382_10881" x1="1" y1="0" x2="1" y2="2" gradientUnits="userSpaceOnUse">
<stop stop-color="#D9D9D9"/>
<stop offset="1" stop-color="#FF4C00"/>
</linearGradient>
<linearGradient id="paint30_linear_382_10881" x1="1" y1="0" x2="1" y2="2" gradientUnits="userSpaceOnUse">
<stop stop-color="#D9D9D9"/>
<stop offset="1" stop-color="#FF4C00"/>
</linearGradient>
<linearGradient id="paint31_linear_382_10881" x1="1" y1="0" x2="1" y2="2" gradientUnits="userSpaceOnUse">
<stop stop-color="#D9D9D9"/>
<stop offset="1" stop-color="#FF4C00"/>
</linearGradient>
<linearGradient id="paint32_linear_382_10881" x1="1" y1="0" x2="1" y2="2" gradientUnits="userSpaceOnUse">
<stop stop-color="#D9D9D9"/>
<stop offset="1" stop-color="#FF4C00"/>
</linearGradient>
<linearGradient id="paint33_linear_382_10881" x1="1" y1="0" x2="1" y2="2" gradientUnits="userSpaceOnUse">
<stop stop-color="#D9D9D9"/>
<stop offset="1" stop-color="#FF4C00"/>
</linearGradient>
<linearGradient id="paint34_linear_382_10881" x1="1" y1="0" x2="1" y2="2" gradientUnits="userSpaceOnUse">
<stop stop-color="#D9D9D9"/>
<stop offset="1" stop-color="#FF4C00"/>
</linearGradient>
<linearGradient id="paint35_linear_382_10881" x1="1" y1="0" x2="1" y2="2" gradientUnits="userSpaceOnUse">
<stop stop-color="#D9D9D9"/>
<stop offset="1" stop-color="#FF4C00"/>
</linearGradient>
<linearGradient id="paint36_linear_382_10881" x1="1" y1="0" x2="1" y2="2" gradientUnits="userSpaceOnUse">
<stop stop-color="#D9D9D9"/>
<stop offset="1" stop-color="#FF4C00"/>
</linearGradient>
<linearGradient id="paint37_linear_382_10881" x1="1" y1="0" x2="1" y2="2" gradientUnits="userSpaceOnUse">
<stop stop-color="#D9D9D9"/>
<stop offset="1" stop-color="#FF4C00"/>
</linearGradient>
<linearGradient id="paint38_linear_382_10881" x1="1" y1="0" x2="1" y2="2" gradientUnits="userSpaceOnUse">
<stop stop-color="#D9D9D9"/>
<stop offset="1" stop-color="#FF4C00"/>
</linearGradient>
<linearGradient id="paint39_linear_382_10881" x1="1" y1="0" x2="1" y2="2" gradientUnits="userSpaceOnUse">
<stop stop-color="#D9D9D9"/>
<stop offset="1" stop-color="#FF4C00"/>
</linearGradient>
<linearGradient id="paint40_linear_382_10881" x1="1" y1="0" x2="1" y2="2" gradientUnits="userSpaceOnUse">
<stop stop-color="#D9D9D9"/>
<stop offset="1" stop-color="#FF4C00"/>
</linearGradient>
<linearGradient id="paint41_linear_382_10881" x1="1" y1="0" x2="1" y2="2" gradientUnits="userSpaceOnUse">
<stop stop-color="#D9D9D9"/>
<stop offset="1" stop-color="#FF4C00"/>
</linearGradient>
<linearGradient id="paint42_linear_382_10881" x1="1" y1="0" x2="1" y2="2" gradientUnits="userSpaceOnUse">
<stop stop-color="#D9D9D9"/>
<stop offset="1" stop-color="#FF4C00"/>
</linearGradient>
<linearGradient id="paint43_linear_382_10881" x1="1" y1="0" x2="1" y2="2" gradientUnits="userSpaceOnUse">
<stop stop-color="#D9D9D9"/>
<stop offset="1" stop-color="#FF4C00"/>
</linearGradient>
<linearGradient id="paint44_linear_382_10881" x1="1" y1="0" x2="1" y2="2" gradientUnits="userSpaceOnUse">
<stop stop-color="#D9D9D9"/>
<stop offset="1" stop-color="#FF4C00"/>
</linearGradient>
<linearGradient id="paint45_linear_382_10881" x1="1" y1="0" x2="1" y2="2" gradientUnits="userSpaceOnUse">
<stop stop-color="#D9D9D9"/>
<stop offset="1" stop-color="#FF4C00"/>
</linearGradient>
<linearGradient id="paint46_linear_382_10881" x1="1" y1="0" x2="1" y2="2" gradientUnits="userSpaceOnUse">
<stop stop-color="#D9D9D9"/>
<stop offset="1" stop-color="#FF4C00"/>
</linearGradient>
<linearGradient id="paint47_linear_382_10881" x1="1" y1="0" x2="1" y2="2" gradientUnits="userSpaceOnUse">
<stop stop-color="#D9D9D9"/>
<stop offset="1" stop-color="#FF4C00"/>
</linearGradient>
<linearGradient id="paint48_linear_382_10881" x1="1" y1="0" x2="1" y2="2" gradientUnits="userSpaceOnUse">
<stop stop-color="#D9D9D9"/>
<stop offset="1" stop-color="#FF4C00"/>
</linearGradient>
<linearGradient id="paint49_linear_382_10881" x1="1" y1="0" x2="1" y2="2" gradientUnits="userSpaceOnUse">
<stop stop-color="#D9D9D9"/>
<stop offset="1" stop-color="#FF4C00"/>
</linearGradient>
<linearGradient id="paint50_linear_382_10881" x1="1" y1="0" x2="1" y2="2" gradientUnits="userSpaceOnUse">
<stop stop-color="#D9D9D9"/>
<stop offset="1" stop-color="#FF4C00"/>
</linearGradient>
<linearGradient id="paint51_linear_382_10881" x1="1" y1="0" x2="1" y2="2" gradientUnits="userSpaceOnUse">
<stop stop-color="#D9D9D9"/>
<stop offset="1" stop-color="#FF4C00"/>
</linearGradient>
<linearGradient id="paint52_linear_382_10881" x1="1" y1="0" x2="1" y2="2" gradientUnits="userSpaceOnUse">
<stop stop-color="#D9D9D9"/>
<stop offset="1" stop-color="#FF4C00"/>
</linearGradient>
<linearGradient id="paint53_linear_382_10881" x1="1" y1="0" x2="1" y2="2" gradientUnits="userSpaceOnUse">
<stop stop-color="#D9D9D9"/>
<stop offset="1" stop-color="#FF4C00"/>
</linearGradient>
<linearGradient id="paint54_linear_382_10881" x1="1" y1="0" x2="1" y2="2" gradientUnits="userSpaceOnUse">
<stop stop-color="#D9D9D9"/>
<stop offset="1" stop-color="#FF4C00"/>
</linearGradient>
<linearGradient id="paint55_linear_382_10881" x1="1" y1="0" x2="1" y2="2" gradientUnits="userSpaceOnUse">
<stop stop-color="#D9D9D9"/>
<stop offset="1" stop-color="#FF4C00"/>
</linearGradient>
<linearGradient id="paint56_linear_382_10881" x1="1" y1="0" x2="1" y2="2" gradientUnits="userSpaceOnUse">
<stop stop-color="#D9D9D9"/>
<stop offset="1" stop-color="#FF4C00"/>
</linearGradient>
<linearGradient id="paint57_linear_382_10881" x1="1" y1="0" x2="1" y2="2" gradientUnits="userSpaceOnUse">
<stop stop-color="#D9D9D9"/>
<stop offset="1" stop-color="#FF4C00"/>
</linearGradient>
<linearGradient id="paint58_linear_382_10881" x1="1" y1="0" x2="1" y2="2" gradientUnits="userSpaceOnUse">
<stop stop-color="#D9D9D9"/>
<stop offset="1" stop-color="#FF4C00"/>
</linearGradient>
<linearGradient id="paint59_linear_382_10881" x1="1" y1="0" x2="1" y2="2" gradientUnits="userSpaceOnUse">
<stop stop-color="#D9D9D9"/>
<stop offset="1" stop-color="#FF4C00"/>
</linearGradient>
<clipPath id="clip0_382_10881">
<rect width="14" height="11" fill="white" transform="matrix(4.37114e-08 1 1 -4.37114e-08 100 0)"/>
</clipPath>
<clipPath id="clip1_382_10881">
<rect width="14" height="11" fill="white" transform="matrix(4.37114e-08 1 1 -4.37114e-08 80 0)"/>
</clipPath>
<clipPath id="clip2_382_10881">
<rect width="14" height="11" fill="white" transform="matrix(4.37114e-08 1 1 -4.37114e-08 60 0)"/>
</clipPath>
<clipPath id="clip3_382_10881">
<rect width="14" height="11" fill="white" transform="matrix(4.37114e-08 1 1 -4.37114e-08 40 0)"/>
</clipPath>
<clipPath id="clip4_382_10881">
<rect width="14" height="11" fill="white" transform="matrix(4.37114e-08 1 1 -4.37114e-08 20 0)"/>
</clipPath>
<clipPath id="clip5_382_10881">
<rect width="14" height="11" fill="white" transform="matrix(4.37114e-08 1 1 -4.37114e-08 0 0)"/>
</clipPath>
</defs>
</svg>
