<svg width="111" height="14" viewBox="0 0 111 14" fill="none" xmlns="http://www.w3.org/2000/svg">
<g clip-path="url(#clip0_382_10948)">
<circle cx="10" cy="1" r="1" transform="rotate(90 10 1)" fill="url(#paint0_linear_382_10948)"/>
<circle cx="7" cy="1" r="1" transform="rotate(90 7 1)" fill="url(#paint1_linear_382_10948)"/>
<circle cx="7" cy="4" r="1" transform="rotate(90 7 4)" fill="url(#paint2_linear_382_10948)"/>
<circle cx="4" cy="4" r="1" transform="rotate(90 4 4)" fill="url(#paint3_linear_382_10948)"/>
<circle cx="4" cy="7" r="1" transform="rotate(90 4 7)" fill="url(#paint4_linear_382_10948)"/>
<circle cx="1" cy="7" r="1" transform="rotate(90 1 7)" fill="url(#paint5_linear_382_10948)"/>
<circle cx="7" cy="10" r="1" transform="rotate(90 7 10)" fill="url(#paint6_linear_382_10948)"/>
<circle cx="7" cy="13" r="1" transform="rotate(90 7 13)" fill="url(#paint7_linear_382_10948)"/>
<circle cx="10" cy="13" r="1" transform="rotate(90 10 13)" fill="url(#paint8_linear_382_10948)"/>
<circle cx="4" cy="10" r="1" transform="rotate(90 4 10)" fill="url(#paint9_linear_382_10948)"/>
</g>
<g clip-path="url(#clip1_382_10948)">
<circle cx="30" cy="1" r="1" transform="rotate(90 30 1)" fill="url(#paint10_linear_382_10948)"/>
<circle cx="27" cy="1" r="1" transform="rotate(90 27 1)" fill="url(#paint11_linear_382_10948)"/>
<circle cx="27" cy="4" r="1" transform="rotate(90 27 4)" fill="url(#paint12_linear_382_10948)"/>
<circle cx="24" cy="4" r="1" transform="rotate(90 24 4)" fill="url(#paint13_linear_382_10948)"/>
<circle cx="24" cy="7" r="1" transform="rotate(90 24 7)" fill="url(#paint14_linear_382_10948)"/>
<circle cx="21" cy="7" r="1" transform="rotate(90 21 7)" fill="url(#paint15_linear_382_10948)"/>
<circle cx="27" cy="10" r="1" transform="rotate(90 27 10)" fill="url(#paint16_linear_382_10948)"/>
<circle cx="27" cy="13" r="1" transform="rotate(90 27 13)" fill="url(#paint17_linear_382_10948)"/>
<circle cx="30" cy="13" r="1" transform="rotate(90 30 13)" fill="url(#paint18_linear_382_10948)"/>
<circle cx="24" cy="10" r="1" transform="rotate(90 24 10)" fill="url(#paint19_linear_382_10948)"/>
</g>
<g clip-path="url(#clip2_382_10948)">
<circle cx="50" cy="1" r="1" transform="rotate(90 50 1)" fill="url(#paint20_linear_382_10948)"/>
<circle cx="47" cy="1" r="1" transform="rotate(90 47 1)" fill="url(#paint21_linear_382_10948)"/>
<circle cx="47" cy="4" r="1" transform="rotate(90 47 4)" fill="url(#paint22_linear_382_10948)"/>
<circle cx="44" cy="4" r="1" transform="rotate(90 44 4)" fill="url(#paint23_linear_382_10948)"/>
<circle cx="44" cy="7" r="1" transform="rotate(90 44 7)" fill="url(#paint24_linear_382_10948)"/>
<circle cx="41" cy="7" r="1" transform="rotate(90 41 7)" fill="url(#paint25_linear_382_10948)"/>
<circle cx="47" cy="10" r="1" transform="rotate(90 47 10)" fill="url(#paint26_linear_382_10948)"/>
<circle cx="47" cy="13" r="1" transform="rotate(90 47 13)" fill="url(#paint27_linear_382_10948)"/>
<circle cx="50" cy="13" r="1" transform="rotate(90 50 13)" fill="url(#paint28_linear_382_10948)"/>
<circle cx="44" cy="10" r="1" transform="rotate(90 44 10)" fill="url(#paint29_linear_382_10948)"/>
</g>
<g clip-path="url(#clip3_382_10948)">
<circle cx="70" cy="1" r="1" transform="rotate(90 70 1)" fill="url(#paint30_linear_382_10948)"/>
<circle cx="67" cy="1" r="1" transform="rotate(90 67 1)" fill="url(#paint31_linear_382_10948)"/>
<circle cx="67" cy="4" r="1" transform="rotate(90 67 4)" fill="url(#paint32_linear_382_10948)"/>
<circle cx="64" cy="4" r="1" transform="rotate(90 64 4)" fill="url(#paint33_linear_382_10948)"/>
<circle cx="64" cy="7" r="1" transform="rotate(90 64 7)" fill="url(#paint34_linear_382_10948)"/>
<circle cx="61" cy="7" r="1" transform="rotate(90 61 7)" fill="url(#paint35_linear_382_10948)"/>
<circle cx="67" cy="10" r="1" transform="rotate(90 67 10)" fill="url(#paint36_linear_382_10948)"/>
<circle cx="67" cy="13" r="1" transform="rotate(90 67 13)" fill="url(#paint37_linear_382_10948)"/>
<circle cx="70" cy="13" r="1" transform="rotate(90 70 13)" fill="url(#paint38_linear_382_10948)"/>
<circle cx="64" cy="10" r="1" transform="rotate(90 64 10)" fill="url(#paint39_linear_382_10948)"/>
</g>
<g clip-path="url(#clip4_382_10948)">
<circle cx="90" cy="1" r="1" transform="rotate(90 90 1)" fill="url(#paint40_linear_382_10948)"/>
<circle cx="87" cy="1" r="1" transform="rotate(90 87 1)" fill="url(#paint41_linear_382_10948)"/>
<circle cx="87" cy="4" r="1" transform="rotate(90 87 4)" fill="url(#paint42_linear_382_10948)"/>
<circle cx="84" cy="4" r="1" transform="rotate(90 84 4)" fill="url(#paint43_linear_382_10948)"/>
<circle cx="84" cy="7" r="1" transform="rotate(90 84 7)" fill="url(#paint44_linear_382_10948)"/>
<circle cx="81" cy="7" r="1" transform="rotate(90 81 7)" fill="url(#paint45_linear_382_10948)"/>
<circle cx="87" cy="10" r="1" transform="rotate(90 87 10)" fill="url(#paint46_linear_382_10948)"/>
<circle cx="87" cy="13" r="1" transform="rotate(90 87 13)" fill="url(#paint47_linear_382_10948)"/>
<circle cx="90" cy="13" r="1" transform="rotate(90 90 13)" fill="url(#paint48_linear_382_10948)"/>
<circle cx="84" cy="10" r="1" transform="rotate(90 84 10)" fill="url(#paint49_linear_382_10948)"/>
</g>
<g clip-path="url(#clip5_382_10948)">
<circle cx="110" cy="1" r="1" transform="rotate(90 110 1)" fill="url(#paint50_linear_382_10948)"/>
<circle cx="107" cy="1" r="1" transform="rotate(90 107 1)" fill="url(#paint51_linear_382_10948)"/>
<circle cx="107" cy="4" r="1" transform="rotate(90 107 4)" fill="url(#paint52_linear_382_10948)"/>
<circle cx="104" cy="4" r="1" transform="rotate(90 104 4)" fill="url(#paint53_linear_382_10948)"/>
<circle cx="104" cy="7" r="1" transform="rotate(90 104 7)" fill="url(#paint54_linear_382_10948)"/>
<circle cx="101" cy="7" r="1" transform="rotate(90 101 7)" fill="url(#paint55_linear_382_10948)"/>
<circle cx="107" cy="10" r="1" transform="rotate(90 107 10)" fill="url(#paint56_linear_382_10948)"/>
<circle cx="107" cy="13" r="1" transform="rotate(90 107 13)" fill="url(#paint57_linear_382_10948)"/>
<circle cx="110" cy="13" r="1" transform="rotate(90 110 13)" fill="url(#paint58_linear_382_10948)"/>
<circle cx="104" cy="10" r="1" transform="rotate(90 104 10)" fill="url(#paint59_linear_382_10948)"/>
</g>
<defs>
<linearGradient id="paint0_linear_382_10948" x1="10" y1="-5.96046e-08" x2="10" y2="2" gradientUnits="userSpaceOnUse">
<stop stop-color="#D9D9D9"/>
<stop offset="1" stop-color="#FF9E50" stop-opacity="0"/>
</linearGradient>
<linearGradient id="paint1_linear_382_10948" x1="7" y1="-5.96046e-08" x2="7" y2="2" gradientUnits="userSpaceOnUse">
<stop stop-color="#D9D9D9"/>
<stop offset="1" stop-color="#FF9E50" stop-opacity="0"/>
</linearGradient>
<linearGradient id="paint2_linear_382_10948" x1="7" y1="3" x2="7" y2="5" gradientUnits="userSpaceOnUse">
<stop stop-color="#D9D9D9"/>
<stop offset="1" stop-color="#FF9E50" stop-opacity="0"/>
</linearGradient>
<linearGradient id="paint3_linear_382_10948" x1="4" y1="3" x2="4" y2="5" gradientUnits="userSpaceOnUse">
<stop stop-color="#D9D9D9"/>
<stop offset="1" stop-color="#FF9E50" stop-opacity="0"/>
</linearGradient>
<linearGradient id="paint4_linear_382_10948" x1="4" y1="6" x2="4" y2="8" gradientUnits="userSpaceOnUse">
<stop stop-color="#D9D9D9"/>
<stop offset="1" stop-color="#FF9E50" stop-opacity="0"/>
</linearGradient>
<linearGradient id="paint5_linear_382_10948" x1="1" y1="6" x2="1" y2="8" gradientUnits="userSpaceOnUse">
<stop stop-color="#D9D9D9"/>
<stop offset="1" stop-color="#FF9E50" stop-opacity="0"/>
</linearGradient>
<linearGradient id="paint6_linear_382_10948" x1="7" y1="9" x2="7" y2="11" gradientUnits="userSpaceOnUse">
<stop stop-color="#D9D9D9"/>
<stop offset="1" stop-color="#FF9E50" stop-opacity="0"/>
</linearGradient>
<linearGradient id="paint7_linear_382_10948" x1="7" y1="12" x2="7" y2="14" gradientUnits="userSpaceOnUse">
<stop stop-color="#D9D9D9"/>
<stop offset="1" stop-color="#FF9E50" stop-opacity="0"/>
</linearGradient>
<linearGradient id="paint8_linear_382_10948" x1="10" y1="12" x2="10" y2="14" gradientUnits="userSpaceOnUse">
<stop stop-color="#D9D9D9"/>
<stop offset="1" stop-color="#FF9E50" stop-opacity="0"/>
</linearGradient>
<linearGradient id="paint9_linear_382_10948" x1="4" y1="9" x2="4" y2="11" gradientUnits="userSpaceOnUse">
<stop stop-color="#D9D9D9"/>
<stop offset="1" stop-color="#FF9E50" stop-opacity="0"/>
</linearGradient>
<linearGradient id="paint10_linear_382_10948" x1="30" y1="-5.96046e-08" x2="30" y2="2" gradientUnits="userSpaceOnUse">
<stop stop-color="#D9D9D9"/>
<stop offset="1" stop-color="#FF9E50"/>
</linearGradient>
<linearGradient id="paint11_linear_382_10948" x1="27" y1="-5.96046e-08" x2="27" y2="2" gradientUnits="userSpaceOnUse">
<stop stop-color="#D9D9D9"/>
<stop offset="1" stop-color="#FF9E50"/>
</linearGradient>
<linearGradient id="paint12_linear_382_10948" x1="27" y1="3" x2="27" y2="5" gradientUnits="userSpaceOnUse">
<stop stop-color="#D9D9D9"/>
<stop offset="1" stop-color="#FF9E50"/>
</linearGradient>
<linearGradient id="paint13_linear_382_10948" x1="24" y1="3" x2="24" y2="5" gradientUnits="userSpaceOnUse">
<stop stop-color="#D9D9D9"/>
<stop offset="1" stop-color="#FF9E50"/>
</linearGradient>
<linearGradient id="paint14_linear_382_10948" x1="24" y1="6" x2="24" y2="8" gradientUnits="userSpaceOnUse">
<stop stop-color="#D9D9D9"/>
<stop offset="1" stop-color="#FF9E50"/>
</linearGradient>
<linearGradient id="paint15_linear_382_10948" x1="21" y1="6" x2="21" y2="8" gradientUnits="userSpaceOnUse">
<stop stop-color="#D9D9D9"/>
<stop offset="1" stop-color="#FF9E50"/>
</linearGradient>
<linearGradient id="paint16_linear_382_10948" x1="27" y1="9" x2="27" y2="11" gradientUnits="userSpaceOnUse">
<stop stop-color="#D9D9D9"/>
<stop offset="1" stop-color="#FF9E50"/>
</linearGradient>
<linearGradient id="paint17_linear_382_10948" x1="27" y1="12" x2="27" y2="14" gradientUnits="userSpaceOnUse">
<stop stop-color="#D9D9D9"/>
<stop offset="1" stop-color="#FF9E50"/>
</linearGradient>
<linearGradient id="paint18_linear_382_10948" x1="30" y1="12" x2="30" y2="14" gradientUnits="userSpaceOnUse">
<stop stop-color="#D9D9D9"/>
<stop offset="1" stop-color="#FF9E50"/>
</linearGradient>
<linearGradient id="paint19_linear_382_10948" x1="24" y1="9" x2="24" y2="11" gradientUnits="userSpaceOnUse">
<stop stop-color="#D9D9D9"/>
<stop offset="1" stop-color="#FF9E50"/>
</linearGradient>
<linearGradient id="paint20_linear_382_10948" x1="50" y1="-5.96046e-08" x2="50" y2="2" gradientUnits="userSpaceOnUse">
<stop stop-color="#D9D9D9"/>
<stop offset="1" stop-color="#FF4C00"/>
</linearGradient>
<linearGradient id="paint21_linear_382_10948" x1="47" y1="-5.96046e-08" x2="47" y2="2" gradientUnits="userSpaceOnUse">
<stop stop-color="#D9D9D9"/>
<stop offset="1" stop-color="#FF4C00"/>
</linearGradient>
<linearGradient id="paint22_linear_382_10948" x1="47" y1="3" x2="47" y2="5" gradientUnits="userSpaceOnUse">
<stop stop-color="#D9D9D9"/>
<stop offset="1" stop-color="#FF4C00"/>
</linearGradient>
<linearGradient id="paint23_linear_382_10948" x1="44" y1="3" x2="44" y2="5" gradientUnits="userSpaceOnUse">
<stop stop-color="#D9D9D9"/>
<stop offset="1" stop-color="#FF4C00"/>
</linearGradient>
<linearGradient id="paint24_linear_382_10948" x1="44" y1="6" x2="44" y2="8" gradientUnits="userSpaceOnUse">
<stop stop-color="#D9D9D9"/>
<stop offset="1" stop-color="#FF4C00"/>
</linearGradient>
<linearGradient id="paint25_linear_382_10948" x1="41" y1="6" x2="41" y2="8" gradientUnits="userSpaceOnUse">
<stop stop-color="#D9D9D9"/>
<stop offset="1" stop-color="#FF4C00"/>
</linearGradient>
<linearGradient id="paint26_linear_382_10948" x1="47" y1="9" x2="47" y2="11" gradientUnits="userSpaceOnUse">
<stop stop-color="#D9D9D9"/>
<stop offset="1" stop-color="#FF4C00"/>
</linearGradient>
<linearGradient id="paint27_linear_382_10948" x1="47" y1="12" x2="47" y2="14" gradientUnits="userSpaceOnUse">
<stop stop-color="#D9D9D9"/>
<stop offset="1" stop-color="#FF4C00"/>
</linearGradient>
<linearGradient id="paint28_linear_382_10948" x1="50" y1="12" x2="50" y2="14" gradientUnits="userSpaceOnUse">
<stop stop-color="#D9D9D9"/>
<stop offset="1" stop-color="#FF4C00"/>
</linearGradient>
<linearGradient id="paint29_linear_382_10948" x1="44" y1="9" x2="44" y2="11" gradientUnits="userSpaceOnUse">
<stop stop-color="#D9D9D9"/>
<stop offset="1" stop-color="#FF4C00"/>
</linearGradient>
<linearGradient id="paint30_linear_382_10948" x1="70" y1="-5.96046e-08" x2="70" y2="2" gradientUnits="userSpaceOnUse">
<stop stop-color="#D9D9D9"/>
<stop offset="1" stop-color="#FF4C00"/>
</linearGradient>
<linearGradient id="paint31_linear_382_10948" x1="67" y1="-5.96046e-08" x2="67" y2="2" gradientUnits="userSpaceOnUse">
<stop stop-color="#D9D9D9"/>
<stop offset="1" stop-color="#FF4C00"/>
</linearGradient>
<linearGradient id="paint32_linear_382_10948" x1="67" y1="3" x2="67" y2="5" gradientUnits="userSpaceOnUse">
<stop stop-color="#D9D9D9"/>
<stop offset="1" stop-color="#FF4C00"/>
</linearGradient>
<linearGradient id="paint33_linear_382_10948" x1="64" y1="3" x2="64" y2="5" gradientUnits="userSpaceOnUse">
<stop stop-color="#D9D9D9"/>
<stop offset="1" stop-color="#FF4C00"/>
</linearGradient>
<linearGradient id="paint34_linear_382_10948" x1="64" y1="6" x2="64" y2="8" gradientUnits="userSpaceOnUse">
<stop stop-color="#D9D9D9"/>
<stop offset="1" stop-color="#FF4C00"/>
</linearGradient>
<linearGradient id="paint35_linear_382_10948" x1="61" y1="6" x2="61" y2="8" gradientUnits="userSpaceOnUse">
<stop stop-color="#D9D9D9"/>
<stop offset="1" stop-color="#FF4C00"/>
</linearGradient>
<linearGradient id="paint36_linear_382_10948" x1="67" y1="9" x2="67" y2="11" gradientUnits="userSpaceOnUse">
<stop stop-color="#D9D9D9"/>
<stop offset="1" stop-color="#FF4C00"/>
</linearGradient>
<linearGradient id="paint37_linear_382_10948" x1="67" y1="12" x2="67" y2="14" gradientUnits="userSpaceOnUse">
<stop stop-color="#D9D9D9"/>
<stop offset="1" stop-color="#FF4C00"/>
</linearGradient>
<linearGradient id="paint38_linear_382_10948" x1="70" y1="12" x2="70" y2="14" gradientUnits="userSpaceOnUse">
<stop stop-color="#D9D9D9"/>
<stop offset="1" stop-color="#FF4C00"/>
</linearGradient>
<linearGradient id="paint39_linear_382_10948" x1="64" y1="9" x2="64" y2="11" gradientUnits="userSpaceOnUse">
<stop stop-color="#D9D9D9"/>
<stop offset="1" stop-color="#FF4C00"/>
</linearGradient>
<linearGradient id="paint40_linear_382_10948" x1="90" y1="-5.96046e-08" x2="90" y2="2" gradientUnits="userSpaceOnUse">
<stop stop-color="#D9D9D9"/>
<stop offset="1" stop-color="#FF4C00"/>
</linearGradient>
<linearGradient id="paint41_linear_382_10948" x1="87" y1="-5.96046e-08" x2="87" y2="2" gradientUnits="userSpaceOnUse">
<stop stop-color="#D9D9D9"/>
<stop offset="1" stop-color="#FF4C00"/>
</linearGradient>
<linearGradient id="paint42_linear_382_10948" x1="87" y1="3" x2="87" y2="5" gradientUnits="userSpaceOnUse">
<stop stop-color="#D9D9D9"/>
<stop offset="1" stop-color="#FF4C00"/>
</linearGradient>
<linearGradient id="paint43_linear_382_10948" x1="84" y1="3" x2="84" y2="5" gradientUnits="userSpaceOnUse">
<stop stop-color="#D9D9D9"/>
<stop offset="1" stop-color="#FF4C00"/>
</linearGradient>
<linearGradient id="paint44_linear_382_10948" x1="84" y1="6" x2="84" y2="8" gradientUnits="userSpaceOnUse">
<stop stop-color="#D9D9D9"/>
<stop offset="1" stop-color="#FF4C00"/>
</linearGradient>
<linearGradient id="paint45_linear_382_10948" x1="81" y1="6" x2="81" y2="8" gradientUnits="userSpaceOnUse">
<stop stop-color="#D9D9D9"/>
<stop offset="1" stop-color="#FF4C00"/>
</linearGradient>
<linearGradient id="paint46_linear_382_10948" x1="87" y1="9" x2="87" y2="11" gradientUnits="userSpaceOnUse">
<stop stop-color="#D9D9D9"/>
<stop offset="1" stop-color="#FF4C00"/>
</linearGradient>
<linearGradient id="paint47_linear_382_10948" x1="87" y1="12" x2="87" y2="14" gradientUnits="userSpaceOnUse">
<stop stop-color="#D9D9D9"/>
<stop offset="1" stop-color="#FF4C00"/>
</linearGradient>
<linearGradient id="paint48_linear_382_10948" x1="90" y1="12" x2="90" y2="14" gradientUnits="userSpaceOnUse">
<stop stop-color="#D9D9D9"/>
<stop offset="1" stop-color="#FF4C00"/>
</linearGradient>
<linearGradient id="paint49_linear_382_10948" x1="84" y1="9" x2="84" y2="11" gradientUnits="userSpaceOnUse">
<stop stop-color="#D9D9D9"/>
<stop offset="1" stop-color="#FF4C00"/>
</linearGradient>
<linearGradient id="paint50_linear_382_10948" x1="110" y1="-5.96046e-08" x2="110" y2="2" gradientUnits="userSpaceOnUse">
<stop stop-color="#D9D9D9"/>
<stop offset="1" stop-color="#FF4C00"/>
</linearGradient>
<linearGradient id="paint51_linear_382_10948" x1="107" y1="-5.96046e-08" x2="107" y2="2" gradientUnits="userSpaceOnUse">
<stop stop-color="#D9D9D9"/>
<stop offset="1" stop-color="#FF4C00"/>
</linearGradient>
<linearGradient id="paint52_linear_382_10948" x1="107" y1="3" x2="107" y2="5" gradientUnits="userSpaceOnUse">
<stop stop-color="#D9D9D9"/>
<stop offset="1" stop-color="#FF4C00"/>
</linearGradient>
<linearGradient id="paint53_linear_382_10948" x1="104" y1="3" x2="104" y2="5" gradientUnits="userSpaceOnUse">
<stop stop-color="#D9D9D9"/>
<stop offset="1" stop-color="#FF4C00"/>
</linearGradient>
<linearGradient id="paint54_linear_382_10948" x1="104" y1="6" x2="104" y2="8" gradientUnits="userSpaceOnUse">
<stop stop-color="#D9D9D9"/>
<stop offset="1" stop-color="#FF4C00"/>
</linearGradient>
<linearGradient id="paint55_linear_382_10948" x1="101" y1="6" x2="101" y2="8" gradientUnits="userSpaceOnUse">
<stop stop-color="#D9D9D9"/>
<stop offset="1" stop-color="#FF4C00"/>
</linearGradient>
<linearGradient id="paint56_linear_382_10948" x1="107" y1="9" x2="107" y2="11" gradientUnits="userSpaceOnUse">
<stop stop-color="#D9D9D9"/>
<stop offset="1" stop-color="#FF4C00"/>
</linearGradient>
<linearGradient id="paint57_linear_382_10948" x1="107" y1="12" x2="107" y2="14" gradientUnits="userSpaceOnUse">
<stop stop-color="#D9D9D9"/>
<stop offset="1" stop-color="#FF4C00"/>
</linearGradient>
<linearGradient id="paint58_linear_382_10948" x1="110" y1="12" x2="110" y2="14" gradientUnits="userSpaceOnUse">
<stop stop-color="#D9D9D9"/>
<stop offset="1" stop-color="#FF4C00"/>
</linearGradient>
<linearGradient id="paint59_linear_382_10948" x1="104" y1="9" x2="104" y2="11" gradientUnits="userSpaceOnUse">
<stop stop-color="#D9D9D9"/>
<stop offset="1" stop-color="#FF4C00"/>
</linearGradient>
<clipPath id="clip0_382_10948">
<rect width="14" height="11" fill="white" transform="translate(11) rotate(90)"/>
</clipPath>
<clipPath id="clip1_382_10948">
<rect width="14" height="11" fill="white" transform="translate(31) rotate(90)"/>
</clipPath>
<clipPath id="clip2_382_10948">
<rect width="14" height="11" fill="white" transform="translate(51) rotate(90)"/>
</clipPath>
<clipPath id="clip3_382_10948">
<rect width="14" height="11" fill="white" transform="translate(71) rotate(90)"/>
</clipPath>
<clipPath id="clip4_382_10948">
<rect width="14" height="11" fill="white" transform="translate(91) rotate(90)"/>
</clipPath>
<clipPath id="clip5_382_10948">
<rect width="14" height="11" fill="white" transform="translate(111) rotate(90)"/>
</clipPath>
</defs>
</svg>
