<svg width="20" height="20" viewBox="0 0 20 20" fill="none" xmlns="http://www.w3.org/2000/svg">
<path fill-rule="evenodd" clip-rule="evenodd" d="M12.228 4.00333C10.7898 3.66599 9.29312 3.66599 7.85497 4.00333C5.98493 4.44198 4.52479 5.90213 4.08614 7.77217C3.74879 9.21031 3.74879 10.707 4.08614 12.1452C4.15333 12.4316 4.24449 12.7084 4.35743 12.9735L5.22556 12.1053C6.77482 10.5561 9.28668 10.5561 10.8359 12.1053L11.65 12.9194L11.6643 12.9052C12.8176 11.7519 14.621 11.6853 15.8504 12.6501C15.9075 12.4855 15.9565 12.3171 15.9968 12.1451C16.3341 10.707 16.3341 9.21031 15.9968 7.77217C15.5581 5.90213 14.098 4.44198 12.228 4.00333ZM16.7899 14.2026C17.0876 13.6729 17.3142 13.0971 17.4572 12.4877C17.8473 10.8242 17.8473 9.09307 17.4572 7.42962C16.8884 5.00494 14.9952 3.11172 12.5705 2.54297C10.9071 2.15278 9.17587 2.15278 7.51242 2.54297C5.08774 3.11172 3.19453 5.00493 2.62578 7.42961C2.23558 9.09307 2.23558 10.8243 2.62578 12.4877C3.19453 14.9124 5.08774 16.8056 7.51242 17.3743C9.17587 17.7645 10.9071 17.7645 12.5705 17.3743C14.2675 16.9763 15.7041 15.9295 16.6086 14.5058C16.6947 14.4184 16.7555 14.314 16.7899 14.2026ZM15.1252 14.0165C14.4898 13.3237 13.3972 13.2935 12.7249 13.9658L12.7107 13.9801L13.9086 15.178C14.3764 14.8612 14.7876 14.4683 15.1252 14.0165ZM12.4624 15.8531L9.77528 13.166C8.8118 12.2025 7.2497 12.2025 6.28622 13.166L5.17032 14.2819C5.8566 15.0822 6.78922 15.664 7.85498 15.914C9.29312 16.2513 10.7898 16.2513 12.228 15.914C12.3068 15.8955 12.385 15.8752 12.4624 15.8531Z" fill="#EEB139"/>
<path d="M11.9176 6.12773C12.0127 5.73564 12.5703 5.73564 12.6654 6.12773L12.927 7.20659C12.961 7.34658 13.0703 7.45588 13.2102 7.48982L14.2891 7.75143C14.6812 7.8465 14.6812 8.40415 14.2891 8.49922L13.2102 8.76083C13.0703 8.79478 12.961 8.90407 12.927 9.04406L12.6654 10.1229C12.5703 10.515 12.0127 10.515 11.9176 10.1229L11.656 9.04406C11.6221 8.90407 11.5128 8.79478 11.3728 8.76083L10.2939 8.49922C10.2694 8.49328 10.2464 8.48553 10.225 8.4762C9.90335 8.33625 9.92632 7.84056 10.2939 7.75143L11.3728 7.48982C11.5128 7.45588 11.6221 7.34658 11.656 7.20659L11.9176 6.12773Z" fill="#EEB139"/>
<path d="M18.3332 17.5003C18.3332 17.9606 17.9601 18.3337 17.4998 18.3337C17.0396 18.3337 16.6665 17.9606 16.6665 17.5003C16.6665 17.0401 17.0396 16.667 17.4998 16.667C17.9601 16.667 18.3332 17.0401 18.3332 17.5003Z" fill="#EEB139"/>
<path d="M18.3332 2.50033C18.3332 2.96056 17.9601 3.33366 17.4998 3.33366C17.0396 3.33366 16.6665 2.96056 16.6665 2.50033C16.6665 2.04009 17.0396 1.66699 17.4998 1.66699C17.9601 1.66699 18.3332 2.04009 18.3332 2.50033Z" fill="#EEB139"/>
<path d="M3.33317 17.5003C3.33317 17.9606 2.96007 18.3337 2.49984 18.3337C2.0396 18.3337 1.6665 17.9606 1.6665 17.5003C1.6665 17.0401 2.0396 16.667 2.49984 16.667C2.96007 16.667 3.33317 17.0401 3.33317 17.5003Z" fill="#EEB139"/>
<path d="M3.33317 2.50033C3.33317 2.96056 2.96007 3.33366 2.49984 3.33366C2.0396 3.33366 1.6665 2.96056 1.6665 2.50033C1.6665 2.04009 2.0396 1.66699 2.49984 1.66699C2.96007 1.66699 3.33317 2.04009 3.33317 2.50033Z" fill="#EEB139"/>
</svg>
