<svg width="20" height="20" viewBox="0 0 20 20" fill="none" xmlns="http://www.w3.org/2000/svg">
<path fill-rule="evenodd" clip-rule="evenodd" d="M10.0002 3.08366C8.37988 3.08366 7.08635 4.44187 7.0835 6.0828L7.0835 9.50618C7.0835 11.1399 8.38176 12.4863 10.0002 12.4863H10.2859C11.9043 12.4863 13.2025 11.1399 13.2025 9.50618V6.08822C13.2025 4.44481 11.9079 3.08366 10.2859 3.08366H10.0002ZM8.63112 9.7V5.89366C8.723 5.18352 9.31759 4.64941 10.0002 4.64941H10.2859C10.9684 4.64941 11.563 5.18352 11.6549 5.89366V9.7C11.5625 10.3926 10.972 10.9206 10.2859 10.9206H10.0002C9.3141 10.9206 8.72359 10.3926 8.63112 9.7Z" fill="#C9509B"/>
<path d="M5.52393 10.2435C5.08679 10.2435 4.75012 10.6039 4.75012 11.0264C4.75012 12.3042 5.46661 13.428 6.41894 14.2391C7.189 14.8951 8.14643 15.049 9.09742 15.202C9.19608 15.2178 9.29467 15.2337 9.39298 15.2501V16.5179H7.04774C6.6106 16.5179 6.27393 16.8783 6.27393 17.3008C6.27393 17.7232 6.6106 18.0837 7.04774 18.0837H13.2858C13.723 18.0837 14.0596 17.7232 14.0596 17.3008C14.0596 16.8783 13.723 16.5179 13.2858 16.5179H10.9406V15.2501C11.0389 15.2337 11.1375 15.2178 11.2362 15.202C12.1871 15.049 13.1446 14.8951 13.9146 14.2391C14.867 13.428 15.5835 12.3042 15.5835 11.0264C15.5835 10.6039 15.2468 10.2435 14.8096 10.2435C14.3725 10.2435 14.0358 10.6039 14.0358 11.0264C14.0358 11.8269 13.5435 12.6028 12.7695 13.1981C12.0446 13.7556 11.1319 13.753 10.3215 13.7506C10.2695 13.7505 10.2179 13.7503 10.1668 13.7503C10.1157 13.7503 10.0641 13.7505 10.0121 13.7506C9.20168 13.753 8.28899 13.7556 7.56408 13.1981C6.79009 12.6028 6.29774 11.8269 6.29774 11.0264C6.29774 10.6039 5.96108 10.2435 5.52393 10.2435Z" fill="#C9509B"/>
<path d="M16.2589 1.98779C16.3627 1.56006 16.971 1.56006 17.0747 1.98779L17.3601 3.16473C17.3971 3.31745 17.5164 3.43668 17.6691 3.47371L18.846 3.7591C19.2738 3.86282 19.2738 4.47116 18.846 4.57488L17.6691 4.86027C17.5164 4.8973 17.3971 5.01654 17.3601 5.16925L17.0747 6.34619C16.971 6.77393 16.3627 6.77393 16.2589 6.34619L15.9736 5.16925C15.9365 5.01654 15.8173 4.8973 15.6646 4.86027L14.4876 4.57488C14.4609 4.5684 14.4358 4.55994 14.4124 4.54977C14.0616 4.39709 14.0866 3.85634 14.4876 3.7591L15.6646 3.47371C15.8173 3.43668 15.9365 3.31745 15.9736 3.16473L16.2589 1.98779Z" fill="#C9509B"/>
<path d="M2.57692 14.4343C2.66336 14.0779 3.1703 14.0779 3.25674 14.4343L3.49456 15.4151C3.52542 15.5424 3.62478 15.6417 3.75205 15.6726L4.73283 15.9104C5.08927 15.9969 5.08927 16.5038 4.73283 16.5902L3.75205 16.8281C3.73614 16.8319 3.72067 16.8368 3.70571 16.8428C3.60101 16.8842 3.52156 16.9742 3.49456 17.0855L3.25674 18.0663C3.25133 18.0886 3.24429 18.1095 3.23581 18.129C3.10858 18.4214 2.65795 18.4005 2.57692 18.0663L2.3391 17.0855C2.33717 17.0776 2.33497 17.0697 2.33252 17.062C2.29571 16.9461 2.20092 16.857 2.08161 16.8281L1.10083 16.5902C1.07855 16.5848 1.05767 16.5778 1.03817 16.5693C0.745777 16.4421 0.766662 15.9914 1.10083 15.9104L2.08161 15.6726C2.20888 15.6417 2.30824 15.5424 2.3391 15.4151L2.57692 14.4343Z" fill="#C9509B"/>
<path d="M5.8335 2.50033C5.8335 2.96056 5.4604 3.33366 5.00016 3.33366C4.53993 3.33366 4.16683 2.96056 4.16683 2.50033C4.16683 2.04009 4.53993 1.66699 5.00016 1.66699C5.4604 1.66699 5.8335 2.04009 5.8335 2.50033Z" fill="#C9509B"/>
<path d="M18.3335 17.5003C18.3335 17.9606 17.9604 18.3337 17.5002 18.3337C17.0399 18.3337 16.6668 17.9606 16.6668 17.5003C16.6668 17.0401 17.0399 16.667 17.5002 16.667C17.9604 16.667 18.3335 17.0401 18.3335 17.5003Z" fill="#C9509B"/>
<path d="M18.3335 14.167C18.3335 14.6272 17.9604 15.0003 17.5002 15.0003C17.0399 15.0003 16.6668 14.6272 16.6668 14.167C16.6668 13.7068 17.0399 13.3337 17.5002 13.3337C17.9604 13.3337 18.3335 13.7068 18.3335 14.167Z" fill="#C9509B"/>
<path d="M3.3335 5.00033C3.3335 5.46056 2.9604 5.83366 2.50016 5.83366C2.03993 5.83366 1.66683 5.46056 1.66683 5.00033C1.66683 4.54009 2.03993 4.16699 2.50016 4.16699C2.9604 4.16699 3.3335 4.54009 3.3335 5.00033Z" fill="#C9509B"/>
</svg>
