<svg width="20" height="20" viewBox="0 0 20 20" fill="none" xmlns="http://www.w3.org/2000/svg">
<path fill-rule="evenodd" clip-rule="evenodd" d="M2.5 4.16634C2.5 3.7061 2.8731 3.33301 3.33333 3.33301H9.16667C9.6269 3.33301 10 3.7061 10 4.16634C10 4.62658 9.6269 4.99967 9.16667 4.99967H7.08333V14.9997H9.16667C9.6269 14.9997 10 15.3728 10 15.833C10 16.2932 9.6269 16.6663 9.16667 16.6663H3.33333C2.8731 16.6663 2.5 16.2932 2.5 15.833C2.5 15.3728 2.8731 14.9997 3.33333 14.9997H5.41667V4.99967H3.33333C2.8731 4.99967 2.5 4.62658 2.5 4.16634Z" fill="#809A3B"/>
<path d="M12.7895 7.09408C12.9278 6.52376 13.7389 6.52376 13.8772 7.09408L14.2577 8.66333C14.3071 8.86695 14.4661 9.02593 14.6697 9.0753L16.2389 9.45582C16.8092 9.59412 16.8092 10.4052 16.2389 10.5435L14.6697 10.924C14.4661 10.9734 14.3071 11.1324 14.2577 11.336L13.8772 12.9053C13.7389 13.4756 12.9278 13.4756 12.7895 12.9053L12.409 11.336C12.3596 11.1324 12.2006 10.9734 11.997 10.924L10.4277 10.5435C9.85742 10.4052 9.85742 9.59412 10.4277 9.45582L11.997 9.0753C12.2006 9.02593 12.3596 8.86695 12.409 8.66333L12.7895 7.09408Z" fill="#809A3B"/>
<path fill-rule="evenodd" clip-rule="evenodd" d="M13.3333 7.70089L13.0616 8.82158C12.953 9.26954 12.6032 9.6193 12.1552 9.72792L11.0345 9.99967L12.1552 10.2714C12.6032 10.38 12.953 10.7298 13.0616 11.1778L13.3333 12.2985L13.6051 11.1778C13.7137 10.7298 14.0635 10.38 14.5114 10.2714L15.6321 9.99967L14.5114 9.72792C14.0635 9.6193 13.7137 9.26954 13.6051 8.82158L13.3333 7.70089ZM13.8772 7.09408C13.7389 6.52376 12.9278 6.52376 12.7895 7.09408L12.409 8.66333C12.3596 8.86695 12.2006 9.02593 11.997 9.0753L10.4277 9.45582C9.85742 9.59412 9.85742 10.4052 10.4277 10.5435L11.997 10.924C12.2006 10.9734 12.3596 11.1324 12.409 11.336L12.7895 12.9053C12.9278 13.4756 13.7389 13.4756 13.8772 12.9053L14.2577 11.336C14.3071 11.1324 14.4661 10.9734 14.6697 10.924L16.2389 10.5435C16.8092 10.4052 16.8092 9.59412 16.2389 9.45582L14.6697 9.0753C14.4661 9.02593 14.3071 8.86695 14.2577 8.66333L13.8772 7.09408Z" fill="#809A3B"/>
<path d="M17.5 4.16634C17.5 4.62658 17.1269 4.99967 16.6667 4.99967C16.2064 4.99967 15.8333 4.62658 15.8333 4.16634C15.8333 3.7061 16.2064 3.33301 16.6667 3.33301C17.1269 3.33301 17.5 3.7061 17.5 4.16634Z" fill="#809A3B"/>
<path d="M17.5 15.833C17.5 16.2932 17.1269 16.6663 16.6667 16.6663C16.2064 16.6663 15.8333 16.2932 15.8333 15.833C15.8333 15.3728 16.2064 14.9997 16.6667 14.9997C17.1269 14.9997 17.5 15.3728 17.5 15.833Z" fill="#809A3B"/>
</svg>
