<svg width="20" height="20" viewBox="0 0 20 20" fill="none" xmlns="http://www.w3.org/2000/svg">
<g clip-path="url(#clip0_382_11069)">
<path d="M14.5919 6.15381C14.6956 5.72607 15.304 5.72607 15.4077 6.15381L15.6931 7.33075C15.7301 7.48346 15.8494 7.6027 16.0021 7.63973L17.179 7.92512C17.6067 8.02884 17.6067 8.63718 17.179 8.7409L16.0021 9.02629C15.8494 9.06332 15.7301 9.18255 15.6931 9.33527L15.4077 10.5122C15.304 10.9399 14.6956 10.9399 14.5919 10.5122L14.3065 9.33527C14.2695 9.18255 14.1503 9.06332 13.9976 9.02629L12.8206 8.7409C12.7939 8.73441 12.7688 8.72596 12.7454 8.71578C12.3946 8.5631 12.4196 8.02236 12.8206 7.92512L13.9976 7.63973C14.1503 7.6027 14.2695 7.48346 14.3065 7.33075L14.5919 6.15381Z" fill="#356FC2"/>
<path fill-rule="evenodd" clip-rule="evenodd" d="M9.40243 12.5233C8.41798 12.3386 7.41498 12.3386 6.43053 12.5233C5.94113 12.6151 5.54403 13.1253 5.54403 13.7731V13.9952C5.54403 14.1849 5.66757 14.2813 5.75849 14.2813H10.0745C10.1654 14.2813 10.2889 14.1849 10.2889 13.9952V13.7731C10.2889 13.1253 9.89183 12.6151 9.40243 12.5233ZM6.20418 10.9926C7.33849 10.7798 8.49447 10.7798 9.62879 10.9926C10.824 11.2169 11.6665 12.4152 11.6665 13.7731V13.9952C11.6665 14.9785 10.9812 15.833 10.0745 15.833H5.75849C4.85173 15.833 4.16648 14.9785 4.16648 13.9952V13.7731C4.16648 12.4152 5.00895 11.2169 6.20418 10.9926Z" fill="#356FC2"/>
<path fill-rule="evenodd" clip-rule="evenodd" d="M6.06415 1.52439C6.14254 1.90766 5.8954 2.28191 5.51213 2.36031C4.60442 2.54597 3.91593 2.90706 3.41156 3.41142C2.9072 3.91579 2.54611 4.60428 2.36045 5.51199C2.28205 5.89526 1.9078 6.1424 1.52453 6.06401C1.14127 5.98561 0.894121 5.61136 0.972516 5.2281C1.20352 4.09877 1.67577 3.14375 2.40983 2.40969C3.14389 1.67563 4.09891 1.20338 5.22824 0.972376C5.6115 0.893981 5.98575 1.14113 6.06415 1.52439ZM18.4692 13.0082C18.8531 13.0833 19.1034 13.4555 19.0283 13.8394C18.5838 16.1115 17.1987 18.5457 14.2829 19.0317C13.8971 19.096 13.5321 18.8353 13.4678 18.4495C13.4035 18.0636 13.6642 17.6986 14.05 17.6343C16.1343 17.2869 17.2492 15.5545 17.638 13.5674C17.7131 13.1834 18.0852 12.9331 18.4692 13.0082ZM1.66648 12.995C2.05768 12.995 2.37481 13.3122 2.37481 13.7034C2.37481 15.8871 3.77852 17.2844 5.51213 17.639C5.8954 17.7174 6.14254 18.0917 6.06415 18.475C5.98575 18.8582 5.6115 19.1054 5.22824 19.027C2.88778 18.5482 0.958148 16.6122 0.958148 13.7034C0.958148 13.3122 1.27528 12.995 1.66648 12.995Z" fill="#356FC2"/>
<path fill-rule="evenodd" clip-rule="evenodd" d="M7.91648 8.49967C8.69888 8.49967 9.33315 7.86541 9.33315 7.08301C9.33315 6.3006 8.69888 5.66634 7.91648 5.66634C7.13408 5.66634 6.49981 6.3006 6.49981 7.08301C6.49981 7.86541 7.13408 8.49967 7.91648 8.49967ZM7.91648 9.99967C9.52731 9.99967 10.8331 8.69384 10.8331 7.08301C10.8331 5.47218 9.52731 4.16634 7.91648 4.16634C6.30565 4.16634 4.99981 5.47218 4.99981 7.08301C4.99981 8.69384 6.30565 9.99967 7.91648 9.99967Z" fill="#356FC2"/>
<path d="M14.1665 1.66634C14.1665 2.12658 13.7934 2.49967 13.3331 2.49967C12.8729 2.49967 12.4998 2.12658 12.4998 1.66634C12.4998 1.2061 12.8729 0.833008 13.3331 0.833008C13.7934 0.833008 14.1665 1.2061 14.1665 1.66634Z" fill="#356FC2"/>
<path d="M18.3331 3.33301C18.3331 3.79325 17.9601 4.16634 17.4998 4.16634C17.0396 4.16634 16.6665 3.79325 16.6665 3.33301C16.6665 2.87277 17.0396 2.49967 17.4998 2.49967C17.9601 2.49967 18.3331 2.87277 18.3331 3.33301Z" fill="#356FC2"/>
<path d="M15.8331 13.333C15.8331 13.7932 15.4601 14.1663 14.9998 14.1663C14.5396 14.1663 14.1665 13.7932 14.1665 13.333C14.1665 12.8728 14.5396 12.4997 14.9998 12.4997C15.4601 12.4997 15.8331 12.8728 15.8331 13.333Z" fill="#356FC2"/>
</g>
<defs>
<clipPath id="clip0_382_11069">
<rect width="20" height="20" fill="white"/>
</clipPath>
</defs>
</svg>
