<svg width="200" height="30" viewBox="0 0 200 30" fill="none" xmlns="http://www.w3.org/2000/svg">
<path d="M14.0304 6.30751C15.1569 6.30751 16.0956 6.30751 17.1283 6.30751C18.067 6.30751 18.3486 6.11976 18.5364 5.18101C18.7241 4.43001 18.9119 3.58513 19.0996 2.74025C19.2874 1.89537 19.7568 1.33212 20.6955 1.33212C24.1689 1.14437 27.5484 1.33212 30.5524 3.3035C37.7808 7.90339 37.4992 17.948 30.083 22.2663C28.0178 23.4867 25.8587 23.8622 23.5118 23.9561C22.1975 23.9561 20.8833 23.9561 19.4751 23.9561C18.1609 23.9561 18.067 24.0499 17.7854 25.3642C17.5976 26.1152 17.5038 26.9601 17.316 27.7111C17.1283 28.4621 16.6589 28.9315 15.9079 28.9315C13.4671 28.9315 10.9325 29.2131 8.49172 28.4621C4.07959 27.1478 1.16945 24.3316 0.230699 19.7317C-0.895804 14.4747 2.20208 9.21765 7.36522 7.34014C8.11623 7.05852 8.9611 6.77689 9.80598 6.68301C11.2141 6.21363 12.7161 6.40138 14.0304 6.30751ZM21.5404 19.3562C22.2914 19.3562 23.0424 19.3562 23.7934 19.3562C25.4832 19.3562 27.079 18.8868 28.4872 17.948C30.6463 16.3522 31.6789 14.193 31.3034 11.4706C30.9279 9.02989 29.4259 7.52789 27.2668 6.49526C25.2015 5.55651 22.9485 5.65038 20.7894 5.74426C20.2261 5.74426 20.0384 6.21363 19.8506 6.68301C19.6629 7.43401 19.569 8.18502 19.3813 8.93602C19.0996 10.3441 18.6303 10.7197 17.1283 10.7197C15.2507 10.7197 13.4671 10.7197 11.5896 10.7197C8.86723 10.8135 6.7081 11.94 5.29997 14.2869C3.23471 17.7603 4.83059 22.0786 8.77335 23.5806C11.1202 24.5193 13.4671 24.1438 15.814 24.1438C16.2834 24.1438 16.565 23.7683 16.6589 23.2989C16.8466 22.4541 17.0344 21.6092 17.2221 20.8582C17.5038 19.7317 17.9731 19.3562 19.1935 19.2623C19.8506 19.3562 20.6955 19.3562 21.5404 19.3562Z" fill="white"/>
<path d="M132.689 22.4536C132.689 24.7066 132.689 26.7719 132.689 28.8371C132.689 30.0575 132.689 30.0575 131.469 29.9636C129.216 29.9636 129.498 30.2453 129.498 28.0861C129.498 21.6087 129.498 15.2252 129.498 8.74783C129.498 7.7152 129.498 7.7152 130.53 7.7152C130.812 7.7152 131.093 7.7152 131.375 7.7152C131.938 7.7152 132.408 7.80908 132.408 8.4662C132.502 8.93558 132.689 8.93558 133.065 8.65395C137.665 5.18057 144.518 8.37233 144.799 14.662C144.893 16.915 144.612 19.0741 143.203 20.9516C140.857 24.1434 136.257 24.8005 133.065 22.5475C133.065 22.6414 132.971 22.6414 132.689 22.4536ZM141.326 15.6946C141.326 15.3191 141.326 14.9436 141.326 14.5681C141.138 12.3151 139.542 10.7192 137.477 10.5315C135.506 10.3437 133.628 11.7518 132.971 13.8171C132.595 15.2252 132.595 16.6334 133.065 17.9476C134.097 21.0455 137.852 21.8904 140.106 19.4496C141.044 18.417 141.326 17.1027 141.326 15.6946Z" fill="white"/>
<path d="M85.7507 22.3598C82.0895 25.176 78.3345 24.0495 76.1754 22.0781C74.204 20.2945 73.5469 17.9476 73.5469 15.413C73.6408 12.3151 74.8611 9.78049 77.5835 8.27848C80.1181 6.87035 82.7466 6.96422 85.0935 8.65398C85.6568 9.02948 85.8445 9.02948 85.9384 8.37236C86.0323 7.90298 86.3139 7.80911 86.6894 7.80911C89.4118 7.80911 88.8485 7.52748 88.8485 9.87436C88.8485 14.0987 88.8485 18.3231 88.8485 22.5475C88.8485 23.674 88.8485 23.674 87.722 23.674H87.5343C86.3139 23.5801 86.3139 23.5802 85.7507 22.3598ZM85.8445 15.6946C85.7507 14.9436 85.7507 14.0049 85.3752 13.2539C84.6242 11.5641 83.3099 10.6254 81.4324 10.5315C79.7426 10.4376 78.3345 11.4702 77.6774 13.16C77.3019 14.0049 77.1141 14.9436 77.208 15.8824C77.208 16.8211 77.4896 17.7599 77.8651 18.5109C79.1794 21.2333 82.9344 21.7026 84.8119 19.3558C85.5629 18.3231 85.7507 17.0089 85.8445 15.6946Z" fill="white"/>
<path d="M165.357 15.695C165.357 18.0419 165.357 20.3888 165.357 22.6418C165.357 23.2989 165.169 23.5805 164.512 23.5805C164.137 23.5805 163.761 23.5805 163.479 23.5805C162.916 23.5805 162.447 23.4867 162.447 22.8295C162.447 22.5479 162.259 22.2663 161.884 22.5479C157.847 25.8336 151.463 23.4867 150.243 17.6664C149.68 14.5685 150.149 11.7523 152.496 9.40538C155.031 6.87075 158.786 6.58912 161.696 8.65438C162.259 9.02988 162.447 8.93601 162.541 8.37275C162.635 7.90338 162.916 7.8095 163.292 7.8095C163.761 7.8095 164.137 7.8095 164.606 7.8095C165.263 7.71563 165.545 7.99725 165.545 8.65438C165.357 11.0013 165.357 13.3481 165.357 15.695ZM153.622 15.7889C153.529 16.7277 153.716 17.5725 154.092 18.4174C154.843 19.9194 156.063 20.7643 157.753 20.8582C159.255 20.952 160.475 20.2949 161.32 19.0745C162.541 17.2909 162.541 14.193 161.32 12.4094C159.631 9.96863 156.345 9.87476 154.655 12.0339C153.81 13.1604 153.529 14.3808 153.622 15.7889Z" fill="white"/>
<path d="M177.185 24.0501C175.402 23.9562 173.618 23.4869 172.022 22.642C171.646 22.4542 171.553 22.1726 171.74 21.7971C172.022 21.2339 172.397 20.7645 172.585 20.2012C172.867 19.638 173.148 19.638 173.618 19.9196C174.838 20.5767 176.246 20.9522 177.561 20.8583C178.124 20.8583 178.593 20.6706 179.063 20.2951C179.25 20.2012 179.344 20.0135 179.438 19.8257C179.532 19.638 179.532 19.4502 179.532 19.1686C179.532 18.9808 179.438 18.7931 179.344 18.6053C179.25 18.4176 179.063 18.2298 178.875 18.136C178.312 17.7605 177.655 17.5727 176.997 17.385C176.059 17.1033 175.026 16.8217 174.181 16.3523C172.585 15.5075 171.646 14.1932 171.646 12.3157C171.646 10.4382 172.491 9.12394 173.993 8.18519C176.152 6.96481 178.312 7.15256 180.565 7.90357C182.348 8.46682 182.348 8.56069 181.503 10.1566L181.41 10.2504C180.846 11.377 180.846 11.3769 179.626 10.9076C178.687 10.5321 177.748 10.4382 176.716 10.5321C176.246 10.5321 175.777 10.7198 175.401 11.0014C175.214 11.0953 175.12 11.2831 175.026 11.4708C174.932 11.6586 174.932 11.8463 174.932 12.128C174.932 12.3157 175.026 12.5973 175.12 12.7851C175.214 12.9728 175.402 13.1606 175.589 13.2545C176.34 13.7238 177.185 13.9116 178.03 14.0993C178.593 14.2871 179.157 14.4748 179.814 14.6626C181.879 15.6013 182.912 17.1972 182.818 19.2625C182.724 21.14 181.503 22.7359 179.438 23.4869C178.781 23.9562 177.936 24.0501 177.185 24.0501Z" fill="white"/>
<path d="M100.677 24.0496C98.8936 23.9557 97.2038 23.4863 95.6079 22.6414C95.2324 22.4537 95.1385 22.1721 95.3263 21.7966C95.6079 21.2333 95.9834 20.7639 96.1712 20.2007C96.4528 19.7313 96.7344 19.6374 97.2038 19.9191C98.4242 20.5762 99.8323 20.9517 101.147 20.8578C101.616 20.8578 101.991 20.6701 102.367 20.4823C103.306 19.8252 103.306 18.6048 102.367 18.0416C101.804 17.7599 101.147 17.4783 100.489 17.2906C99.3629 17.0089 98.3303 16.7273 97.3916 16.0702C96.7344 15.6947 96.265 15.1314 95.8895 14.4743C95.514 13.8172 95.3263 13.0662 95.3263 12.3152C95.3263 11.5642 95.5141 10.8132 95.7957 10.156C96.1712 9.49891 96.6405 8.93566 97.2977 8.46628C98.8936 7.33978 100.677 7.15203 102.461 7.43365C103.493 7.62141 104.432 7.99691 105.371 8.37241C105.84 8.56016 105.934 8.84179 105.653 9.21729C105.277 9.78054 104.995 10.3438 104.714 10.907C104.526 11.2825 104.244 11.3764 103.869 11.1887C102.836 10.7193 101.71 10.4377 100.583 10.5315C100.208 10.5315 99.8323 10.6254 99.4568 10.8132C98.8936 11.0948 98.5181 11.4703 98.5181 12.1274C98.5181 12.7845 98.8935 13.16 99.3629 13.4417C100.114 13.8172 100.959 14.0049 101.804 14.2865C102.742 14.5682 103.681 14.8498 104.432 15.4131C106.967 17.1967 107.061 21.0456 104.526 22.9231C103.493 23.6741 102.273 24.0496 100.677 24.0496Z" fill="white"/>
<path d="M194.176 24.0495C192.392 23.9557 190.703 23.4863 189.107 22.6414C188.731 22.4537 188.543 22.172 188.825 21.7965C189.201 21.2333 189.482 20.67 189.764 20.0129C189.952 19.5435 190.233 19.5435 190.609 19.8252C191.829 20.4823 193.237 20.8578 194.645 20.7639C195.021 20.7639 195.396 20.67 195.772 20.4823C196.898 19.919 196.992 18.6048 195.866 17.9476C195.302 17.5721 194.739 17.3844 194.082 17.2905C193.237 17.1028 192.392 16.8211 191.547 16.4456C189.67 15.6008 188.731 14.0988 188.731 12.0335C188.731 9.96825 189.952 8.654 191.735 7.80912C193.707 6.96424 195.678 7.24587 197.555 7.90299C199.433 8.46625 199.433 8.56012 198.494 10.156C198.4 10.2499 198.4 10.3437 198.306 10.5315C198.025 11.2825 197.649 11.4703 196.804 11.0948C195.866 10.6254 194.927 10.4376 193.894 10.5315C193.519 10.5315 193.237 10.6254 192.956 10.7193C192.298 10.907 191.923 11.3764 191.923 12.0335C191.923 12.6906 192.298 13.16 192.862 13.3478C193.613 13.6294 194.364 13.8171 195.021 14.0988C195.584 14.2865 196.241 14.4743 196.804 14.662C198.776 15.5069 199.902 17.2905 199.808 19.2619C199.715 21.2333 198.306 23.0169 196.241 23.674C195.678 23.9557 194.927 24.0495 194.176 24.0495Z" fill="white"/>
<path d="M123.489 19.7314C123.489 21.1396 122.269 22.8293 120.391 23.5803C119.265 24.0497 117.95 24.1436 116.73 23.9558C115.322 23.7681 114.008 23.2987 112.693 22.7354C112.224 22.5477 112.13 22.2661 112.412 21.7967C112.693 21.2334 113.069 20.7641 113.257 20.2008C113.444 19.7314 113.726 19.6375 114.195 19.9192C115.416 20.5763 116.824 20.9518 118.232 20.8579C118.607 20.8579 118.889 20.7641 119.171 20.5763C119.734 20.2947 120.109 19.9192 120.109 19.262C120.109 18.6049 119.734 18.2294 119.171 17.9478C118.514 17.5723 117.763 17.3845 117.012 17.1968C115.697 16.8213 114.383 16.4458 113.444 15.4132C111.191 12.9724 112.224 9.02965 115.51 7.80927C117.95 6.87052 120.297 7.52764 122.55 8.46639C122.926 8.65414 122.832 8.84189 122.738 9.12352C122.362 9.68677 122.081 10.3439 121.705 10.9071C121.518 11.2826 121.236 11.3765 120.86 11.1888C119.828 10.7194 118.701 10.4378 117.575 10.5316C117.105 10.5316 116.636 10.7194 116.167 10.9071C115.228 11.4704 115.228 12.6908 116.167 13.254C116.824 13.6295 117.481 13.8173 118.138 14.005C119.171 14.2867 120.203 14.5683 121.142 15.1315C122.738 16.0703 123.489 17.3845 123.489 19.7314Z" fill="white"/>
<path d="M45.8535 15.6009C45.8535 11.0949 48.9514 7.8093 53.3635 7.33992C55.241 7.15217 56.9308 7.62154 58.6206 8.46642C59.0899 8.74805 59.1838 8.9358 58.9022 9.40518C58.6206 9.87455 58.3389 10.4378 58.0573 11.0011C57.7757 11.5643 57.494 11.6582 56.9308 11.2827C56.3675 10.9072 55.7104 10.6256 55.0533 10.5317C54.3962 10.4378 53.739 10.4378 53.0819 10.5317C50.1718 11.0949 48.5759 14.1928 49.5147 17.2907C50.2657 19.8253 52.7064 21.2335 55.241 20.5763C55.7104 20.4825 56.0859 20.2947 56.4614 20.2008C57.5879 19.7315 57.5879 19.7315 58.2451 20.858C59.2777 22.5477 59.2777 22.5477 57.4002 23.3926C52.3309 25.4578 46.7923 22.5477 45.8535 17.1968C45.8535 16.6336 45.8535 16.1642 45.8535 15.6009Z" fill="white"/>
<path d="M64.6289 11.7518C64.6289 8.18457 64.6289 4.61731 64.6289 0.956175C64.6289 0.205173 64.8167 -0.0764529 65.5677 0.0174224C66.1309 0.0174224 66.788 0.0174224 67.3513 0.0174224C67.8207 0.0174224 68.0084 0.20517 68.0084 0.674547C68.0084 0.862297 68.0084 1.05005 68.0084 1.2378C68.0084 8.27845 68.0084 15.413 68.0084 22.4536C68.0084 23.674 68.0084 23.674 66.788 23.674C64.6289 23.674 64.6289 23.674 64.6289 21.5149V11.7518Z" fill="white"/>
</svg>
