<svg width="164" height="30" viewBox="0 0 164 30" fill="none" xmlns="http://www.w3.org/2000/svg">
<path fill-rule="evenodd" clip-rule="evenodd" d="M2.81498 26.3677C-0.938375 22.6472 -0.938315 16.6153 2.81509 12.895L13.0095 2.7903C16.1825 -0.354716 21.022 -0.841115 24.7104 1.33111C25.8513 2.003 25.8413 3.5443 24.9029 4.4744C23.9646 5.4045 22.4329 5.32445 21.1592 4.95521C19.5282 4.48238 17.694 4.88347 16.4077 6.1585L6.2132 16.2632C4.3365 18.1234 4.33647 21.1393 6.21315 22.9995C8.08985 24.8598 11.1327 24.8598 13.0094 22.9996L33.3981 2.79043C37.1515 -0.929945 43.237 -0.92996 46.9904 2.79039L57.185 12.895C60.9385 16.6153 60.9385 22.6473 57.185 26.3677C53.4315 30.0881 47.346 30.0881 43.5926 26.3677L40.1944 22.9995L35.9468 27.2097C32.7738 30.3547 27.9343 30.8411 24.2459 28.6689C23.105 27.997 23.115 26.4557 24.0534 25.5256C24.9918 24.5955 26.5235 24.6756 27.7972 25.0448C29.4282 25.5177 31.2623 25.1166 32.5487 23.8415L36.9177 19.511C38.7274 17.7172 41.6615 17.7172 43.4712 19.511L46.9907 22.9995C48.8674 24.8597 51.91 24.8597 53.787 22.9995C55.6635 21.1393 55.6635 18.1234 53.787 16.2632L43.5924 6.1586C41.7156 4.29843 38.6729 4.29844 36.7962 6.1586L16.4076 26.3678C12.6541 30.0882 6.5684 30.0882 2.81498 26.3677Z" fill="white"/>
<path d="M98.3886 5.40039C96.0266 5.40039 94.2376 6.24584 93.0566 7.93674C92.0191 6.24584 90.3726 5.40039 88.1901 5.40039C85.9356 5.40039 84.2896 6.17539 83.2161 7.76064V5.89359H78.5996V23.5072H83.2161V13.6083C83.2161 11.0367 84.5401 9.62764 86.5796 9.62764C88.4761 9.62764 89.5856 10.8606 89.5856 12.9742V23.5072H94.2016V13.6083C94.2016 11.0367 95.4186 9.62764 97.5296 9.62764C99.4261 9.62764 100.536 10.8606 100.536 12.9742V23.5072H105.152V12.6572C105.152 8.25379 102.504 5.40039 98.3886 5.40039Z" fill="white"/>
<path d="M122.314 7.97101C120.918 6.24486 118.986 5.39941 116.481 5.39941C114.083 5.39941 112.044 6.31531 110.326 8.11191C108.644 9.90852 107.785 12.0926 107.785 14.6994C107.785 17.3062 108.644 19.5256 110.326 21.3222C112.044 23.1187 114.083 23.9994 116.481 23.9994C118.986 23.9994 120.918 23.154 122.314 21.4278V23.5062H126.93V5.89261H122.314V7.97101ZM113.797 18.2926C112.867 17.3415 112.402 16.1437 112.402 14.6994C112.402 13.2551 112.867 12.0574 113.797 11.1415C114.727 10.1903 115.908 9.73237 117.34 9.73237C118.771 9.73237 119.952 10.1903 120.882 11.1415C121.849 12.0574 122.314 13.2551 122.314 14.6994C122.314 16.1437 121.849 17.3415 120.882 18.2926C119.952 19.2085 118.771 19.6665 117.34 19.6665C115.908 19.6665 114.727 19.2085 113.797 18.2926Z" fill="white"/>
<path d="M143.963 8.92213V5.89258H130.543V10.1551H137.736L130.186 20.4767V23.5062H144.32V19.2437H136.376L143.963 8.92213Z" fill="white"/>
<path d="M163.622 16.5674C163.73 15.8981 163.801 15.2992 163.801 14.7004C163.801 12.0583 162.943 9.87424 161.225 8.07764C159.543 6.28109 157.36 5.40039 154.748 5.40039C151.992 5.40039 149.702 6.28109 147.949 8.07764C146.195 9.83904 145.301 12.0583 145.301 14.7004C145.301 17.3777 146.195 19.597 147.985 21.3583C149.774 23.1197 152.136 24.0004 155.106 24.0004C158.541 24.0004 161.153 22.7322 162.907 20.2311L159.185 18.1174C158.291 19.2799 156.931 19.8788 155.177 19.8788C152.422 19.8788 150.74 18.7867 150.132 16.5674H163.622ZM150.06 13.0447C150.597 10.7902 152.279 9.48674 154.748 9.48674C156.859 9.48674 158.648 10.6492 159.185 13.0447H150.06Z" fill="white"/>
</svg>
