<svg width="235" height="34" viewBox="0 0 235 34" fill="none" xmlns="http://www.w3.org/2000/svg">
<path fill-rule="evenodd" clip-rule="evenodd" d="M8.71755 17.9997L21.8834 4.6726C22.7779 3.76714 23.9681 3.26926 25.2368 3.26926C26.5045 3.26926 27.6947 3.76667 28.5883 4.67213L29.614 5.71046L31.666 3.63333L30.6402 2.59501C29.1992 1.13634 27.2804 0.333008 25.2358 0.333008C23.1922 0.333481 21.2729 1.13681 19.8319 2.59595L6.66602 15.9226L8.71755 17.9997Z" fill="white"/>
<path fill-rule="evenodd" clip-rule="evenodd" d="M26.3333 9.09975L24.2716 7.0257L11.0439 20.333C9.1864 22.2017 6.164 22.2022 4.30692 20.334C2.44936 18.4653 2.44936 15.4243 4.30692 13.5557L15.7212 2.07357L13.6594 0L2.24568 11.4821C-0.748559 14.4943 -0.748559 19.3959 2.24568 22.4075C3.69352 23.8641 5.62147 24.6667 7.67473 24.6667C9.72846 24.6667 11.6573 23.8636 13.1052 22.4071L26.3333 9.09975Z" fill="white"/>
<path fill-rule="evenodd" clip-rule="evenodd" d="M39.4213 11.5917C37.9739 10.1352 36.0459 9.33301 33.9917 9.33301C31.938 9.33348 30.0091 10.1356 28.5613 11.5926L15.334 24.8998L17.3948 26.9738L30.623 13.6663C32.481 11.7975 35.5029 11.798 37.36 13.6658C38.2583 14.5695 38.753 15.7725 38.753 17.0543C38.753 18.3366 38.2583 19.5401 37.36 20.4437L25.9462 31.9261L28.0079 33.9997L39.4213 22.5178C42.416 19.5056 42.416 14.6039 39.4213 11.5917Z" fill="white"/>
<path fill-rule="evenodd" clip-rule="evenodd" d="M32.9485 16L19.7829 29.3271C17.9337 31.198 14.926 31.199 13.0777 29.3275L12.052 28.2892L10 30.3663L11.0257 31.4047C12.4667 32.8633 14.3856 33.6667 16.4305 33.6667C18.4741 33.6662 20.3929 32.8629 21.8344 31.4037L35 18.0771L32.9485 16Z" fill="white"/>
<path fill-rule="evenodd" clip-rule="evenodd" d="M53.825 20.4702C53.9949 21.3205 54.3928 21.9863 55.018 22.466C55.6428 22.9466 56.4648 23.1864 57.4843 23.1864C58.4874 23.1864 59.2628 22.9504 59.811 22.4779C60.3592 22.0058 60.6331 21.3838 60.6331 20.612C60.6331 20.2341 60.5598 19.9153 60.4133 19.6555C60.2664 19.3957 60.062 19.1753 59.7998 18.994C59.5367 18.8137 59.2129 18.6595 58.827 18.5339C58.4412 18.4077 58.0087 18.274 57.53 18.1322L56.2801 17.7782C55.5387 17.5735 54.8748 17.3256 54.2883 17.0339C53.7014 16.7427 53.1998 16.4001 52.7832 16.0065C52.3666 15.613 52.0498 15.1604 51.8337 14.6484C51.6177 14.1368 51.5095 13.542 51.5095 12.8653C51.5095 12.1567 51.6485 11.5034 51.9266 10.9047C52.2042 10.307 52.598 9.79451 53.1075 9.36955C53.6169 8.9446 54.2342 8.61006 54.9602 8.36547C55.6852 8.1223 56.5031 8 57.4143 8C59.128 8 60.4861 8.41305 61.4902 9.23964C62.4933 10.0667 63.0797 11.1726 63.25 12.5584L60.4712 12.7944C60.3009 12.0858 59.9617 11.5348 59.4522 11.1412C58.9427 10.7477 58.2326 10.5507 57.3219 10.5507C56.4728 10.5507 55.8088 10.7515 55.3306 11.1531C54.8515 11.5547 54.6121 12.0706 54.6121 12.7002C54.6121 13.0623 54.6821 13.365 54.8211 13.6091C54.9602 13.8537 55.1603 14.0659 55.423 14.2467C55.6852 14.4281 56.0057 14.5894 56.3836 14.7307C56.762 14.8725 57.1903 15.0229 57.669 15.1799L58.8504 15.5578C59.5908 15.7938 60.2589 16.0417 60.8528 16.3015C61.4472 16.5614 61.953 16.8726 62.3696 17.2347C62.7867 17.5969 63.1073 18.0299 63.3307 18.5339C63.5547 19.0378 63.6667 19.6598 63.6667 20.3997C63.6667 21.1873 63.5122 21.9078 63.2038 22.5607C62.8945 23.2145 62.4629 23.7694 61.9068 24.2257C61.3511 24.6826 60.6914 25.0371 59.9267 25.2884C59.1625 25.5401 58.3175 25.6667 57.3914 25.6667C55.6777 25.6667 54.2496 25.2574 53.1075 24.4384C51.9648 23.6195 51.2627 22.3836 51 20.73L53.825 20.4702Z" fill="white"/>
<path fill-rule="evenodd" clip-rule="evenodd" d="M75.6209 10.8719C74.7879 10.8719 74.0431 11.0287 73.3873 11.3413C72.7311 11.6544 72.1756 12.0883 71.7209 12.6435C71.2652 13.1991 70.9178 13.8566 70.6785 14.6144C70.4397 15.3737 70.3203 16.1989 70.3203 17.0904C70.3203 17.9823 70.4434 18.8112 70.6906 19.5781C70.9369 20.3445 71.2886 21.0091 71.7438 21.5728C72.1985 22.1355 72.7544 22.5774 73.4107 22.8986C74.0659 23.2188 74.8108 23.3789 75.6442 23.3789C76.4777 23.3789 77.2221 23.2268 77.8783 22.9218C78.5336 22.6167 79.0895 22.1904 79.5447 21.6424C79.9999 21.0953 80.3511 20.434 80.5978 19.66C80.8445 18.8856 80.9681 18.0368 80.9681 17.114C80.9681 16.2065 80.8445 15.3695 80.5978 14.6031C80.3511 13.8371 79.9999 13.1797 79.5447 12.6321C79.0895 12.085 78.5298 11.6544 77.8661 11.3413C77.2029 11.0287 76.4544 10.8719 75.6209 10.8719ZM75.6442 8.33301C76.8942 8.33301 78.0364 8.54853 79.0704 8.97958C80.1039 9.41062 80.9835 10.0136 81.7092 10.7895C82.434 11.5659 82.997 12.4943 83.399 13.5757C83.8001 14.6571 84.0007 15.8403 84.0007 17.1254C84.0007 18.4583 83.7884 19.661 83.3645 20.7343C82.9391 21.8082 82.3342 22.7366 81.5469 23.52L83.7693 26.1769V26.9997H80.9453L79.3941 25.0723C78.854 25.3229 78.2747 25.5185 77.6581 25.6596C77.0406 25.8008 76.3769 25.8714 75.6676 25.8714C74.3864 25.8714 73.233 25.6554 72.2069 25.2248C71.1804 24.7938 70.3082 24.1903 69.5909 23.4144C68.8731 22.6385 68.3176 21.7144 67.9244 20.6401C67.5308 19.5667 67.334 18.3953 67.334 17.1254C67.334 15.8403 67.5308 14.6613 67.9244 13.587C68.3176 12.5142 68.8768 11.5891 69.6025 10.8132C70.3273 10.0373 71.2032 9.43004 72.2297 8.99095C73.2563 8.55279 74.3943 8.33301 75.6442 8.33301Z" fill="white"/>
<path fill-rule="evenodd" clip-rule="evenodd" d="M95.3346 23.234C96.5189 23.234 97.4414 22.8605 98.1028 22.1125C98.7637 21.3645 99.0946 20.2193 99.0946 18.6762V8.33301H102.001V18.7471C102.001 19.9752 101.847 21.0258 101.54 21.8998C101.232 22.7734 100.794 23.49 100.225 24.0491C99.6561 24.6081 98.9561 25.0173 98.126 25.2771C97.2955 25.5369 96.365 25.6663 95.3346 25.6663C94.2884 25.6663 93.3543 25.5369 92.5321 25.2771C91.709 25.0173 91.0132 24.6081 90.4443 24.0491C89.8754 23.49 89.4372 22.7734 89.129 21.8998C88.8213 21.0258 88.668 19.9752 88.668 18.7471V8.33301H91.5746V18.6762C91.5746 20.2193 91.9051 21.3645 92.5665 22.1125C93.2278 22.8605 94.1504 23.234 95.3346 23.234Z" fill="white"/>
<path fill-rule="evenodd" clip-rule="evenodd" d="M110.327 18.0681H115.889L114.974 15.4219C114.614 14.3855 114.325 13.5417 114.106 12.8921C113.886 12.242 113.691 11.6696 113.519 11.1743H112.792C112.698 11.4371 112.604 11.7004 112.51 11.9633C112.416 12.2266 112.31 12.5208 112.193 12.8454C112.075 13.1704 111.947 13.5417 111.806 13.9599C111.665 14.377 111.493 14.8648 111.29 15.4219L110.327 18.0681ZM105 24.5213L110.985 8.66699H115.42L121.333 24.5213V25.3337H118.424L116.734 20.5749H109.436L107.746 25.3337H105V24.5213Z" fill="white"/>
<path fill-rule="evenodd" clip-rule="evenodd" d="M127.882 16.2808H130.415C131.531 16.2808 132.41 16.0773 133.053 15.6713C133.696 15.2649 134.018 14.6017 134.018 13.6808C134.018 12.7454 133.692 12.0939 133.041 11.7258C132.391 11.3582 131.516 11.1739 130.415 11.1739H127.882V16.2808ZM137.667 25.3337H134.854L129.764 18.7877H127.882V25.3337H125V8.66699H130.415C131.267 8.66699 132.077 8.72499 132.844 8.84098C133.611 8.95697 134.304 9.22403 134.924 9.64169C136.241 10.5079 136.9 11.8156 136.9 13.5634C136.9 14.322 136.788 14.9833 136.562 15.5483C136.338 16.1129 136.039 16.5923 135.668 16.987C135.296 17.3817 134.866 17.7026 134.378 17.9495C133.89 18.1974 133.382 18.3831 132.855 18.5066L137.667 24.5208V25.3337Z" fill="white"/>
<path fill-rule="evenodd" clip-rule="evenodd" d="M141.334 8.66699H152.171V11.2201H144.201V15.5842H151.611V18.091H144.201V22.7801H152.334V25.3337H141.334V8.66699Z" fill="white"/>
<path fill-rule="evenodd" clip-rule="evenodd" d="M158.825 20.4702C158.995 21.3205 159.393 21.9863 160.018 22.466C160.643 22.9466 161.465 23.1864 162.484 23.1864C163.487 23.1864 164.262 22.9504 164.811 22.4779C165.359 22.0058 165.633 21.3838 165.633 20.612C165.633 20.2341 165.56 19.9153 165.413 19.6555C165.266 19.3957 165.062 19.1753 164.799 18.994C164.537 18.8137 164.213 18.6595 163.827 18.5339C163.441 18.4077 163.008 18.274 162.53 18.1322L161.28 17.7782C160.539 17.5735 159.875 17.3256 159.288 17.0339C158.701 16.7427 158.2 16.4001 157.784 16.0065C157.367 15.613 157.05 15.1604 156.834 14.6484C156.618 14.1368 156.509 13.542 156.509 12.8653C156.509 12.1567 156.648 11.5034 156.927 10.9047C157.204 10.307 157.598 9.79451 158.107 9.36955C158.617 8.9446 159.234 8.61006 159.96 8.36547C160.685 8.1223 161.503 8 162.414 8C164.128 8 165.486 8.41305 166.49 9.23964C167.493 10.0667 168.08 11.1726 168.25 12.5584L165.471 12.7944C165.301 12.0858 164.961 11.5348 164.452 11.1412C163.943 10.7477 163.232 10.5507 162.322 10.5507C161.473 10.5507 160.809 10.7515 160.33 11.1531C159.852 11.5547 159.612 12.0706 159.612 12.7002C159.612 13.0623 159.682 13.365 159.821 13.6091C159.96 13.8537 160.16 14.0659 160.423 14.2467C160.685 14.4281 161.006 14.5894 161.384 14.7307C161.762 14.8725 162.191 15.0229 162.669 15.1799L163.85 15.5578C164.591 15.7938 165.259 16.0417 165.853 16.3015C166.447 16.5614 166.953 16.8726 167.369 17.2347C167.786 17.5969 168.107 18.0299 168.331 18.5339C168.554 19.0378 168.667 19.6598 168.667 20.3997C168.667 21.1873 168.512 21.9078 168.203 22.5607C167.894 23.2145 167.463 23.7694 166.906 24.2257C166.351 24.6826 165.691 25.0371 164.927 25.2884C164.162 25.5401 163.317 25.6667 162.391 25.6667C160.678 25.6667 159.249 25.2574 158.107 24.4384C156.965 23.6195 156.263 22.3836 156 20.73L158.825 20.4702Z" fill="white"/>
<path fill-rule="evenodd" clip-rule="evenodd" d="M175.953 16.4199H178.789C179.309 16.4199 179.785 16.3778 180.218 16.2932C180.651 16.209 181.029 16.0673 181.352 15.8676C181.675 15.6683 181.927 15.3999 182.109 15.0622C182.29 14.725 182.38 14.3106 182.38 13.8196C182.38 13.3135 182.29 12.8884 182.109 12.5432C181.927 12.1981 181.679 11.9259 181.364 11.7262C181.049 11.5265 180.675 11.3847 180.242 11.3006C179.808 11.2164 179.34 11.1738 178.836 11.1738H175.953V16.4199ZM173 8.66699H179.19C180.34 8.66699 181.305 8.79841 182.085 9.06172C182.865 9.32457 183.494 9.68796 183.975 10.1528C184.455 10.6168 184.802 11.1621 185.014 11.7893C185.227 12.4155 185.333 13.0928 185.333 13.82C185.333 14.6871 185.188 15.441 184.896 16.0832C184.605 16.7253 184.184 17.2552 183.632 17.6733C183.081 18.091 182.411 18.4043 181.624 18.6134C180.836 18.8225 179.946 18.9267 178.954 18.9267H175.953V25.3337H173V8.66699Z" fill="white"/>
<path fill-rule="evenodd" clip-rule="evenodd" d="M191.327 18.0681H196.889L195.974 15.4219C195.614 14.3855 195.324 13.5417 195.105 12.8921C194.886 12.242 194.691 11.6696 194.519 11.1743H193.791C193.698 11.4371 193.604 11.7004 193.509 11.9633C193.416 12.2266 193.31 12.5208 193.193 12.8454C193.075 13.1704 192.947 13.5417 192.806 13.9599C192.665 14.377 192.493 14.8648 192.29 15.4219L191.327 18.0681ZM186 24.5213L191.985 8.66699H196.42L202.333 24.5213V25.3337H199.424L197.734 20.5749H190.436L188.746 25.3337H186V24.5213Z" fill="white"/>
<path fill-rule="evenodd" clip-rule="evenodd" d="M220.001 20.9264C219.736 21.5771 219.389 22.1895 218.96 22.7639C218.531 23.3383 218.013 23.8415 217.405 24.2713C216.797 24.701 216.092 25.0409 215.289 25.2909C214.486 25.5409 213.594 25.6663 212.611 25.6663C211.364 25.6663 210.23 25.4491 209.209 25.0152C208.188 24.5821 207.317 23.9815 206.595 23.2152C205.873 22.4479 205.316 21.5345 204.923 20.4733C204.53 19.4125 204.334 18.2622 204.334 17.0226C204.334 15.7839 204.53 14.6337 204.923 13.5724C205.316 12.5116 205.876 11.5936 206.606 10.8188C207.336 10.045 208.212 9.43641 209.233 8.99542C210.254 8.5535 211.395 8.33301 212.658 8.33301C214.497 8.33301 216.037 8.75948 217.277 9.61103C218.516 10.4626 219.393 11.5936 219.907 13.0032L216.938 13.5837C216.532 12.7321 215.967 12.0617 215.242 11.5739C214.517 11.0861 213.64 10.8422 212.611 10.8422C211.785 10.8422 211.049 11.0005 210.402 11.3169C209.755 11.6334 209.209 12.0692 208.765 12.6249C208.321 13.1801 207.982 13.836 207.748 14.5925C207.514 15.3485 207.397 16.1584 207.397 17.0226C207.397 17.9022 207.518 18.7163 207.76 19.4649C208.001 20.2139 208.352 20.8614 208.812 21.4095C209.271 21.9573 209.829 22.3852 210.484 22.6937C211.138 23.0026 211.887 23.1571 212.728 23.1571C213.82 23.1571 214.72 22.8936 215.429 22.3669C216.139 21.8402 216.688 21.1975 217.078 20.4382L220.001 20.9264Z" fill="white"/>
<mask id="mask0_305_3001" style="mask-type:luminance" maskUnits="userSpaceOnUse" x="223" y="8" width="12" height="18">
<path d="M223.814 8.46582H234.877V25.2939H223.814V8.46582Z" fill="white"/>
</mask>
<g mask="url(#mask0_305_3001)">
<path fill-rule="evenodd" clip-rule="evenodd" d="M223.814 8.46582H234.713V11.0437H226.697V15.45H234.15V17.9811H226.697V22.7156H234.877V25.2939H223.814V8.46582Z" fill="white"/>
</g>
</svg>
