<svg width="20" height="20" viewBox="0 0 20 20" fill="none" xmlns="http://www.w3.org/2000/svg">
<path d="M7.23379 10.6002H8.68379V13.9752C8.68379 14.4752 9.30046 14.7086 9.63379 14.3336L13.1838 10.3002C13.4921 9.95023 13.2421 9.40023 12.7755 9.40023H11.3255V6.02523C11.3255 5.52523 10.7088 5.29189 10.3755 5.66689L6.82546 9.70023C6.51712 10.0502 6.76712 10.6002 7.23379 10.6002Z" stroke="url(#paint0_linear_382_6237)" stroke-width="1.3" stroke-linecap="round" stroke-linejoin="round"/>
<path d="M9.97493 18.3332C14.5773 18.3332 18.3083 14.6022 18.3083 9.99984C18.3083 5.39746 14.5773 1.6665 9.97493 1.6665C5.37256 1.6665 1.6416 5.39746 1.6416 9.99984C1.6416 14.6022 5.37256 18.3332 9.97493 18.3332Z" stroke="url(#paint1_linear_382_6237)" stroke-width="1.3" stroke-linecap="round" stroke-linejoin="round"/>
<defs>
<linearGradient id="paint0_linear_382_6237" x1="10.0046" y1="5.48193" x2="10.0046" y2="17.7943" gradientUnits="userSpaceOnUse">
<stop stop-color="white"/>
<stop offset="1" stop-color="white" stop-opacity="0"/>
</linearGradient>
<linearGradient id="paint1_linear_382_6237" x1="9.97493" y1="1.6665" x2="9.97493" y2="24.3748" gradientUnits="userSpaceOnUse">
<stop stop-color="white"/>
<stop offset="1" stop-color="white" stop-opacity="0"/>
</linearGradient>
</defs>
</svg>
