<svg width="20" height="20" viewBox="0 0 20 20" fill="none" xmlns="http://www.w3.org/2000/svg">
<path d="M7.99967 16.6668H11.9997C15.333 16.6668 16.6663 15.3335 16.6663 12.0002V8.00016C16.6663 4.66683 15.333 3.3335 11.9997 3.3335H7.99967C4.66634 3.3335 3.33301 4.66683 3.33301 8.00016V12.0002C3.33301 15.3335 4.66634 16.6668 7.99967 16.6668Z" stroke="url(#paint0_linear_382_6211)" stroke-width="1.3" stroke-linecap="round" stroke-linejoin="round"/>
<path d="M8.74967 14.1668H11.2497C13.333 14.1668 14.1663 13.3335 14.1663 11.2502V8.75016C14.1663 6.66683 13.333 5.8335 11.2497 5.8335H8.74967C6.66634 5.8335 5.83301 6.66683 5.83301 8.75016V11.2502C5.83301 13.3335 6.66634 14.1668 8.74967 14.1668Z" stroke="url(#paint1_linear_382_6211)" stroke-width="1.3" stroke-linecap="round" stroke-linejoin="round"/>
<path d="M6.6748 3.33317V1.6665" stroke="white" stroke-linecap="round" stroke-linejoin="round"/>
<path d="M10 3.33317V1.6665" stroke="white" stroke-linecap="round" stroke-linejoin="round"/>
<path d="M13.333 3.33317V1.6665" stroke="white" stroke-linecap="round" stroke-linejoin="round"/>
<path d="M13.333 16.6665V18.3332" stroke="#57585C" stroke-linecap="round" stroke-linejoin="round"/>
<path d="M10 17V18.6667" stroke="#57585C" stroke-linecap="round" stroke-linejoin="round"/>
<path d="M6.6748 16.6665V18.3332" stroke="#57585C" stroke-linecap="round" stroke-linejoin="round"/>
<path d="M1.66699 6.6665H3.33366" stroke="url(#paint2_linear_382_6211)" stroke-width="1.3" stroke-linecap="round" stroke-linejoin="round"/>
<path d="M18.667 7H17.0003" stroke="url(#paint3_linear_382_6211)" stroke-width="1.3" stroke-linecap="round" stroke-linejoin="round"/>
<path d="M1.66699 10H3.33366" stroke="url(#paint4_linear_382_6211)" stroke-width="1.3" stroke-linecap="round" stroke-linejoin="round"/>
<path d="M18.667 10.3335H17.0003" stroke="url(#paint5_linear_382_6211)" stroke-width="1.3" stroke-linecap="round" stroke-linejoin="round"/>
<path d="M1.66699 13.3335H3.33366" stroke="url(#paint6_linear_382_6211)" stroke-linecap="round" stroke-linejoin="round"/>
<path d="M18.667 13.667H17.0003" stroke="url(#paint7_linear_382_6211)" stroke-linecap="round" stroke-linejoin="round"/>
<defs>
<linearGradient id="paint0_linear_382_6211" x1="9.99967" y1="3.3335" x2="9.99967" y2="21.5001" gradientUnits="userSpaceOnUse">
<stop stop-color="white"/>
<stop offset="1" stop-color="white" stop-opacity="0"/>
</linearGradient>
<linearGradient id="paint1_linear_382_6211" x1="9.99967" y1="5.8335" x2="9.99967" y2="14.1668" gradientUnits="userSpaceOnUse">
<stop stop-color="white"/>
<stop offset="1" stop-color="#999999"/>
</linearGradient>
<linearGradient id="paint2_linear_382_6211" x1="1" y1="6.49988" x2="4" y2="6.49988" gradientUnits="userSpaceOnUse">
<stop stop-color="white"/>
<stop offset="1" stop-color="#C5C6C7"/>
</linearGradient>
<linearGradient id="paint3_linear_382_6211" x1="19.334" y1="6.83337" x2="16.334" y2="6.83337" gradientUnits="userSpaceOnUse">
<stop stop-color="white"/>
<stop offset="1" stop-color="#C5C6C7"/>
</linearGradient>
<linearGradient id="paint4_linear_382_6211" x1="1" y1="10" x2="4" y2="10" gradientUnits="userSpaceOnUse">
<stop stop-color="white"/>
<stop offset="1" stop-color="#A0A0A3"/>
</linearGradient>
<linearGradient id="paint5_linear_382_6211" x1="19.334" y1="10.3335" x2="16.334" y2="10.3335" gradientUnits="userSpaceOnUse">
<stop stop-color="white"/>
<stop offset="1" stop-color="#A0A0A3"/>
</linearGradient>
<linearGradient id="paint6_linear_382_6211" x1="1.66699" y1="13.8335" x2="3" y2="13.8335" gradientUnits="userSpaceOnUse">
<stop stop-color="white"/>
<stop offset="1" stop-color="#868789"/>
</linearGradient>
<linearGradient id="paint7_linear_382_6211" x1="18.667" y1="14.167" x2="17.334" y2="14.167" gradientUnits="userSpaceOnUse">
<stop stop-color="white"/>
<stop offset="1" stop-color="#868789"/>
</linearGradient>
</defs>
</svg>
